<?xml version="1.0" encoding="UTF-8"?>
<svg id="Layer_2" data-name="Layer 2" xmlns="http://www.w3.org/2000/svg" xmlns:xlink="http://www.w3.org/1999/xlink" viewBox="0 0 500 500">
  <defs>
    <style>
      .cls-1 {
        fill: #e2795d;
      }

      .cls-2 {
        fill: #fff;
      }

      .cls-3 {
        fill: #7e9fcc;
      }

      .cls-4 {
        fill: #f1cecd;
      }

      .cls-5 {
        fill: #ebb0b0;
      }

      .cls-6 {
        fill: #597bb7;
      }

      .cls-7 {
        fill: #65718b;
      }

      .cls-8 {
        fill: #dd8e82;
      }

      .cls-9 {
        fill: #2a344a;
      }

      .cls-10 {
        fill: #e5c391;
      }

      .cls-11 {
        fill: #ecb84c;
      }

      .cls-12 {
        clip-path: url(#clippath);
      }

      .cls-13 {
        fill: none;
      }
    </style>
    <clipPath id="clippath">
      <rect class="cls-13" width="500" height="500"/>
    </clipPath>
  </defs>
  <g id="OBJECTS">
    <g>
      <path class="cls-3" d="M352.11,336.98s68.74-9.32,64.55-94.68c-80.98,27.29-64.55,94.68-64.55,94.68Z"/>
      <path class="cls-9" d="M352.02,337.42c-.19,0-.39-.06-.56-.17-.46-.31-.57-.93-.26-1.39l55.16-80.91c.31-.46,.93-.57,1.39-.26,.46,.31,.57,.93,.26,1.39l-55.16,80.91c-.19,.28-.51,.44-.83,.44Z"/>
      <path class="cls-9" d="M362.18,322.49c-.18,0-.36-.05-.52-.14-.34-.2-.52-.58-.48-.97,1.06-9.07,1.52-18.39,1.37-27.68,0-.55,.43-1.01,.98-1.02,.52-.03,1.01,.43,1.02,.98,.14,8.65-.25,17.32-1.14,25.8,7.7-5,16.27-8.77,25.5-11.22,.53-.14,1.08,.18,1.22,.71,.14,.53-.18,1.08-.71,1.22-9.74,2.58-18.72,6.67-26.68,12.14-.17,.12-.37,.18-.57,.18Z"/>
      <path class="cls-9" d="M380.35,296.03c-.18,0-.36-.05-.52-.14-.32-.19-.5-.55-.48-.92,.5-7.9,.36-15.99-.4-24.04-.05-.55,.35-1.04,.9-1.09,.56-.07,1.04,.35,1.09,.9,.71,7.51,.88,15.05,.51,22.45,7.52-4.51,15.4-8.67,23.44-12.4,.5-.23,1.1-.01,1.33,.49,.23,.5,.01,1.09-.49,1.33-8.55,3.96-16.91,8.43-24.86,13.27-.16,.1-.34,.15-.52,.15Z"/>
      <path class="cls-9" d="M352.11,337.98c-.45,0-.86-.31-.97-.76-.17-.7-4.1-17.34,1.92-37.63,5.56-18.71,21.04-44,63.28-58.24,.3-.1,.62-.05,.88,.12,.26,.18,.42,.46,.44,.78,2.19,44.52-15.7,68.18-31.09,80.18-16.68,13.02-33.61,15.44-34.33,15.53-.05,0-.09,0-.14,0Zm63.61-94.3c-40.43,14.02-55.34,38.35-60.72,56.39-5.12,17.15-2.83,32.01-2.11,35.76,3.76-.7,18.42-4,32.52-15.03,14.83-11.6,32.03-34.37,30.31-77.12Z"/>
    </g>
    <g>
      <path class="cls-3" d="M362.88,372.6s50.58,47.47,114.18-9.61c-72.25-45.64-114.18,9.61-114.18,9.61Z"/>
      <path class="cls-9" d="M363.26,373.18c-.51,0-.95-.39-1-.92-.05-.55,.36-1.03,.91-1.08l97.58-8.21c.54-.05,1.03,.36,1.08,.91,.05,.55-.36,1.03-.91,1.08l-97.58,8.21s-.06,0-.08,0Z"/>
      <path class="cls-9" d="M407.8,384.86c-.2,0-.41-.06-.59-.19-8.15-5.93-16.98-10.33-26.24-13.05-.38-.11-.65-.43-.71-.82-.05-.39,.12-.77,.45-.98,7.71-4.9,15.23-10.42,22.35-16.4,.42-.35,1.05-.3,1.41,.12,.36,.42,.3,1.05-.12,1.41-6.62,5.56-13.6,10.73-20.75,15.39,8.73,2.82,17.06,7.09,24.79,12.72,.45,.33,.54,.95,.22,1.4-.2,.27-.5,.41-.81,.41Z"/>
      <path class="cls-9" d="M439.33,380.03c-.15,0-.3-.03-.44-.1-8.46-4.14-17.2-7.81-25.98-10.92-.35-.12-.6-.43-.66-.8-.05-.37,.11-.74,.41-.95,6.44-4.59,12.64-9.8,18.4-15.47,.39-.39,1.03-.38,1.41,.01,.39,.39,.38,1.03-.01,1.41-5.38,5.29-11.13,10.18-17.1,14.55,8.24,3,16.44,6.48,24.4,10.37,.5,.24,.7,.84,.46,1.34-.17,.35-.53,.56-.9,.56Z"/>
      <path class="cls-9" d="M412.71,392.08c-6.23,0-11.88-.77-16.81-1.9-20.62-4.74-33.18-16.35-33.7-16.85-.37-.35-.42-.93-.11-1.33,.44-.57,10.87-14.12,30.41-22.24,18.02-7.49,47.42-11.42,85.1,12.39,.26,.17,.44,.45,.46,.76,.03,.31-.09,.62-.33,.83-24.58,22.05-47.21,28.34-65.03,28.34Zm-48.44-19.59c2.91,2.48,14.72,11.78,32.17,15.76,18.35,4.2,46.87,3.19,78.97-25.12-36.37-22.54-64.66-18.76-82.05-11.56-16.54,6.85-26.63,17.99-29.09,20.91Z"/>
    </g>
    <g>
      <path class="cls-6" d="M358.17,324.6s-.02,.01-.05,.05c-.05,.04-.15,.13-.26,.26-.27,.3-.73,.78-1.26,1.44l-.03,.02c-4.06,4.95-13.5,19.63,.08,36.46,13.47,16.7,29.66,10.81,35.47,7.87,.86-.43,1.48-.8,1.85-1.03,.07-.04,.14-.08,.19-.12,.12-.08,.18-.11,.18-.11,4.18-2.99,6.64-7.75,9.02-12.29,2.39-4.55,5.03-9.26,9.39-11.98,5.97-3.72,14.11-3,19.62-7.35,4.08-3.22,5.83-8.51,7.08-13.55,1.25-5.05,2.29-10.37,5.55-14.43,5.59-7,16.31-8.5,21.4-15.87,3.81-5.5,3.17-13.64-1.44-18.49-3.76-5.53-11.58-7.87-17.76-5.31-8.28,3.41-12.02,13.57-20.04,17.56-4.66,2.31-10.08,2.22-15.27,2.37-5.2,.15-10.74,.75-14.75,4.05-5.42,4.48-6.44,12.58-11.33,17.63-3.58,3.69-8.74,5.27-13.69,6.64-4.94,1.36-10.12,2.76-13.93,6.2Z"/>
      <path class="cls-9" d="M359.14,364.43c-.27,0-.54-.11-.73-.32-.37-.41-.35-1.04,.06-1.41,30.02-27.74,61.73-54.37,94.23-79.16,.44-.34,1.07-.25,1.4,.19,.33,.44,.25,1.07-.19,1.4-32.46,24.75-64.11,51.35-94.09,79.04-.19,.18-.44,.27-.68,.27Z"/>
      <path class="cls-9" d="M366.22,357.8c-.28,0-.55-.12-.74-.33-.23-.25-.31-.61-.22-.94,2.65-9.41,4.86-19.07,6.58-28.71,.1-.54,.62-.91,1.16-.81,.54,.1,.91,.62,.81,1.16-1.63,9.19-3.72,18.39-6.2,27.39,10.2-1.68,20.58-2.82,30.88-3.4,.54-.04,1.02,.39,1.05,.94,.03,.55-.39,1.02-.94,1.05-10.75,.6-21.59,1.83-32.21,3.64-.06,0-.11,.01-.17,.01Z"/>
      <path class="cls-9" d="M401.73,326.85c-.28,0-.55-.12-.74-.33-.24-.26-.32-.62-.22-.95l7.58-26.09c.15-.53,.7-.84,1.24-.68,.53,.15,.83,.71,.68,1.24l-7.12,24.52c9.75-1.82,19.71-2.75,29.62-2.79h0c.55,0,1,.45,1,1,0,.55-.44,1-1,1-10.33,.04-20.71,1.07-30.85,3.07-.06,.01-.13,.02-.19,.02Z"/>
      <path class="cls-9" d="M378.2,375.2c-6.93,0-15-2.65-22.33-11.73-14.27-17.69-3.66-33.35-.07-37.73,.03-.03,.05-.06,.08-.08,.51-.62,.94-1.08,1.21-1.38,.14-.15,.25-.26,.33-.33,.03-.03,.06-.06,.08-.08h0c3.95-3.56,9.14-4.99,14.17-6.38l.17-.05c5.08-1.41,9.92-2.96,13.24-6.38,2.16-2.23,3.52-5.08,4.96-8.09,1.66-3.48,3.38-7.08,6.45-9.61,4.24-3.48,9.89-4.11,15.36-4.27l1.48-.04c4.6-.11,9.36-.23,13.38-2.23,3.68-1.83,6.39-5,9.27-8.35,3.11-3.62,6.32-7.37,10.84-9.23,6.58-2.72,14.88-.26,18.92,5.61,4.88,5.2,5.54,13.84,1.48,19.69-2.77,4.02-7.12,6.37-11.31,8.64-3.89,2.1-7.56,4.09-10.13,7.29-2.8,3.49-3.92,8.1-5,12.56l-.36,1.48c-1.33,5.33-3.15,10.72-7.43,14.1-3.12,2.47-7.01,3.39-10.76,4.28-3.25,.77-6.31,1.5-8.95,3.14-4.05,2.52-6.58,6.92-9.04,11.59l-.08,.16c-2.42,4.62-4.92,9.39-9.24,12.48-.03,.02-.06,.04-.09,.05l-.12,.08s-.12,.08-.24,.15c-.39,.24-1.03,.61-1.91,1.06-3.02,1.53-8.25,3.6-14.37,3.6Zm-20.9-48.13c-4.31,5.28-12.78,19.14,.13,35.14,12.89,15.98,28.24,10.64,34.24,7.6,.82-.42,1.42-.77,1.79-.99l.1-.06c.11-.08,.19-.13,.23-.16,3.92-2.82,6.3-7.37,8.6-11.76l.08-.16c2.59-4.92,5.28-9.57,9.75-12.36,2.92-1.81,6.29-2.61,9.55-3.39,3.7-.88,7.2-1.71,9.98-3.9,3.82-3.01,5.49-8.03,6.73-13.01l.36-1.47c1.13-4.67,2.3-9.5,5.38-13.34,2.81-3.52,6.84-5.7,10.74-7.8,4.17-2.25,8.12-4.39,10.62-8.01,3.55-5.13,2.96-12.7-1.34-17.24-.04-.04-.07-.08-.1-.13-3.52-5.16-10.79-7.34-16.55-4.95-4.08,1.68-7,5.08-10.08,8.68-2.88,3.36-5.86,6.84-9.9,8.84-4.42,2.19-9.4,2.32-14.22,2.44l-1.47,.04c-5.12,.15-10.37,.72-14.15,3.82-2.73,2.25-4.28,5.5-5.92,8.93-1.45,3.03-2.94,6.16-5.33,8.62-3.67,3.78-8.79,5.43-14.14,6.91l-.17,.05c-4.78,1.32-9.73,2.68-13.32,5.9-.04,.05-.08,.09-.13,.13-.03,.03-.09,.09-.16,.16-.3,.33-.72,.78-1.22,1.39-.03,.03-.05,.06-.08,.09Zm.88-2.47h0Z"/>
    </g>
    <g>
      <path class="cls-3" d="M161.47,334.22s-68.74-9.32-64.55-94.68c80.98,27.29,64.55,94.68,64.55,94.68Z"/>
      <path class="cls-9" d="M161.56,334.66c-.32,0-.63-.15-.83-.44l-55.16-80.91c-.31-.46-.19-1.08,.26-1.39,.46-.31,1.08-.19,1.39,.26l55.16,80.91c.31,.46,.19,1.08-.26,1.39-.17,.12-.37,.17-.56,.17Z"/>
      <path class="cls-9" d="M151.4,319.73c-.2,0-.4-.06-.57-.18-7.96-5.47-16.94-9.55-26.68-12.14-.53-.14-.85-.69-.71-1.22,.14-.53,.69-.85,1.22-.71,9.24,2.45,17.81,6.22,25.5,11.22-.9-8.48-1.28-17.15-1.14-25.8,0-.55,.46-.98,1-.98h.02c.55,0,.99,.46,.98,1.02-.15,9.29,.31,18.61,1.37,27.68,.05,.39-.14,.77-.48,.97-.16,.1-.34,.14-.52,.14Z"/>
      <path class="cls-9" d="M133.22,293.27c-.18,0-.36-.05-.52-.15-7.94-4.84-16.31-9.31-24.86-13.27-.5-.23-.72-.83-.49-1.33,.23-.5,.83-.72,1.33-.49,8.04,3.72,15.92,7.89,23.43,12.4-.37-7.4-.2-14.94,.51-22.45,.05-.55,.53-.97,1.09-.9,.55,.05,.95,.54,.9,1.09-.76,8.05-.9,16.14-.4,24.04,.02,.37-.16,.73-.48,.92-.16,.1-.34,.14-.52,.14Z"/>
      <path class="cls-9" d="M161.47,335.22s-.09,0-.14,0c-.71-.1-17.64-2.52-34.33-15.53-15.39-12.01-33.27-35.66-31.09-80.18,.02-.31,.18-.6,.44-.78,.26-.18,.59-.22,.88-.12,42.24,14.23,57.72,39.53,63.28,58.24,6.02,20.28,2.09,36.93,1.92,37.63-.11,.45-.52,.76-.97,.76Zm-63.61-94.3c-1.73,42.76,15.48,65.53,30.31,77.12,14.1,11.03,28.77,14.33,32.52,15.03,.72-3.75,3-18.61-2.11-35.76-5.38-18.04-20.29-42.37-60.72-56.39Z"/>
    </g>
    <g>
      <path class="cls-3" d="M142.77,365.14s-50.58,47.47-114.18-9.61c72.25-45.64,114.18,9.61,114.18,9.61Z"/>
      <path class="cls-9" d="M142.39,365.71s-.06,0-.08,0l-97.58-8.21c-.55-.05-.96-.53-.91-1.08,.05-.55,.52-.97,1.08-.91l97.58,8.21c.55,.05,.96,.53,.91,1.08-.04,.52-.48,.92-1,.92Z"/>
      <path class="cls-9" d="M97.85,377.39c-.31,0-.61-.14-.81-.41-.32-.45-.23-1.07,.22-1.4,7.73-5.63,16.06-9.9,24.79-12.72-7.15-4.65-14.12-9.82-20.75-15.39-.42-.35-.48-.99-.12-1.41,.35-.42,.99-.48,1.41-.12,7.12,5.98,14.63,11.49,22.35,16.4,.33,.21,.51,.59,.45,.98-.05,.39-.33,.71-.71,.82-9.27,2.73-18.1,7.12-26.24,13.05-.18,.13-.38,.19-.59,.19Z"/>
      <path class="cls-9" d="M66.32,372.57c-.37,0-.73-.21-.9-.56-.24-.5-.04-1.1,.46-1.34,7.96-3.89,16.16-7.38,24.4-10.37-5.98-4.38-11.72-9.27-17.1-14.55-.39-.39-.4-1.02-.01-1.41,.39-.39,1.02-.4,1.41-.01,5.77,5.67,11.96,10.87,18.4,15.47,.3,.22,.46,.58,.41,.95-.05,.37-.3,.68-.66,.8-8.77,3.11-17.51,6.79-25.98,10.92-.14,.07-.29,.1-.44,.1Z"/>
      <path class="cls-9" d="M92.95,384.61c-17.82,0-40.45-6.29-65.03-28.34-.23-.21-.35-.52-.33-.83,.03-.31,.2-.59,.46-.76,37.68-23.8,67.08-19.87,85.1-12.39,19.54,8.12,29.98,21.66,30.41,22.24,.31,.41,.26,.98-.11,1.33-.52,.49-13.08,12.11-33.7,16.85-4.93,1.13-10.57,1.9-16.81,1.9Zm-62.7-28.95c32.09,28.3,60.61,29.31,78.97,25.12,17.45-3.99,29.26-13.29,32.17-15.76-2.46-2.93-12.55-14.07-29.09-20.91-17.39-7.2-45.68-10.97-82.05,11.56Z"/>
    </g>
    <g>
      <path class="cls-6" d="M155.4,321.84s.02,.01,.05,.05c.05,.04,.15,.13,.26,.26,.27,.3,.73,.78,1.26,1.44l.03,.02c4.06,4.95,13.5,19.63-.08,36.46-13.47,16.7-29.66,10.81-35.47,7.87-.86-.43-1.48-.8-1.85-1.03-.07-.04-.14-.08-.19-.12-.12-.08-.18-.11-.18-.11-4.18-2.99-6.64-7.75-9.02-12.29-2.39-4.55-5.03-9.26-9.39-11.98-5.97-3.72-14.11-3-19.62-7.35-4.08-3.22-5.83-8.51-7.08-13.55-1.25-5.05-2.29-10.37-5.55-14.43-5.59-7-16.31-8.5-21.4-15.87-3.81-5.5-3.17-13.64,1.44-18.49,3.76-5.53,11.58-7.87,17.76-5.31,8.28,3.41,12.03,13.57,20.04,17.56,4.66,2.31,10.08,2.22,15.27,2.37,5.2,.15,10.74,.75,14.75,4.04,5.42,4.48,6.44,12.58,11.33,17.63,3.58,3.69,8.74,5.27,13.69,6.64,4.94,1.36,10.12,2.76,13.93,6.2Z"/>
      <path class="cls-9" d="M154.43,361.67c-.24,0-.49-.09-.68-.27-29.98-27.7-61.64-54.29-94.09-79.04-.44-.33-.52-.96-.19-1.4,.33-.44,.96-.53,1.4-.19,32.5,24.79,64.21,51.42,94.23,79.16,.41,.38,.43,1.01,.06,1.41-.2,.21-.47,.32-.73,.32Z"/>
      <path class="cls-9" d="M147.36,355.04c-.06,0-.11,0-.17-.01-10.62-1.81-21.45-3.03-32.21-3.64-.55-.03-.97-.5-.94-1.05,.03-.55,.51-.97,1.05-.94,10.3,.58,20.68,1.72,30.88,3.4-2.48-9-4.56-18.21-6.2-27.39-.1-.54,.27-1.06,.81-1.16,.54-.1,1.06,.27,1.16,.81,1.71,9.63,3.92,19.29,6.58,28.71,.09,.33,.01,.68-.22,.94-.19,.21-.46,.33-.74,.33Z"/>
      <path class="cls-9" d="M111.84,324.09c-.06,0-.13,0-.19-.02-10.14-1.99-20.52-3.02-30.85-3.07-.55,0-1-.45-1-1,0-.55,.45-1,1-1h0c9.91,.04,19.87,.98,29.62,2.79l-7.12-24.52c-.15-.53,.15-1.09,.68-1.24,.53-.15,1.08,.15,1.24,.68l7.57,26.09c.1,.34,.01,.7-.22,.95-.19,.21-.46,.33-.74,.33Z"/>
      <path class="cls-9" d="M135.37,372.44c-6.12,0-11.35-2.07-14.37-3.6-.67-.34-1.3-.69-1.92-1.07-.11-.06-.23-.14-.3-.2l-.05-.02c-4.4-3.15-6.9-7.92-9.32-12.53l-.09-.16c-2.45-4.67-4.99-9.07-9.04-11.59-2.64-1.64-5.7-2.37-8.95-3.14-3.75-.89-7.64-1.81-10.76-4.28-4.29-3.38-6.1-8.77-7.43-14.09l-.36-1.48c-1.08-4.46-2.2-9.07-5-12.56-2.56-3.21-6.24-5.19-10.13-7.29-4.2-2.27-8.54-4.61-11.32-8.64-4.06-5.85-3.4-14.49,1.48-19.69,4.05-5.87,12.34-8.34,18.93-5.61,4.52,1.86,7.73,5.61,10.84,9.23,2.88,3.36,5.6,6.53,9.27,8.35,4.02,2,8.77,2.11,13.37,2.23l1.49,.04c5.47,.16,11.12,.79,15.36,4.27,3.07,2.54,4.79,6.13,6.45,9.61,1.44,3.01,2.8,5.86,4.96,8.09,3.32,3.42,8.16,4.97,13.24,6.38l.18,.05c5.02,1.39,10.21,2.82,14.15,6.37h0s.05,.05,.08,.08c.08,.07,.18,.17,.29,.29,.34,.37,.76,.83,1.26,1.43,.03,.03,.05,.05,.07,.08,3.59,4.38,14.2,20.04-.07,37.73-7.33,9.08-15.4,11.73-22.33,11.73Zm-15.59-6.59s.1,.07,.19,.12l.14,.09c.59,.36,1.17,.68,1.8,1,6,3.04,21.35,8.37,34.24-7.6,12.91-16.01,4.44-29.87,.13-35.15-.03-.03-.06-.06-.08-.08-.49-.6-.9-1.04-1.17-1.33-.12-.13-.17-.18-.21-.22-.04-.03-.08-.08-.12-.12-3.59-3.22-8.53-4.58-13.31-5.9l-.18-.05c-5.36-1.48-10.47-3.13-14.15-6.91-2.39-2.47-3.89-5.6-5.33-8.62-1.64-3.43-3.19-6.68-5.92-8.93-3.77-3.1-9.03-3.67-14.14-3.82l-1.48-.04c-4.81-.12-9.79-.24-14.21-2.44-4.04-2-7.02-5.48-9.9-8.84-3.09-3.6-6-7-10.08-8.68-5.77-2.39-13.04-.21-16.56,4.95-.03,.04-.06,.09-.1,.13-4.31,4.54-4.9,12.11-1.34,17.24,2.5,3.63,6.45,5.76,10.62,8.02,3.89,2.1,7.92,4.28,10.74,7.8,3.08,3.84,4.25,8.67,5.38,13.34l.36,1.47c1.24,4.98,2.92,10,6.73,13.01,2.78,2.2,6.28,3.03,9.98,3.9,3.26,.77,6.63,1.57,9.54,3.39,4.47,2.79,7.17,7.44,9.75,12.36l.09,.16c2.3,4.39,4.68,8.94,8.59,11.76Z"/>
    </g>
    <g>
      <g>
        <path class="cls-1" d="M362.91,258.18l-19.55,35.49-22.62-5.68c.98-1.76,1.96-3.53,2.94-5.31,.39-.71,.78-1.44,.96-2.24,.37-1.78-.43-3.54-.93-5.29-.98-3.38-.84-7.07,.39-10.36,.37-1.03,.77-2.46-.16-3.06-.32-.21-.75-.25-1.14-.25-1.03,0-2.05,.16-3.03,.48l-1.34-4.42,47.99-14.49,5.77-1.75-9.3,16.88Z"/>
        <path class="cls-2" d="M343.37,293.67h-.02l19.55-35.49c1.87,10.03,8.3,44.84,8.73,52.09,.39,6.84-.77,14.96-8.74,18.89-3.79-16.44-19.52-35.49-19.52-35.49Z"/>
        <path class="cls-2" d="M357.15,233.92c1.55,.25,3.13,.55,4.74,.93l4.54,8.19-47.99,14.49-13.03,3.94c-6.3,2.92-12.66,0-12.66,0l-62.13-17.18,2.6-3.31,2.6-3.31s1.98-.53,5.29-1.05c5.79-.91,15.63-1.8,26.23,.2,2.12,.41,4.27,.93,6.41,1.58,9.28,2.83,18.61,8.24,25.8,18.07,0,0,21.58-28.21,57.61-22.54Z"/>
        <path class="cls-3" d="M312.96,317.81h-.02c-.59-.3-.89-.46-.89-.46-1.05-2.28-.04-6.32,.14-6.98,.02-.02,.02-.04,.02-.05v-.04l.02-.02s5.02-.12,8.03-18.66c.2-1.26-.12-2.49,.48-3.61l22.62,5.68h.02s15.72,19.05,19.52,35.49c-1.94,.96-4.27,1.67-7.1,2.07-2.74,.37-6,.11-9.51-.55-13.05-2.53-29.36-10.77-33.32-12.86Z"/>
        <path class="cls-3" d="M346.27,330.67l7.53,57.48H177.91l6.46-54.95,.57-.82c1.3,.91,2.62,1.8,4.02,2.83,1.03,.77,2.14,1.6,3.33,2.56,1.92-.59,2.83-.96,4.52-1.89-1.21-2.62-2.08-4.79-2.9-6.87-1.3-3.33-2.44-6.39-4.34-10.56-2.28-3.17-4.52-6.29-6.71-9.35v-.02l3.38-23.22s58.5,41.72,78.05,59.55c0,0,29.13-17.18,48.65-27.6h.02c3.95,2.08,20.26,10.33,33.32,12.86Z"/>
        <path class="cls-2" d="M289.5,174.64c9.3,.23,25.78,1.16,36.91,4.43,14.94,4.42,28.65,47.95,30.74,54.85-36.02-5.66-57.61,22.54-57.61,22.54-7.19-9.83-16.53-15.24-25.8-18.07,1.66-4.1,1.98-8.64,2.24-13.05,.28-4.7,.57-9.49,2.4-13.82,1.67-3.95,4.91-7.5,9.01-8.55-.28-8-1.12-14.39-2.24-19.52-.8-3.56-1.73-6.5-2.69-8.92,.28,0,2.97-.02,7.03,.11Z"/>
        <path class="cls-4" d="M304.96,283.59c2.21-1.48,4.42-2.96,6.62-4.43,.66-.43,1.34-.89,1.76-1.57,.98-1.55,.23-3.56,0-5.38-.36-2.69,.5-5.5,2.28-7.51,1.1-1.26,2.56-2.21,4.15-2.74,.98-.32,1.99-.48,3.03-.48,.39,0,.82,.04,1.14,.25,.93,.61,.53,2.03,.16,3.06-1.23,3.29-1.37,6.98-.39,10.36,.5,1.75,1.3,3.51,.93,5.29-.18,.8-.57,1.53-.96,2.24-.98,1.78-1.96,3.54-2.94,5.31-.61,1.12-.28,2.35-.48,3.61-3.01,18.54-8.03,18.66-8.03,18.66,0,0-24.68-5.77-30.91-8.58-6.25-2.81-20.99-17.42-23.99-20.46-1.98-2.01-.62-3.42,.52-4.13-1.18-1.09-2.3-2.24-3.38-3.42-.2-.2-.37-.41-.5-.68-.34-.78,.12-1.73,.84-2.19,.25-.16,.52-.28,.82-.36-.23-.18-.48-.34-.71-.5-.46-.3-.94-.66-1.09-1.18-.25-.84,.46-1.64,1.21-2.07,1.16-.68,2.53-.89,3.86-.89,2.99,.02,5.97,1.12,8.24,3.08-.62-.84-1.25-1.67-1.87-2.51-.61-.8-1.23-1.75-1-2.72,.2-.85,1.03-1.46,1.89-1.6,.87-.16,1.75,.05,2.58,.32,4.06,1.3,7.64,4.06,9.95,7.66,.77,1.21,1.41,2.51,2.35,3.58,2.26,2.55,5.86,3.35,9.19,4.1,5.2,1.19,10.45,2.71,14.73,5.88Z"/>
        <path class="cls-1" d="M318.44,257.53l1.34,4.42c-1.58,.53-3.04,1.48-4.15,2.74-1.78,2.01-2.64,4.83-2.28,7.51,.23,1.82,.98,3.83,0,5.38-.43,.68-1.1,1.14-1.76,1.57-2.21,1.48-4.42,2.96-6.62,4.43-4.27-3.17-9.53-4.68-14.73-5.88-3.33-.75-6.93-1.55-9.19-4.1-.94-1.07-1.58-2.37-2.35-3.58-2.31-3.6-5.89-6.36-9.95-7.66-.84-.27-1.71-.48-2.58-.32-.85,.14-1.69,.75-1.89,1.6-.23,.98,.39,1.92,1,2.72,.62,.84,1.25,1.67,1.87,2.51-2.28-1.96-5.25-3.06-8.24-3.08-1.34,0-2.71,.21-3.86,.89-.75,.43-1.46,1.23-1.21,2.07,.14,.52,.62,.87,1.09,1.18,.23,.16,.48,.32,.71,.5-.3,.07-.57,.2-.82,.36-.71,.46-1.18,1.41-.84,2.19,.12,.27,.3,.48,.5,.68,1.09,1.18,2.21,2.33,3.38,3.42-1.14,.71-2.49,2.12-.52,4.13,2.99,3.05,17.74,17.65,23.99,20.46,6.23,2.81,30.91,8.58,30.91,8.58l-.02,.02v.04s0,.04-.02,.05l-1.46,3.03s-2.14,1.98-8.99,5.06c-.41,.18-.82,.34-1.23,.48-6.13,2.23-9.99-.48-9.99-.48l-45.3-17.86-18.31-57.32,3.7,1.01,62.13,17.18s6.36,2.92,12.66,0l13.03-3.94Z"/>
        <path class="cls-2" d="M310.73,313.4l1.46-3.03c-.18,.66-1.19,4.7-.14,6.98,0,0,.3,.16,.89,.46-19.52,10.42-48.65,27.6-48.65,27.6-19.55-17.82-78.05-59.55-78.05-59.55l-9.08,10.42c-1.39-1.28-2.97-1.82-4.15-.87-6.48-9.05-12.87-17.95-19.59-27.3l-4.58-6.36c-.62-.87-1.25-1.75-1.87-2.62-1.76-2.44-5.25-3.24-7.87-1.69-1.32,.78-1.96,1.25-3.12,2.24-.66,.57-1.18,1.28-1.51,2.05l-1.39-.53v-.02c13.59-34.33,31.71-71.73,40.03-77.32,9.53-6.41,27.83-10.61,39.39-12.75,2.28-.41,4.29-.77,5.93-1.01-3.69,4.84-6.57,10.31-8.44,16.12-3.26,10.1,2.81,25.93,5.73,24.95,3.49-1.16,7.44,.69,9.69,3.6,2.26,2.9,3.12,6.64,3.6,10.29,.46,3.63,.61,7.35,1.67,10.88,.55,1.8,1.39,3.56,2.53,5.04l-2.6,3.31-3.7-1.01,18.31,57.32,45.3,17.86s3.86,2.71,9.99,.48c.41-.14,.82-.3,1.23-.48,6.86-3.08,8.99-5.06,8.99-5.06Z"/>
        <path class="cls-4" d="M301.33,134.47c-.02,.21-.05,.45-.09,.66-.07,.48-.16,.94-.28,1.42-.28,1.18-.71,2.33-1.32,3.44-.11,.2-.21,.37-.3,.55-.28,.46-.61,.93-.94,1.35-.14,.18-.28,.37-.46,.55-.89,1.03-1.98,1.94-3.28,2.65-.39,.21-.8,.41-1.25,.59-.21,.09-.43,.18-.66,.25-.23,.07-.46,.16-.69,.21-.48,.14-.96,.25-1.48,.32-.46,.09-.94,.14-1.46,.16-.32,.02-.62,.04-.94,.04-.75,0-1.55-.05-2.37-.16-2.71,6.68-7.12,12.02-11.86,16.19-1.39,1.23-2.81,2.35-4.22,3.38-3.86,2.83-7.69,4.91-10.77,6.39-3.99,1.89-8.44,2.49-12.79,1.75-2.17-.37-4.24-1.09-6.18-2.1-1.91-.98-3.7-2.3-5.25-3.85-1.39-1.41-2.94-3.08-4.51-5,0,0-1.53-1.91-2.24-2.88-.43-.57-.85-1.18-1.26-1.78-4.31-6.36-8.12-14.51-8.53-23.84-10.54-2.26-12.39-11.68-10.1-17.99,1.78-4.91,6.11-7.94,10.83-4.17,9.49,1.76,15.56-.64,20.28-4.7,9.38,.98,30.7,3.65,47.26,8.97,1.78,3.28,3.81,6.21,6.16,8.55,.23-.07,.48-.14,.71-.21,.45-.11,.87-.2,1.3-.23,.57-.05,1.1-.04,1.6,.05,.16,.02,.32,.05,.48,.09,.27,.07,.53,.16,.8,.29,.14,.05,.27,.12,.41,.2,.21,.12,.43,.25,.62,.41,.12,.09,.25,.18,.36,.28,.07,.07,.14,.12,.21,.2,.09,.09,.18,.2,.27,.3,.2,.2,.36,.43,.5,.66,.14,.18,.25,.37,.36,.57,.18,.34,.34,.68,.48,1.05,.07,.16,.12,.34,.18,.52,.05,.16,.11,.32,.14,.5,.18,.66,.28,1.39,.34,2.12v.04c.04,.71,.04,1.46-.05,2.23Z"/>
        <path class="cls-5" d="M301.24,135.13c.04-.21,.07-.45,.09-.66-.02,.21-.05,.45-.09,.66Z"/>
        <path class="cls-5" d="M300.95,136.55c.12-.48,.21-.94,.28-1.42-.07,.48-.16,.96-.28,1.42Z"/>
        <path class="cls-5" d="M301.04,130.09c-.04-.18-.09-.34-.14-.5,.05,.16,.11,.32,.14,.5Z"/>
        <path class="cls-5" d="M300.72,129.07c-.14-.37-.3-.71-.48-1.05,.2,.34,.36,.68,.48,1.05Z"/>
        <path class="cls-5" d="M300.24,128.02c-.11-.2-.21-.39-.36-.57,.14,.18,.25,.37,.36,.57Z"/>
        <path class="cls-5" d="M299.33,140.54c.09-.18,.2-.36,.3-.55-.09,.18-.2,.37-.3,.55Z"/>
        <path class="cls-5" d="M299.39,126.79c-.09-.11-.18-.21-.27-.3,.09,.09,.18,.2,.27,.3Z"/>
        <path class="cls-5" d="M298.91,126.3c-.11-.11-.23-.2-.36-.28,.12,.09,.23,.18,.36,.28Z"/>
        <path class="cls-5" d="M297.93,142.45c.18-.18,.32-.37,.46-.55-.14,.2-.3,.37-.46,.55Z"/>
        <path class="cls-5" d="M297.93,125.6c-.14-.07-.27-.14-.41-.2,.14,.05,.28,.12,.41,.2Z"/>
        <path class="cls-5" d="M296.72,125.12c-.16-.04-.32-.07-.48-.09,.16,.02,.32,.05,.48,.09Z"/>
        <path class="cls-5" d="M293.4,145.69c.45-.18,.85-.37,1.25-.59-.39,.23-.8,.43-1.25,.59Z"/>
        <path class="cls-5" d="M293.33,125.21c.45-.12,.89-.2,1.3-.23-.43,.04-.85,.12-1.3,.23Z"/>
        <path class="cls-5" d="M292.75,145.94c.23-.07,.45-.16,.66-.25-.21,.11-.43,.18-.66,.25Z"/>
        <path class="cls-5" d="M292.05,146.15c.23-.05,.46-.14,.69-.21-.21,.09-.46,.16-.69,.21Z"/>
        <path class="cls-5" d="M290.57,146.47c.52-.07,1-.18,1.48-.32-.46,.14-.96,.25-1.48,.32Z"/>
        <path class="cls-5" d="M288.17,146.67c.32,0,.62-.02,.94-.04-.3,.02-.62,.04-.94,.04Z"/>
        <path class="cls-3" d="M282.47,174.54c.96,2.42,1.89,5.36,2.69,8.92,1.12,5.13,1.96,11.52,2.24,19.52-4.1,1.05-7.34,4.59-9.01,8.55-1.83,4.33-2.12,9.12-2.4,13.82-.27,4.42-.59,8.96-2.24,13.05-2.14-.66-4.29-1.18-6.41-1.58-.37-7.94-1.83-15.85-4.33-23.42-.78-2.39-1.67-4.74-2.67-7.05,8.26-7.8,13.98-18.25,16.22-29.4-.45-.59-.8-1.19-1.07-1.83-.69-1.67-1.1-4.34-1.34-7.18-.12-1.55-.18-3.15-.21-4.67,0,0,4.67,1.64,8.53,11.27Z"/>
        <path class="cls-1" d="M279.48,98.61c1.64,6.05,3.92,12.66,6.98,18.27-16.56-5.32-37.88-8-47.26-8.97,4.63-3.95,7.96-9.49,11.88-14.25,11.47,1.34,21.01,3.19,28.4,4.95Z"/>
        <path class="cls-4" d="M275.65,79.45s1,8.81,3.83,19.16c-7.39-1.76-16.93-3.61-28.4-4.95,.34-.41,.68-.82,1.03-1.21,10.29-11.7,23.54-13,23.54-13Z"/>
        <path class="cls-4" d="M260.34,206.34c1,2.31,1.89,4.67,2.67,7.05-2.85,2.14-6.41,3.28-9.97,3.15-3.33-.11-6.61-1.34-9.22-3.4,.45-2.67,.75-4.36,.75-4.36-17.08-19.14-14.33-45.51-14.33-45.51,0,0,5.63,18.63,18.96,22.33,13.32,3.69,24.97-17.66,24.97-17.66,.23,2.83,.64,5.5,1.34,7.18,.27,.64,.62,1.25,1.07,1.83-2.24,11.15-7.96,21.6-16.22,29.4Z"/>
        <path class="cls-5" d="M274.15,167.93s-11.65,21.35-24.97,17.66c-13.34-3.7-18.96-22.33-18.96-22.33,1.57,1.92,3.12,3.6,4.51,5,1.55,1.55,3.35,2.87,5.25,3.85,1.94,1.02,4.01,1.73,6.18,2.1,4.34,.75,8.8,.14,12.79-1.75,3.08-1.48,6.91-3.56,10.77-6.39,1.41-1.03,2.83-2.15,4.22-3.38v.57c.04,1.51,.09,3.12,.21,4.67Z"/>
        <path class="cls-2" d="M263.01,213.39c2.49,7.57,3.95,15.47,4.33,23.42-10.6-1.99-20.44-1.1-26.23-.2,.28-7.64,1.78-17.79,2.71-23.47,2.62,2.07,5.89,3.29,9.22,3.4,3.56,.12,7.12-1.01,9.97-3.15Z"/>
        <path class="cls-3" d="M218.44,170.1c2.72-3.6,5.91-6.86,9.46-9.65l.09-.07c.71,.98,1.44,1.91,2.15,2.78,.02,.04,.05,.07,.09,.11,0,0-2.74,26.37,14.33,45.51,0,0-.3,1.69-.75,4.36-.93,5.68-2.42,15.83-2.71,23.47-3.31,.52-5.29,1.05-5.29,1.05l-2.6,3.31c-1.14-1.48-1.98-3.24-2.53-5.04-1.07-3.53-1.21-7.25-1.67-10.88-.48-3.65-1.34-7.39-3.6-10.29-2.24-2.9-6.2-4.75-9.69-3.6-2.92,.98-8.99-14.85-5.73-24.95,1.87-5.81,4.75-11.27,8.44-16.12Z"/>
        <path class="cls-5" d="M230.15,159.95l.07,3.31s-.07-.07-.09-.11c.04-1.16,.04-2.24,.02-3.21Z"/>
        <path class="cls-9" d="M306.15,155.66c-1.51,6.43-5.66,12.63-11.91,14.78l-.87-.5c-.98,1.8-2.28,3.4-3.86,4.7-4.06-.12-6.75-.11-7.03-.11-3.86-9.63-8.53-11.27-8.53-11.27v-.57c4.74-4.17,9.15-9.51,11.86-16.19,.82,.11,1.62,.16,2.37,.16,.32,0,.64-.02,.94-.04,.52-.02,1-.07,1.46-.16,.52-.07,1.01-.18,1.48-.32,.23-.05,.48-.12,.69-.21,.23-.07,.45-.14,.66-.25,.45-.16,.85-.36,1.25-.59,1.3-.71,2.39-1.62,3.28-2.65,.16-.18,.32-.36,.46-.55,.34-.43,.66-.89,.94-1.35,.11-.18,.21-.37,.3-.55,.61-1.1,1.03-2.26,1.32-3.44,.12-.46,.21-.94,.28-1.42,.04-.21,.07-.45,.09-.66,.09-.77,.09-1.51,.05-2.23v-.04c-.05-.73-.16-1.46-.34-2.12-.04-.18-.09-.34-.14-.5-.05-.18-.11-.36-.18-.52-.12-.37-.28-.71-.48-1.05-.11-.2-.21-.39-.36-.57-.14-.23-.3-.46-.5-.66-.09-.11-.18-.21-.27-.3-.07-.07-.14-.12-.21-.2-.12-.11-.23-.2-.36-.28-.2-.16-.41-.28-.62-.41-.12-.07-.27-.14-.41-.2-.27-.12-.53-.21-.8-.29-.16-.04-.32-.07-.48-.09-.5-.09-1.03-.11-1.6-.05-.41,.04-.85,.11-1.3,.23-.23,.07-.48,.14-.71,.21-2.35-2.33-4.38-5.27-6.16-8.55-3.06-5.61-5.34-12.22-6.98-18.27-2.83-10.35-3.83-19.16-3.83-19.16,0,0-13.25,1.3-23.54,13-.36,.39-.69,.8-1.03,1.21-3.92,4.75-7.25,10.29-11.88,14.25-4.72,4.06-10.79,6.46-20.28,4.7-4.72-3.78-9.05-.75-10.83,4.17-2.3,6.3-.45,15.72,10.1,17.99,.41,9.33,4.22,17.49,8.53,23.84,.41,.61,.84,1.21,1.26,1.78l-.09,.07c-3.54,2.8-6.73,6.05-9.46,9.65-1.64,.25-3.65,.61-5.93,1.02l-.04-.18c-3.58,.45-7.32-1-9.72-3.69-6.23-2.48-9.65-9.6-9.81-16.33-.14-6.78,2.35-13.3,4.81-19.64,2.08-5.36,4.18-10.72,6.27-16.1,2.69-6.87,5.36-13.75,8.03-20.64,2.39-6.11,4.79-12.29,8.53-17.66,6.54-9.44,17.11-15.97,28.46-17.61,11.36-1.64,23.35,1.64,32.28,8.85l.25-.09c6,.34,11.77,3.56,15.21,8.49,3.81,5.48,4.61,12.45,5.32,19.09,1.26,12.06,2.53,24.11,3.78,36.17,.16,1.39,.3,2.78,.45,4.17,.68,6.57,1.37,13.28-.16,19.71Z"/>
        <path class="cls-5" d="M193.92,329.01c.82,2.08,1.69,4.26,2.9,6.87-1.69,.93-2.6,1.3-4.52,1.89-1.19-.96-2.3-1.8-3.33-2.56-1.41-1.03-2.72-1.92-4.02-2.83-1.03-.69-2.05-1.41-3.13-2.19,.52-.66,.8-1.73,.5-3.15,.07-.07,.11-.16,.11-.28-.04-1.07,.23-2.53,1.58-3.49,1.37-.98,2.81-.77,3.83-.39,.37,.12,.68-.27,.55-.68-.87-2.42,1.19-3.74,1.19-3.74,1.91,4.17,3.04,7.23,4.34,10.56Z"/>
        <path class="cls-11" d="M173.01,295.41c.07,.09,.14,.2,.21,.28-4.26,2.56,2.01,14.25,6.34,9.4,.05-.11,.12-.21,.16-.34,1.03,1.42,2.08,2.87,3.13,4.33v.02c2.19,3.06,4.43,6.18,6.71,9.35,0,0-2.07,1.32-1.19,3.74,.12,.41-.18,.8-.55,.68-1.01-.37-2.46-.59-3.83,.39-1.35,.96-1.62,2.42-1.58,3.49,0,.12-.04,.21-.11,.28-.52-2.37-2.69-5.68-8.19-9.6,0,0,4.26-1.8,3.33-4.7s-2.6-5.32-5.81-7.67c-2.64-1.92-9.42-8.16-15.99-8.74-4.65-6.48-9.3-12.96-14.12-19.68,3.33-3.6,7.41-6.52,11.9-8.53,6.71,9.35,13.11,18.25,19.59,27.3Z"/>
        <path class="cls-3" d="M186.24,285.87l-3.38,23.22c-1.05-1.46-2.1-2.9-3.13-4.33,1.25-2.72-.41-6.5-2.56-8.48l9.08-10.42Z"/>
        <path class="cls-4" d="M182.31,327.04c.3,1.42,.02,2.49-.5,3.15-.32,.41-.73,.66-1.14,.73-2.17,.37-4.33-1.48-4.33-1.48,0,0-2.42,2.17-7.43,2.72-5.02,.55-8.05,0-8.05,0,0,0-6.18,2.42-10.52,1.03-.48-.14-.93-.3-1.35-.48-.04-.02-.09-.04-.12-.05-3.45-1.37-5.7-3.44-8.94-7.05-3.67-4.15,.64-9.65,.64-9.65-2.15-5.77,1.85-8.8,1.85-8.8-.23-5.75,3.85-6.18,3.85-6.18,1-4.02,5.08-4.1,5.08-4.1,1.39-.53,2.85-.69,4.31-.57,6.57,.59,13.36,6.82,15.99,8.74,3.21,2.35,4.88,4.77,5.81,7.67s-3.33,4.7-3.33,4.7c5.5,3.92,7.67,7.23,8.19,9.6Z"/>
        <path class="cls-4" d="M173.22,295.7c-.07-.09-.14-.2-.21-.28,1.18-.94,2.76-.41,4.15,.87,2.15,1.98,3.81,5.75,2.56,8.48-.04,.12-.11,.23-.16,.34-4.33,4.84-10.6-6.84-6.34-9.4Z"/>
        <path class="cls-2" d="M155.65,296.32c-1.46-.12-2.92,.04-4.31,.57,0,0-25.96-5.32-32.37,4.93h-.02c3.01-10.95,8.14-25.48,14.14-40.62l1.39,.53c-.82,1.89-.64,4.2,.61,5.93,.62,.89,1.25,1.76,1.87,2.62l4.58,6.36c4.83,6.71,9.47,13.2,14.12,19.68Z"/>
        <path class="cls-7" d="M148.85,261.75l4.58,6.36c-4.49,2.01-8.57,4.93-11.9,8.53l-4.58-6.36c3.19-3.78,7.3-6.73,11.9-8.53Z"/>
        <path class="cls-3" d="M151.34,296.89s-4.08,.07-5.08,4.1c0,0-4.08,.43-3.85,6.18,0,0-4.01,3.03-1.85,8.8,0,0-4.31,5.5-.64,9.65,3.24,3.61,5.48,5.68,8.94,7.05,.04,.02,.09,.04,.12,.05l-.12,.32s-.07,0-.18,.02c-2.55,.2-30.13,1.99-32.5-14.39-.45-3.06,.62-9.05,2.76-16.85h.02c6.41-10.26,32.37-4.93,32.37-4.93Z"/>
        <path class="cls-8" d="M146.98,259.14c.62,.87,1.25,1.75,1.87,2.62-4.59,1.8-8.71,4.75-11.9,8.53-.62-.85-1.25-1.73-1.87-2.62-1.25-1.73-1.42-4.04-.61-5.93,.34-.77,.85-1.48,1.51-2.05,1.16-1,1.8-1.46,3.12-2.24,2.62-1.55,6.11-.75,7.87,1.69Z"/>
      </g>
      <g>
        <path class="cls-9" d="M362.89,330.15c-.37,0-.72-.2-.9-.56-.25-.5-.04-1.09,.45-1.34,6.03-2.98,8.71-8.84,8.19-17.94-.39-6.58-5.85-36.52-8.2-49.21l-18.14,32.92c-.14,.37-.5,.64-.92,.64h-.02c-.35,0-.68-.19-.86-.49-.18-.3-.19-.68-.01-.99l19.55-35.49c.2-.37,.61-.58,1.04-.5,.42,.07,.75,.39,.82,.8,1.94,10.42,8.31,44.98,8.74,52.21,.56,9.85-2.56,16.53-9.3,19.85-.14,.07-.29,.1-.44,.1Z"/>
        <path class="cls-9" d="M299.27,263.76c-3.58,0-6.35-1.12-6.86-1.34l-62.06-17.16c-.32-.09-.58-.33-.68-.65-.1-.32-.04-.67,.16-.93l5.2-6.62c.13-.17,.32-.29,.53-.35,.08-.02,2.07-.55,5.4-1.07,6.34-1,16.1-1.77,26.57,.2,2.31,.45,4.5,.99,6.52,1.61,10.53,3.21,19.12,9.07,25.55,17.42,4.35-5.03,25.45-26.99,57.72-21.92,1.67,.27,3.28,.58,4.81,.94,.28,.06,.51,.24,.65,.49l4.54,8.19c.15,.26,.17,.58,.05,.86-.11,.28-.35,.49-.64,.58l-60.96,18.41c-1.85,.85-3.88,1.3-6.03,1.34-.15,0-.31,0-.46,0Zm-66.94-20.04l60.68,16.78c.05,.01,.1,.03,.15,.05,.03,.01,2.89,1.29,6.52,1.19,1.9-.04,3.69-.44,5.3-1.19,.04-.02,.09-.04,.13-.05l59.84-18.07-3.72-6.72c-1.35-.3-2.77-.58-4.24-.81-34.99-5.5-56.44,21.89-56.65,22.17-.19,.25-.5,.37-.8,.39-.32,0-.61-.16-.8-.41-6.25-8.54-14.76-14.5-25.29-17.71-1.96-.6-4.08-1.13-6.31-1.56-10.18-1.91-19.69-1.16-25.88-.19-2.47,.38-4.19,.78-4.87,.95l-4.06,5.18Z"/>
        <path class="cls-9" d="M353.07,332.39c-2.04,0-4.35-.25-6.98-.74-13.44-2.6-30.06-11.09-33.5-12.91-.04-.01-.07-.03-.1-.05-.59-.31-.9-.47-.9-.47-.19-.1-.35-.27-.44-.46-1.19-2.59-.14-6.84,.09-7.66,0-.01,0-.03,.01-.04,.04-.18,.12-.35,.24-.47,.18-.19,.45-.32,.72-.33-.02,0,4.32-.87,7.07-17.82,.06-.37,.06-.77,.07-1.19,0-.84,.02-1.8,.52-2.74,.22-.4,.68-.61,1.12-.5l22.59,5.67c.45,.1,.79,.5,.79,.98,0,.63-.64,1.13-1.25,.97l-21.72-5.46c-.05,.33-.05,.69-.06,1.09,0,.47,0,.96-.09,1.49-2.5,15.38-6.41,18.66-8.21,19.34-.37,1.55-.72,4.02-.2,5.54,.12,.06,.28,.14,.47,.24,.04,.01,.08,.03,.12,.05,3.19,1.68,19.76,10.19,33.04,12.76,3.67,.69,6.76,.87,9.18,.54,2.59-.36,4.88-1.02,6.79-1.97,.49-.25,1.1-.04,1.34,.45,.25,.5,.04,1.09-.45,1.34-2.11,1.04-4.6,1.77-7.41,2.16-.89,.12-1.83,.18-2.85,.18Z"/>
        <path class="cls-9" d="M353.81,389.15H177.91c-.29,0-.56-.12-.75-.34-.19-.21-.28-.5-.25-.78l6.46-54.95c.02-.16,.08-.32,.17-.45l.57-.82c.15-.22,.38-.37,.65-.41,.26-.05,.53,.01,.75,.17l1.07,.74c.96,.67,1.94,1.34,2.97,2.1,1.12,.83,2.05,1.54,2.95,2.26,1.23-.39,2.01-.7,3.01-1.22-1.04-2.31-1.82-4.26-2.53-6.07l-.56-1.45c-1.09-2.82-2.13-5.48-3.72-8.97l-.83-1.16c-1.97-2.74-3.92-5.45-5.83-8.11-.12-.17-.19-.37-.19-.58,0-.05,0-.11,.01-.16l3.38-23.22c.08-.55,.59-.93,1.13-.84,.55,.08,.93,.59,.85,1.13l-3.33,22.84c1.83,2.56,3.7,5.15,5.59,7.79l.89,1.24c.04,.05,.07,.11,.1,.17,1.64,3.59,2.69,6.3,3.81,9.17l.56,1.44c.79,2,1.65,4.17,2.88,6.82,.22,.48,.03,1.04-.43,1.3-1.73,.95-2.7,1.35-4.71,1.97-.32,.1-.66,.03-.92-.18-1.01-.82-2.03-1.6-3.3-2.54-1.01-.74-1.98-1.41-2.92-2.07l-.15-.1-6.27,53.3h173.63l-7.29-55.64c-13.38-2.77-29.58-11.07-32.85-12.79-.34-.16-.58-.51-.58-.91,0-.55,.44-1,.99-1h.02c.16,0,.32,.04,.47,.12,3.19,1.68,19.76,10.19,33.04,12.76,.42,.08,.75,.42,.8,.85l7.53,57.48c.04,.29-.05,.57-.24,.79-.19,.22-.46,.34-.75,.34Z"/>
        <path class="cls-9" d="M299.55,257.47h-.01c-.32,0-.61-.16-.8-.41-6.25-8.54-14.76-14.5-25.29-17.71-.27-.08-.49-.27-.61-.53-.12-.25-.13-.54-.02-.81,1.53-3.78,1.88-7.83,2.17-12.74,.29-4.78,.59-9.68,2.48-14.15,1.85-4.37,5.14-7.63,8.9-8.89-.28-6.97-1.02-13.21-2.19-18.56-.73-3.24-1.62-6.19-2.64-8.77-.12-.31-.08-.66,.1-.93,.19-.27,.5-.44,.83-.44,2.18,0,4.58,.03,7.06,.11,8.96,.22,25.71,1.1,37.17,4.47,15.28,4.52,28.85,47.04,31.41,55.52,.1,.33,.02,.69-.2,.95-.23,.26-.57,.38-.91,.33-34.99-5.5-56.44,21.89-56.66,22.16-.19,.25-.48,.39-.79,.39Zm-24.5-19.71c10.07,3.28,18.31,9.02,24.54,17.1,4.28-4.95,24.77-26.27,56.14-22.15-2.92-9.32-15.96-48.64-29.6-52.67-11.24-3.31-27.79-4.17-36.66-4.39h0c-1.94-.06-3.83-.09-5.55-.1,.85,2.33,1.59,4.91,2.22,7.7,1.24,5.68,2,12.3,2.27,19.7,.02,.47-.3,.89-.75,1-3.43,.88-6.63,3.93-8.34,7.97-1.76,4.15-2.05,8.88-2.32,13.44-.23,3.74-.5,8.28-1.94,12.4Z"/>
        <path class="cls-9" d="M312.23,311.26c-.08,0-.15,0-.23-.03-1.01-.24-24.85-5.82-31.1-8.65-7.05-3.17-24.12-20.5-24.29-20.67-.96-.98-1.39-1.99-1.27-3,.08-.68,.42-1.33,.98-1.89-.81-.78-1.65-1.65-2.59-2.67-.17-.17-.46-.49-.67-.93-.44-1.02-.13-2.24,.71-3.06-.41-.34-.75-.75-.91-1.32-.34-1.16,.31-2.42,1.68-3.2,1.17-.69,2.6-1.02,4.36-1.02,1.61,0,3.22,.32,4.74,.88-.32-.65-.53-1.42-.33-2.27,.27-1.19,1.36-2.14,2.7-2.36,1.08-.2,2.15,.07,3.05,.35,4.3,1.38,8.03,4.24,10.49,8.07,.23,.36,.44,.73,.66,1.09,.51,.86,.99,1.68,1.6,2.37,2.04,2.29,5.39,3.05,8.63,3.78,5.03,1.15,10.23,2.63,14.56,5.64l6.05-4.05c.63-.41,1.16-.78,1.47-1.27,.55-.87,.32-2.1,.07-3.4-.08-.44-.17-.88-.22-1.31-.39-2.97,.55-6.07,2.52-8.3,1.2-1.38,2.79-2.42,4.58-3.03,1.08-.35,2.21-.53,3.35-.53,.5,0,1.14,.05,1.69,.42,1.68,1.1,.83,3.46,.55,4.24-1.16,3.11-1.29,6.57-.37,9.75,.1,.35,.21,.69,.32,1.03,.48,1.5,.98,3.06,.63,4.74,0,0,0,0,0,.01-.2,.9-.6,1.67-1.06,2.51-.98,1.78-1.96,3.55-2.94,5.31-.26,.49-.27,1.1-.28,1.8,0,.47,0,.96-.09,1.49-2.99,18.43-8.02,19.48-9,19.51h-.02Zm-53.34-44.45c-1.39,0-2.49,.25-3.35,.75-.47,.27-.82,.7-.76,.92,.06,.22,.51,.51,.67,.62l.22,.15c.18,.12,.37,.25,.55,.39,.31,.24,.45,.63,.37,1-.08,.38-.37,.67-.75,.76-.17,.04-.33,.11-.51,.22-.35,.23-.58,.69-.46,.95,.04,.09,.14,.21,.29,.36,1.27,1.37,2.33,2.44,3.36,3.39,.23,.21,.35,.52,.32,.83-.03,.31-.2,.59-.46,.75-.36,.23-.99,.69-1.05,1.21-.06,.47,.36,1,.71,1.37,4.7,4.78,18.11,17.74,23.68,20.25,5.79,2.61,28.22,7.93,30.54,8.48,.53-.19,4.45-2.06,7.01-17.8,.06-.37,.06-.77,.07-1.19,0-.84,.02-1.8,.52-2.74,.98-1.77,1.96-3.53,2.94-5.31,.4-.73,.72-1.33,.86-1.97,.24-1.16-.16-2.4-.58-3.72-.12-.36-.23-.73-.33-1.09-1.04-3.58-.89-7.49,.42-10.99,.56-1.56,.29-1.84,.23-1.88-.04-.03-.17-.09-.59-.09-.93,0-1.84,.14-2.72,.43-1.45,.49-2.73,1.34-3.71,2.45-1.6,1.81-2.36,4.32-2.04,6.72,.05,.4,.13,.8,.2,1.2,.29,1.55,.62,3.31-.35,4.84-.53,.83-1.31,1.38-2.06,1.87l-6.61,4.43c-.35,.24-.81,.22-1.15-.03-4.14-3.07-9.34-4.56-14.35-5.71-3.41-.77-7.25-1.63-9.71-4.41-.74-.83-1.29-1.77-1.83-2.68-.2-.35-.41-.69-.62-1.03-2.17-3.38-5.61-6.02-9.41-7.24-.7-.22-1.43-.41-2.1-.29-.54,.09-1,.45-1.09,.84-.13,.54,.32,1.23,.82,1.9l1.87,2.52c.3,.41,.25,.98-.12,1.33-.37,.35-.95,.36-1.33,.03-2.08-1.79-4.85-2.82-7.6-2.84Zm65.75,13.62h0Z"/>
        <path class="cls-9" d="M295.77,320.82c-3.17,0-5.21-1.16-5.71-1.47l-45.21-17.82c-.28-.11-.49-.34-.58-.63l-18.31-57.32c-.11-.35-.02-.73,.23-1,.25-.26,.63-.37,.99-.27l3.7,1.02,62.13,17.18c.05,.01,.1,.03,.15,.05,.03,.01,2.89,1.29,6.52,1.19,1.9-.04,3.69-.44,5.3-1.19,.04-.02,.09-.04,.13-.05l66.79-20.18c.39-.12,.81,.01,1.07,.33,.26,.32,.29,.75,.1,1.11l-28.85,52.37c-.22,.4-.68,.6-1.12,.49l-22.62-5.68c-.3-.08-.55-.29-.67-.57-.12-.29-.11-.61,.04-.88,.98-1.76,1.96-3.52,2.94-5.3,.4-.73,.72-1.34,.86-1.98,.24-1.15-.16-2.39-.58-3.71-.12-.36-.23-.73-.33-1.09-1.04-3.58-.89-7.49,.42-10.99,.56-1.56,.29-1.84,.23-1.88-.04-.03-.17-.09-.59-.09-.93,0-1.84,.14-2.72,.43-1.45,.49-2.73,1.34-3.71,2.45-1.6,1.81-2.36,4.32-2.04,6.72,.05,.4,.13,.8,.2,1.2,.29,1.55,.62,3.31-.35,4.84-.53,.83-1.31,1.38-2.06,1.87l-6.61,4.43c-.35,.24-.81,.22-1.15-.03-4.14-3.07-9.34-4.56-14.35-5.71-3.41-.77-7.25-1.63-9.71-4.41-.74-.83-1.29-1.77-1.83-2.68-.2-.35-.41-.69-.62-1.03-2.17-3.38-5.61-6.02-9.41-7.24-.7-.22-1.43-.41-2.1-.29-.54,.09-1,.45-1.09,.84-.13,.54,.32,1.23,.82,1.9l1.87,2.52c.3,.41,.25,.98-.12,1.33-.37,.35-.95,.36-1.33,.03-2.08-1.79-4.85-2.82-7.6-2.84-1.39,0-2.49,.25-3.35,.75-.47,.27-.82,.7-.76,.92,.06,.22,.51,.51,.67,.62l.22,.15c.18,.12,.37,.25,.55,.39,.31,.24,.45,.63,.37,1-.08,.38-.37,.67-.75,.76-.17,.04-.33,.11-.51,.22-.35,.23-.58,.69-.46,.95,.04,.09,.14,.21,.29,.36,1.27,1.37,2.33,2.44,3.36,3.39,.23,.21,.35,.52,.32,.83-.03,.31-.2,.59-.46,.75-.36,.23-.99,.69-1.05,1.21-.06,.47,.36,1,.71,1.37,4.7,4.78,18.11,17.74,23.68,20.25,6.07,2.74,30.48,8.46,30.73,8.52,.35,.08,.63,.34,.73,.69,.06,.2,.05,.42-.01,.61-.02,.1-.06,.18-.09,.25l-1.45,3c-.05,.11-.13,.21-.22,.3-.09,.08-2.34,2.12-9.26,5.23-.44,.19-.88,.36-1.31,.51-1.9,.69-3.61,.94-5.07,.94Zm-49.74-20.98l44.86,17.69c.07,.03,.14,.07,.21,.11,.14,.09,3.57,2.36,9.07,.36,.4-.14,.78-.29,1.17-.46,5.65-2.54,8.03-4.32,8.58-4.77l.88-1.82c-5.08-1.21-24.37-5.87-29.9-8.36-7.05-3.17-24.12-20.5-24.29-20.67-.96-.98-1.39-1.99-1.27-3,.08-.68,.42-1.33,.98-1.89-.81-.78-1.65-1.65-2.59-2.67-.17-.17-.46-.49-.67-.93-.44-1.02-.13-2.24,.71-3.06-.41-.34-.75-.75-.91-1.32-.34-1.16,.31-2.42,1.68-3.2,1.17-.69,2.6-1.02,4.36-1.02,1.61,0,3.22,.32,4.74,.88-.32-.65-.53-1.42-.33-2.27,.27-1.19,1.36-2.14,2.7-2.36,1.08-.2,2.15,.07,3.05,.35,4.3,1.38,8.03,4.24,10.49,8.07,.23,.36,.44,.73,.66,1.09,.51,.86,.99,1.68,1.6,2.37,2.04,2.29,5.39,3.05,8.63,3.78,5.03,1.15,10.23,2.63,14.56,5.64l6.05-4.05c.63-.41,1.16-.78,1.47-1.27,.55-.87,.32-2.1,.07-3.4-.08-.44-.17-.88-.22-1.31-.39-2.97,.55-6.07,2.52-8.3,1.2-1.38,2.79-2.42,4.58-3.03,1.08-.35,2.21-.53,3.35-.53,.5,0,1.14,.05,1.69,.42,1.68,1.1,.83,3.46,.55,4.24-1.16,3.11-1.29,6.57-.37,9.75,.1,.35,.21,.69,.32,1.03,.48,1.5,.98,3.06,.63,4.74-.2,.91-.6,1.68-1.06,2.52-.77,1.4-1.54,2.79-2.31,4.17l20.6,5.18,27.29-49.55-64.38,19.45c-1.85,.85-3.88,1.3-6.03,1.34-3.8,.09-6.79-1.11-7.32-1.34l-63.98-17.69,17.6,55.11Z"/>
        <path class="cls-9" d="M295.77,320.82c-3.17,0-5.21-1.16-5.71-1.47l-45.21-17.82c-.28-.11-.49-.34-.58-.63l-18.31-57.32c-.11-.35-.02-.73,.23-1,.25-.26,.63-.37,.99-.27l3.06,.84,1.72-2.2c-.93-1.36-1.7-2.98-2.23-4.72-.82-2.71-1.11-5.52-1.4-8.24-.1-.94-.19-1.88-.31-2.81-.4-3.05-1.15-6.93-3.39-9.8-1.87-2.42-5.42-4.31-8.58-3.26-.55,.19-1.44,.19-2.5-.85-3.21-3.17-7.41-16.36-4.5-25.35,1.65-5.12,4.05-9.96,7.15-14.43-1.13,.19-2.34,.41-3.51,.62-10.45,1.93-29.41,6.14-39.01,12.6-8,5.38-25.73,42.03-38.78,74.66,.14-.15,.29-.29,.44-.42,1.2-1.04,1.9-1.54,3.26-2.35,3.05-1.81,7.09-.94,9.19,1.96l6.45,8.98c6.54,9.1,12.77,17.78,19.07,26.58,1.35-.49,2.98,0,4.53,1.44,.41,.37,.43,1.01,.06,1.41-.37,.4-1.01,.43-1.41,.06-.42-.39-1.88-1.61-2.84-.83-.21,.17-.49,.25-.76,.21-.27-.04-.52-.19-.68-.41-6.48-9.04-12.87-17.95-19.59-27.3l-6.45-8.98c-1.47-2.04-4.41-2.67-6.55-1.41-1.27,.75-1.85,1.17-2.97,2.14-.53,.46-.97,1.05-1.25,1.69-.22,.49-.78,.72-1.27,.53l-1.39-.53c-.39-.15-.64-.52-.64-.93,0-.13,.02-.27,.07-.39,13.56-34.27,31.8-71.99,40.4-77.78,9.4-6.32,26.81-10.51,39.77-12.9,2.08-.37,4.25-.76,5.96-1.02,.4-.06,.8,.13,1.01,.48,.21,.35,.18,.79-.06,1.12-3.67,4.82-6.46,10.14-8.28,15.82-2.28,7.05,.27,17.64,3.1,22.14,.91,1.44,1.42,1.55,1.42,1.55,3.58-1.2,8.02,.42,10.74,3.94,2.54,3.25,3.36,7.47,3.8,10.77,.12,.95,.22,1.9,.32,2.86,.27,2.63,.56,5.34,1.32,7.87,.55,1.8,1.37,3.43,2.36,4.72,.28,.36,.28,.87,0,1.23l-2.6,3.31c-.25,.32-.66,.45-1.05,.35l-1.93-.53,17.6,55.11,44.86,17.69c.07,.03,.14,.07,.21,.11,.14,.09,3.57,2.36,9.07,.36,.4-.14,.78-.29,1.17-.46,5.65-2.54,8.03-4.32,8.58-4.77l1.37-2.84c.22-.46,.76-.68,1.25-.5,.48,.18,.75,.7,.62,1.2-.4,1.48-.89,4.32-.32,6,.14,.07,.33,.17,.56,.29,.49,.25,.68,.86,.43,1.35-.25,.49-.86,.69-1.35,.43-.59-.31-.9-.47-.9-.47-.19-.1-.35-.27-.44-.46-.4-.87-.55-1.93-.56-2.99-1.17,.85-3.72,2.47-8.43,4.58-.44,.19-.88,.36-1.31,.51-1.9,.69-3.61,.94-5.07,.94Z"/>
        <path class="cls-9" d="M249.82,175.53c-1.27,0-2.55-.11-3.83-.33-2.24-.39-4.42-1.13-6.47-2.2-1.98-1.02-3.88-2.41-5.5-4.03-1.68-1.7-3.17-3.36-4.57-5.08-.07-.08-1.56-1.94-2.28-2.93-.43-.57-.87-1.19-1.28-1.81-5.25-7.74-8.16-15.68-8.66-23.6-4.22-1.08-7.41-3.4-9.27-6.76-2.01-3.63-2.31-8.26-.81-12.37,1.19-3.29,3.32-5.58,5.85-6.29,1.46-.41,3.73-.47,6.34,1.53,7.87,1.41,13.99-.03,19.21-4.52,.21-.18,.49-.26,.76-.24,8.64,.9,30.57,3.59,47.46,9.02,.25,.08,.45,.25,.57,.47,1.74,3.19,3.61,5.85,5.57,7.89l.13-.04c.48-.12,.99-.23,1.51-.27,.65-.06,1.28-.04,1.86,.07,.13,.01,.33,.05,.52,.1,.4,.1,.71,.22,1.01,.35,.07,.03,.21,.09,.34,.16l.09,.05c.29,.17,.56,.32,.81,.53,.12,.08,.29,.21,.43,.35,.11,.1,.16,.14,.21,.19,.11,.11,.22,.24,.33,.37,.21,.21,.41,.51,.55,.72,.18,.23,.3,.46,.41,.67,.22,.42,.39,.79,.54,1.17,.06,.14,.13,.35,.19,.56,.07,.2,.13,.4,.17,.62,.17,.62,.29,1.39,.35,2.24,0,.02,0,.08,0,.11,.04,.83,.02,1.61-.06,2.33-.02,.24-.06,.49-.1,.72-.08,.52-.18,1.02-.3,1.51-.32,1.3-.79,2.54-1.41,3.67l-.12,.22c-.06,.1-.11,.2-.16,.3-.36,.59-.7,1.08-1.06,1.53l-.09,.11c-.14,.17-.28,.35-.45,.52-.96,1.12-2.16,2.08-3.5,2.82-.45,.24-.89,.45-1.36,.64-.23,.1-.47,.2-.74,.28l-.21,.07c-.18,.06-.37,.12-.55,.16-.49,.15-1.02,.26-1.57,.34-.47,.09-1,.15-1.56,.17-.9,.05-1.77,.04-2.71-.05-2.49,5.81-6.47,11.14-11.83,15.86-1.29,1.14-2.69,2.27-4.29,3.44-3.26,2.39-6.94,4.57-10.93,6.49-3.02,1.43-6.27,2.16-9.56,2.16Zm-35.14-63.62c-.38,0-.76,.05-1.13,.16-1.87,.53-3.56,2.41-4.51,5.05-1.29,3.53-1.03,7.64,.68,10.72,1.68,3.03,4.68,5.09,8.69,5.95,.44,.1,.77,.48,.79,.93,.34,7.8,3.15,15.65,8.36,23.33,.4,.59,.82,1.18,1.24,1.74,.7,.96,2.21,2.84,2.22,2.86,1.36,1.67,2.81,3.28,4.44,4.93,1.47,1.47,3.2,2.73,5,3.66,1.88,.98,3.86,1.66,5.89,2.01,4.16,.72,8.38,.14,12.19-1.66,3.88-1.86,7.45-3.98,10.61-6.3,1.54-1.13,2.9-2.22,4.15-3.33,5.35-4.71,9.25-10.03,11.6-15.81,.17-.42,.61-.68,1.06-.62,1.09,.14,2.1,.18,3.1,.12,.51-.02,.93-.06,1.35-.15,.5-.07,.93-.16,1.38-.3,.18-.04,.31-.09,.43-.13l.25-.08c.2-.06,.38-.14,.57-.22,.41-.16,.78-.34,1.15-.54,1.14-.62,2.15-1.44,3-2.43,.16-.16,.25-.28,.34-.4l.1-.13c.3-.38,.6-.8,.87-1.25,.02-.05,.09-.18,.16-.31l.11-.2c.54-.98,.95-2.05,1.23-3.2,.11-.44,.2-.86,.27-1.34,.03-.2,.07-.41,.08-.59,0-.01,0-.02,0-.03,.07-.62,.09-1.28,.05-2.06-.05-.74-.15-1.39-.3-1.95-.04-.2-.08-.32-.12-.44-.06-.18-.09-.31-.14-.43-.14-.35-.27-.65-.45-.99-.07-.13-.15-.28-.25-.41-.03-.03-.05-.07-.07-.1-.13-.22-.24-.37-.35-.48-.13-.15-.2-.23-.27-.3-.11-.1-.16-.14-.21-.2-.07-.07-.15-.12-.23-.18-.21-.17-.37-.26-.54-.36l-.06-.03c-.07-.04-.13-.07-.2-.1-.26-.12-.46-.19-.71-.25-.08-.02-.21-.05-.33-.06-.47-.08-.92-.1-1.4-.05-.4,.03-.81,.12-1.16,.21l-.65,.2c-.35,.11-.74,.01-1-.25-2.21-2.19-4.22-4.95-6.14-8.43-16.39-5.21-37.47-7.84-46.25-8.77-5.7,4.74-12.31,6.22-20.79,4.65-.16-.03-.31-.1-.44-.2-1.23-.98-2.44-1.48-3.62-1.48Z"/>
        <path class="cls-9" d="M301.24,136.13c-.05,0-.11,0-.16-.01-.49-.08-.84-.51-.84-.99,0-.05,0-.11,.01-.16,.03-.19,.06-.39,.08-.58,.05-.55,.52-.97,1.08-.91,.52,.04,.92,.48,.92,1,0,.03,0,.06,0,.08-.02,.24-.06,.5-.1,.74-.08,.49-.5,.84-.99,.84Z"/>
        <path class="cls-9" d="M300.96,137.55c-.09,0-.17-.01-.25-.03-.53-.14-.85-.68-.71-1.22,.11-.43,.19-.85,.26-1.32,.08-.55,.59-.92,1.14-.84,.5,.07,.85,.5,.85,.99,0,.05,0,.1-.01,.15-.09,.58-.19,1.08-.31,1.54-.12,.45-.52,.74-.96,.74Z"/>
        <path class="cls-9" d="M301.04,131.09c-.47,0-.89-.33-.98-.81-.03-.13-.07-.25-.11-.37-.04-.11-.05-.21-.05-.32,0-.42,.26-.81,.68-.95,.52-.17,1.09,.11,1.27,.63,.07,.2,.13,.4,.18,.62,.01,.06,.02,.13,.02,.19,0,.47-.33,.89-.81,.98-.07,.01-.13,.02-.19,.02Z"/>
        <path class="cls-9" d="M300.72,130.07c-.4,0-.78-.25-.93-.64-.12-.3-.25-.6-.43-.94-.25-.48-.08-1.08,.4-1.34,.48-.26,1.08-.1,1.35,.37,.24,.42,.43,.82,.56,1.24,.17,.52-.1,1.08-.61,1.26-.11,.04-.22,.06-.34,.06Z"/>
        <path class="cls-9" d="M300.24,129.02c-.35,0-.7-.19-.88-.52-.08-.14-.15-.29-.26-.42-.15-.18-.22-.4-.22-.62,0-.29,.13-.58,.37-.78,.43-.35,1.06-.27,1.41,.16,.2,.25,.33,.5,.45,.72,.08,.15,.12,.31,.12,.48,0,.35-.19,.7-.52,.88-.15,.08-.32,.12-.48,.12Z"/>
        <path class="cls-9" d="M299.33,141.54c-.16,0-.33-.04-.48-.12-.47-.26-.65-.85-.41-1.33,.06-.12,.13-.25,.2-.37l.11-.2c.26-.48,.86-.66,1.34-.41,.48,.25,.68,.85,.43,1.33-.1,.2-.22,.42-.34,.62-.19,.31-.52,.48-.86,.48Z"/>
        <path class="cls-9" d="M299.39,127.79c-.29,0-.57-.12-.77-.36-.07-.08-.14-.17-.2-.23-.2-.2-.29-.45-.29-.71s.1-.51,.29-.71c.39-.39,1.02-.39,1.41,0,.11,.11,.22,.24,.33,.37,.15,.19,.23,.41,.23,.64,0,.29-.12,.57-.36,.77-.19,.16-.41,.23-.64,.23Z"/>
        <path class="cls-9" d="M298.91,127.3c-.23,0-.46-.08-.65-.24-.1-.09-.19-.16-.29-.23-.27-.19-.42-.5-.42-.81,0-.2,.06-.4,.19-.58,.32-.45,.95-.55,1.39-.23,.17,.12,.33,.25,.48,.39,.38,.38,.39,.99,.03,1.39-.2,.21-.46,.32-.73,.32Z"/>
        <path class="cls-9" d="M297.93,143.45c-.25,0-.49-.09-.69-.27-.39-.37-.42-.99-.06-1.39h0c.08-.09,.15-.18,.23-.26,.03-.04,.06-.08,.09-.12l.1-.13c.34-.42,.95-.5,1.39-.17,.43,.33,.52,.94,.2,1.38-.08,.1-.16,.2-.24,.3-.1,.12-.21,.25-.33,.37-.2,.2-.45,.29-.71,.29Z"/>
        <path class="cls-9" d="M297.93,126.6c-.15,0-.3-.03-.44-.1l-.12-.06c-.07-.03-.13-.07-.2-.09-.4-.15-.65-.53-.65-.93,0-.12,.02-.24,.07-.36,.2-.52,.78-.77,1.29-.58,0,0,0,0,0,0,.19,.07,.38,.17,.54,.26,.47,.27,.64,.86,.39,1.34-.18,.34-.53,.53-.88,.53Z"/>
        <path class="cls-9" d="M296.72,126.12c-.07,0-.15,0-.22-.02-.13-.03-.25-.06-.38-.07-.51-.06-.89-.49-.89-.99,0-.04,0-.08,0-.11,.06-.55,.55-.95,1.11-.88,.2,.02,.39,.06,.58,.11,.47,.1,.78,.52,.78,.98,0,.07,0,.15-.02,.22-.1,.47-.52,.78-.98,.78Z"/>
        <path class="cls-9" d="M293.4,146.69c-.4,0-.78-.25-.93-.65-.19-.51,.06-1.08,.56-1.28,.39-.16,.76-.33,1.14-.54,.48-.26,1.08-.09,1.35,.38,.27,.47,.11,1.08-.36,1.35-.46,.27-.92,.49-1.42,.67-.11,.04-.23,.06-.34,.06Z"/>
        <path class="cls-9" d="M293.33,126.21c-.45,0-.85-.3-.97-.75-.14-.53,.17-1.07,.7-1.21,.43-.12,.89-.21,1.36-.25,.04,0,.08,0,.13-.01,.56-.05,1.03,.36,1.08,.91,.05,.55-.36,1.03-.91,1.08-.03,0-.06,0-.09,0-.36,.04-.74,.12-1.06,.2-.08,.02-.16,.03-.23,.03Z"/>
        <path class="cls-9" d="M292.75,146.94c-.43,0-.82-.28-.96-.71-.03-.1-.04-.2-.04-.29,0-.43,.28-.82,.71-.96,.2-.06,.38-.14,.57-.22,.49-.21,1.07,.01,1.29,.5,.23,.49,.02,1.07-.46,1.31-.29,.15-.57,.24-.81,.31-.1,.03-.2,.04-.29,.04Z"/>
        <path class="cls-9" d="M292.05,147.15c-.46,0-.87-.31-.97-.77-.02-.08-.03-.15-.03-.23,0-.45,.31-.87,.77-.97,.12-.03,.25-.07,.37-.11l.25-.08c.51-.16,1.05,.11,1.23,.62,.18,.5-.06,1.06-.56,1.26-.24,.1-.53,.19-.85,.26-.08,.02-.15,.03-.23,.03Z"/>
        <path class="cls-9" d="M290.57,147.47c-.49,0-.92-.36-.99-.86,0-.05,0-.09,0-.14,0-.49,.36-.92,.86-.99,.45-.06,.88-.16,1.33-.29,.53-.15,1.08,.14,1.24,.67,.16,.53-.14,1.08-.67,1.24-.51,.16-1.06,.28-1.63,.36-.05,0-.09,0-.14,0Z"/>
        <path class="cls-9" d="M288.17,147.67c-.55,0-1-.45-1-1s.45-1,1-1c0,0,0,0,.01,0,0,0,0,0,0,0,0,0,0,0,0,0h0c.28,0,.55-.02,.83-.03,0,0,.02,0,.02,0h0c.53-.01,1.01,.4,1.04,.94,.03,.55-.37,1.02-.93,1.06-.31,.02-.63,.04-.95,.04h0s0,0,0,0c0,0,0,0,0,0,0,0,0,0,0,0,0,0,0,0,0,0h-.02Z"/>
        <path class="cls-9" d="M273.75,239.39c-.1,0-.2-.01-.29-.04-1.95-.6-4.08-1.13-6.31-1.56-.45-.09-.79-.47-.81-.93-.37-7.87-1.81-15.66-4.28-23.15-.77-2.34-1.66-4.69-2.64-6.97-.17-.39-.07-.83,.23-1.12,7.95-7.5,13.56-17.59,15.84-28.44-.38-.55-.68-1.1-.92-1.68-.66-1.59-1.13-4.1-1.41-7.48-.13-1.62-.18-3.29-.22-4.72,0-.33,.15-.64,.41-.83,.27-.19,.61-.24,.92-.13,.21,.07,5.14,1.9,9.13,11.84,0,0,0,0,0,0,1.06,2.68,1.98,5.73,2.74,9.07,1.24,5.68,2,12.3,2.27,19.7,.02,.47-.3,.89-.75,1-3.43,.88-6.63,3.93-8.34,7.97-1.76,4.15-2.05,8.88-2.32,13.44-.24,4.05-.54,9.03-2.32,13.41-.16,.39-.53,.62-.93,.62Zm-5.45-3.41c1.69,.35,3.31,.74,4.85,1.19,1.26-3.54,1.58-7.35,1.85-11.89,.29-4.78,.59-9.68,2.48-14.15,1.85-4.37,5.14-7.63,8.9-8.89-.28-6.97-1.02-13.21-2.19-18.56-.73-3.24-1.62-6.19-2.64-8.76h0c-2.34-5.84-4.98-8.6-6.55-9.83,.03,.91,.08,1.85,.16,2.77,.25,3.12,.69,5.5,1.26,6.87,.23,.55,.54,1.08,.94,1.61,.17,.23,.24,.52,.18,.8-2.25,11.18-7.93,21.61-16.01,29.45,.9,2.13,1.71,4.31,2.43,6.5,2.44,7.41,3.9,15.11,4.34,22.9Z"/>
        <path class="cls-9" d="M286.46,117.88c-.1,0-.21-.02-.31-.05-16.71-5.37-38.48-8.04-47.06-8.93-.4-.04-.73-.32-.85-.7-.12-.38,0-.8,.31-1.06,3.06-2.61,5.61-6.03,8.07-9.34,1.18-1.59,2.41-3.23,3.68-4.78,.22-.26,.55-.4,.89-.36,9.96,1.16,19.55,2.83,28.52,4.97,.36,.08,.64,.36,.73,.71,1.93,7.14,4.25,13.22,6.89,18.05,.2,.36,.15,.8-.11,1.12-.19,.23-.48,.36-.77,.36Zm-44.96-10.73c9.28,1.04,27.76,3.51,42.97,8.07-2.19-4.44-4.13-9.73-5.8-15.77-8.56-2.02-17.69-3.61-27.17-4.73-1.12,1.39-2.22,2.86-3.28,4.28-2.09,2.8-4.23,5.68-6.73,8.15Z"/>
        <path class="cls-9" d="M279.48,99.61c-.08,0-.16,0-.23-.03-8.89-2.12-18.41-3.78-28.29-4.93-.36-.04-.68-.28-.81-.62-.14-.34-.08-.73,.16-1.01,.35-.42,.7-.84,1.06-1.25,10.42-11.85,23.63-13.27,24.18-13.32,.55-.06,1.03,.34,1.09,.88,0,.09,1.02,8.86,3.8,19.01,.09,.34,0,.71-.25,.96-.19,.2-.45,.3-.72,.3Zm-26.42-6.72c8.69,1.07,17.1,2.54,25.03,4.37-1.97-7.6-2.96-14.2-3.29-16.66-3.15,.56-13.44,3.02-21.73,12.3Z"/>
        <path class="cls-9" d="M253.57,217.55c-.19,0-.38,0-.57,0-3.51-.11-7-1.4-9.81-3.62-.29-.23-.43-.59-.37-.95,.31-1.84,.55-3.22,.67-3.9-16.82-19.22-14.29-45.65-14.26-45.92,.06-.55,.54-.95,1.1-.89,.55,.06,.95,.55,.89,1.1-.03,.26-2.49,26.17,14.09,44.75,.2,.23,.29,.54,.24,.84,0,0-.26,1.44-.65,3.75,2.39,1.74,5.27,2.74,8.17,2.83,3.09,.11,6.18-.79,8.76-2.54-.71-2.11-1.52-4.22-2.41-6.27-.17-.39-.07-.83,.23-1.12,7.95-7.5,13.56-17.59,15.84-28.44-.38-.55-.68-1.1-.92-1.68-.66-1.59-1.13-4.1-1.41-7.48-.04-.55,.37-1.03,.92-1.08,.54-.05,1.03,.37,1.08,.91,.25,3.12,.69,5.5,1.26,6.87,.23,.55,.54,1.08,.94,1.61,.17,.23,.24,.52,.18,.8-2.25,11.18-7.93,21.61-16.01,29.45,.9,2.13,1.71,4.31,2.43,6.5,.13,.41,0,.85-.35,1.11-2.9,2.18-6.45,3.36-10.04,3.36Z"/>
        <path class="cls-9" d="M249.82,175.53c-1.27,0-2.55-.11-3.83-.33-2.24-.39-4.42-1.13-6.47-2.2-1.98-1.02-3.88-2.41-5.5-4.03-1.68-1.7-3.17-3.36-4.57-5.08-.35-.43-.28-1.06,.14-1.41,.43-.35,1.06-.28,1.41,.14,1.36,1.67,2.81,3.29,4.44,4.93,1.47,1.47,3.2,2.73,5,3.66,1.88,.98,3.86,1.66,5.89,2.01,4.16,.72,8.38,.14,12.19-1.66,3.88-1.86,7.45-3.98,10.61-6.3,1.54-1.13,2.9-2.22,4.15-3.33,.29-.26,.72-.33,1.07-.16,.36,.16,.59,.52,.59,.91v.57c.03,1.38,.08,3.02,.21,4.59,.04,.55-.37,1.03-.92,1.08-.56,.05-1.03-.37-1.08-.92-.09-1.07-.14-2.16-.17-3.19-.83,.68-1.72,1.37-2.67,2.07-3.26,2.39-6.94,4.57-10.93,6.49-3.02,1.43-6.27,2.16-9.56,2.16Z"/>
        <path class="cls-9" d="M267.33,237.81c-.06,0-.12,0-.18-.02-10.19-1.92-19.7-1.16-25.89-.19-.3,.05-.6-.04-.82-.24-.22-.2-.35-.49-.33-.79,.29-7.8,1.83-18.13,2.72-23.59,.06-.35,.29-.64,.62-.77,.33-.13,.7-.07,.98,.15,2.48,1.96,5.55,3.09,8.64,3.19,3.33,.12,6.65-.93,9.34-2.95,.26-.19,.59-.25,.9-.15,.31,.1,.55,.34,.65,.64,2.52,7.66,4,15.63,4.38,23.68,.01,.31-.11,.6-.34,.8-.18,.16-.42,.25-.66,.25Zm-13.37-3.21c3.83,0,8,.27,12.3,1-.43-7-1.71-13.93-3.8-20.62-2.83,1.78-6.12,2.68-9.46,2.57-2.97-.1-5.92-1.03-8.46-2.65-.84,5.35-2.04,13.75-2.39,20.56,3.28-.47,7.32-.84,11.81-.84Z"/>
        <path class="cls-9" d="M233.22,241.97c-.33,.03-.6-.14-.79-.39-1.14-1.48-2.07-3.33-2.69-5.36-.82-2.71-1.11-5.52-1.4-8.24-.1-.94-.19-1.88-.31-2.81-.4-3.05-1.15-6.93-3.39-9.8-1.87-2.42-5.42-4.31-8.58-3.26-.55,.19-1.44,.19-2.5-.85-3.21-3.17-7.41-16.36-4.5-25.35,1.9-5.89,4.79-11.41,8.6-16.41h0c2.79-3.68,6.03-6.99,9.63-9.83l.09-.07c.21-.17,.49-.25,.76-.21,.27,.04,.51,.18,.67,.4,.62,.85,1.29,1.72,2.12,2.73,.02,.02,.03,.04,.05,.06,.18,.21,.29,.51,.26,.78-.03,.26-2.49,26.17,14.09,44.75,.2,.23,.29,.54,.24,.84,0,0-.3,1.69-.75,4.35-.88,5.42-2.41,15.66-2.69,23.34-.02,.48-.37,.88-.85,.95-2.47,.38-4.19,.78-4.87,.95l-2.39,3.04c-.19,.24-.48,.38-.79,.38Zm-15.28-32.16c2.99,0,6.15,1.59,8.27,4.33,2.54,3.25,3.36,7.47,3.8,10.77,.12,.95,.22,1.9,.32,2.86,.27,2.63,.56,5.34,1.32,7.87,.41,1.33,.96,2.57,1.62,3.64l1.76-2.24c.13-.17,.32-.29,.53-.35,.08-.02,1.75-.47,4.58-.94,.36-7.69,1.82-17.5,2.68-22.77,.31-1.84,.55-3.22,.67-3.9-15.65-17.88-14.55-42.01-14.3-45.49-.51-.63-.97-1.22-1.4-1.78-3.19,2.61-6.06,5.6-8.56,8.9,0,0,0,0,0,0-3.67,4.82-6.46,10.14-8.28,15.82-2.28,7.05,.27,17.64,3.1,22.14,.91,1.44,1.42,1.55,1.42,1.55,.79-.26,1.62-.39,2.47-.39Zm.5-39.72h0Z"/>
        <path class="cls-9" d="M289.5,175.64s-.02,0-.03,0c-2.46-.08-4.86-.12-6.91-.11h0c-.41,0-.87-.25-1.02-.63-3.6-8.99-7.9-10.69-7.94-10.7-.39-.15-.66-.52-.66-.94v-.57c0-.29,.12-.56,.34-.75,5.35-4.7,9.25-10.02,11.59-15.81,.17-.42,.61-.68,1.06-.62,1.1,.14,2.17,.17,3.12,.12,.49-.02,.91-.06,1.33-.14,.52-.07,.97-.17,1.37-.29,.25-.06,.44-.11,.6-.18,.27-.09,.43-.14,.59-.22,.04-.02,.07-.03,.11-.05,.38-.14,.73-.3,1.08-.51,1.17-.64,2.18-1.46,3.03-2.45,.15-.17,.29-.32,.41-.49,.33-.42,.63-.84,.9-1.29,.09-.14,.18-.32,.26-.47,.55-1.01,.96-2.08,1.24-3.23,.11-.4,.19-.83,.27-1.34,.03-.2,.07-.41,.08-.59,.08-.65,.09-1.31,.05-2.09-.05-.74-.15-1.39-.3-1.95-.04-.2-.08-.32-.12-.44-.06-.18-.09-.31-.14-.43-.13-.38-.26-.65-.43-.96-.09-.17-.17-.32-.27-.45-.03-.03-.05-.07-.07-.1-.13-.22-.24-.37-.35-.48-.13-.15-.2-.23-.27-.3-.11-.1-.16-.14-.21-.2-.04-.03-.13-.11-.23-.18-.21-.17-.37-.26-.54-.36-.08-.05-.17-.09-.27-.13-.26-.12-.46-.19-.71-.25-.08-.02-.21-.05-.33-.06-.47-.08-.92-.1-1.4-.05-.4,.03-.78,.1-1.12,.2l-.69,.21c-.35,.11-.74,.01-1-.25-2.29-2.27-4.36-5.14-6.34-8.78-2.71-4.97-5.09-11.19-7.07-18.49-2.26-8.27-3.37-15.64-3.73-18.28-3.18,.56-13.61,3.06-21.93,12.52-.36,.39-.69,.79-1.01,1.19-1.24,1.51-2.45,3.13-3.62,4.7-2.53,3.4-5.15,6.91-8.38,9.67-5.77,4.96-12.48,6.53-21.11,4.92-.16-.03-.31-.1-.44-.2-1.63-1.3-3.23-1.75-4.75-1.32-1.87,.53-3.56,2.41-4.51,5.05-1.29,3.53-1.03,7.64,.68,10.72,1.68,3.03,4.68,5.09,8.69,5.95,.44,.1,.77,.48,.79,.93,.34,7.8,3.15,15.65,8.36,23.33,.4,.59,.82,1.18,1.24,1.74,.32,.43,.25,1.04-.18,1.38l-.09,.07c-3.47,2.74-6.6,5.93-9.28,9.47-.16,.21-.39,.35-.65,.38-1.69,.26-3.84,.64-5.9,1.01-.24,.04-.47,0-.67-.11-3.63,.27-7.34-1.19-9.85-3.89-6.85-2.85-10.07-10.64-10.22-17.15-.15-7.07,2.52-13.95,4.87-20.03l2.63-6.76c1.21-3.11,2.43-6.22,3.63-9.34,2.69-6.88,5.36-13.75,8.03-20.64l.05-.12c2.37-6.06,4.81-12.32,8.6-17.76,6.66-9.62,17.55-16.36,29.13-18.03,11.42-1.65,23.6,1.62,32.67,8.75,.02,0,.04,0,.07,0,6.26,.35,12.38,3.77,15.97,8.92,4.02,5.79,4.81,13.1,5.5,19.55,1.26,12.06,2.53,24.11,3.78,36.17,.16,1.38,.3,2.77,.44,4.17,.68,6.64,1.39,13.46-.18,20.05-1.77,7.5-6.58,13.43-12.56,15.49-.27,.09-.57,.07-.82-.08h-.01c-.98,1.57-2.19,2.95-3.59,4.11-.18,.15-.4,.23-.63,.23Zm-6.36-2.11c1.88,0,3.92,.04,6.01,.1,1.34-1.16,2.46-2.56,3.34-4.17,.13-.24,.35-.41,.61-.48,.26-.07,.53-.04,.77,.09l.47,.27c6.12-2.33,9.61-8.67,10.84-13.91,0,0,0,0,0,0,1.49-6.25,.8-12.91,.14-19.34-.14-1.42-.29-2.8-.45-4.19-1.25-12.07-2.51-24.12-3.78-36.18-.67-6.21-1.42-13.26-5.15-18.62-3.21-4.6-8.65-7.67-14.24-8.05l-.06,.02c-.33,.12-.69,.05-.96-.16-8.68-7-20.46-10.23-31.51-8.64-11.04,1.6-21.43,8.02-27.78,17.19-3.65,5.25-6.05,11.4-8.38,17.35l-.04,.11c-2.67,6.89-5.34,13.76-8.03,20.64-1.21,3.12-2.42,6.23-3.63,9.34l-2.63,6.76c-2.4,6.19-4.88,12.59-4.74,19.26,.14,5.92,3.03,12.98,9.18,15.42,.14,.06,.27,.15,.38,.26,2.21,2.48,5.61,3.76,8.85,3.36,.2-.02,.38,0,.54,.09,1.74-.31,3.51-.62,4.99-.86,2.56-3.33,5.49-6.34,8.72-8.98-.24-.34-.49-.69-.72-1.04-5.25-7.74-8.16-15.68-8.66-23.6-4.22-1.08-7.41-3.4-9.27-6.76-2.01-3.63-2.31-8.26-.81-12.37,1.19-3.29,3.32-5.58,5.85-6.29,1.46-.41,3.73-.47,6.34,1.53,7.87,1.41,13.99-.03,19.21-4.52,3.06-2.61,5.61-6.04,8.08-9.34,1.18-1.59,2.41-3.23,3.68-4.78,.35-.42,.7-.84,1.07-1.25,10.42-11.85,23.63-13.27,24.18-13.32,.55-.06,1.03,.34,1.09,.88,.01,.09,1.02,8.86,3.8,19.01,1.93,7.14,4.25,13.22,6.89,18.06,1.74,3.2,3.61,5.85,5.57,7.9l.13-.04c.49-.14,.99-.23,1.51-.27,.65-.06,1.28-.04,1.87,.06,.13,.01,.33,.05,.52,.1,.4,.1,.71,.22,1.01,.35,.12,.04,.31,.14,.48,.23,.25,.14,.51,.3,.76,.5,.09,.06,.22,.17,.37,.3,0,0,.11,.1,.11,.1,.05,.05,.1,.09,.16,.14,.11,.11,.22,.24,.33,.37,.21,.21,.41,.51,.55,.73,.18,.23,.3,.46,.41,.67,.23,.39,.41,.8,.55,1.21,.05,.1,.12,.31,.18,.52,.07,.2,.13,.4,.17,.62,.17,.62,.29,1.39,.35,2.24,0,.02,0,.08,0,.11,.04,.84,.02,1.62-.06,2.34-.02,.21-.06,.47-.1,.71-.08,.57-.18,1.07-.31,1.52-.31,1.29-.79,2.53-1.41,3.66-.08,.16-.2,.38-.32,.58-.33,.53-.67,1.02-1.02,1.46-.14,.19-.32,.39-.5,.59-1,1.16-2.2,2.13-3.55,2.87-.41,.25-.86,.46-1.33,.63-.27,.13-.53,.21-.76,.28-.15,.07-.44,.16-.76,.23-.44,.14-.99,.26-1.57,.34-.47,.09-1,.15-1.56,.17-.78,.05-1.76,.04-2.71-.05-2.38,5.56-6.13,10.68-11.15,15.25,1.63,1.01,4.96,3.79,7.86,10.7Z"/>
        <path class="cls-9" d="M192.3,338.77c-.23,0-.45-.08-.63-.22-1.01-.82-2.03-1.6-3.3-2.54-1.01-.74-1.98-1.41-2.92-2.07l-1.08-.75c-1.03-.69-2.05-1.41-3.15-2.2-.22-.16-.37-.4-.41-.67-.04-.27,.04-.54,.2-.76,.4-.51,.51-1.36,.31-2.33-.05-.22-.02-.45,.08-.65-.01-1.73,.69-3.21,2.01-4.15,1.11-.79,2.41-1.06,3.79-.79-.32-2.04,.99-3.51,1.83-4.05,.24-.16,.54-.2,.82-.12,.28,.08,.51,.28,.63,.54,1.64,3.59,2.69,6.3,3.81,9.17l.56,1.44c.79,2,1.66,4.17,2.88,6.82,.22,.48,.03,1.04-.43,1.3-1.73,.95-2.7,1.35-4.71,1.97-.1,.03-.19,.04-.29,.04Zm-9.18-8.88c.81,.58,1.59,1.12,2.38,1.65l1.09,.75c.96,.67,1.94,1.34,2.97,2.1,1.12,.83,2.05,1.54,2.95,2.26,1.23-.39,2.01-.7,3.01-1.22-1.04-2.31-1.82-4.26-2.53-6.07,0,0,0,0,0,0l-.56-1.45c-.95-2.45-1.85-4.78-3.12-7.63-.16,.4-.22,.92,.01,1.55,.19,.62,.04,1.23-.37,1.64-.38,.37-.93,.5-1.44,.33-1.14-.42-2.11-.33-2.93,.26-1.01,.72-1.19,1.83-1.17,2.64,0,.17-.02,.33-.06,.46,.16,1.01,.08,1.94-.23,2.72Z"/>
        <path class="cls-9" d="M182.31,328.04c-.09,0-.19-.01-.28-.04-.35-.1-.62-.39-.7-.75-.33-1.52-1.79-4.72-7.79-9-.29-.21-.45-.56-.41-.92,.04-.36,.27-.67,.6-.81,.03-.01,3.4-1.48,2.77-3.48-.92-2.87-2.6-5.08-5.44-7.17-.42-.31-.95-.73-1.57-1.22-3.03-2.4-8.68-6.87-13.92-7.34-.29-.03-.55-.18-.72-.41-4.65-6.48-9.29-12.96-14.12-19.68-.28-.39-.24-.91,.08-1.26,3.4-3.67,7.62-6.7,12.22-8.76,.43-.2,.94-.06,1.22,.33,6.71,9.34,13.1,18.24,19.57,27.28,.04,.05,.08,.1,.12,.16l.08,.11c.18,.22,.25,.52,.2,.8-.05,.28-.22,.53-.47,.68-.99,.6-.99,2-.89,2.78,.3,2.51,2.14,5.3,3.85,5.84,.48,.15,1.19,.24,2.04-.65,.11-.37,.42-.66,.8-.72,.38-.06,.77,.07,1,.38l.89,1.23c.74,1.03,1.5,2.06,2.25,3.1,.03,.04,.05,.08,.08,.12,1.88,2.63,3.8,5.3,5.75,8.01l.89,1.24c.16,.22,.22,.5,.17,.77-.05,.27-.21,.51-.44,.65-.13,.09-1.36,.97-.79,2.56,.19,.62,.04,1.23-.37,1.64-.38,.37-.93,.5-1.44,.33-1.14-.42-2.11-.33-2.93,.26-1.01,.72-1.19,1.83-1.17,2.64,0,.52-.22,.84-.4,1.02-.19,.19-.45,.29-.71,.29Zm-6.34-10.47c3.18,2.44,5.04,4.59,6.1,6.36,.33-.58,.78-1.08,1.35-1.48,1.11-.79,2.41-1.06,3.79-.79-.23-1.44,.36-2.61,1.03-3.35l-.36-.51c-1.97-2.74-3.92-5.45-5.83-8.11-.03-.04-.05-.08-.07-.12-.72-1.01-1.45-2-2.17-2.99l-.14-.2c-1.06,.85-2.3,1.1-3.56,.7-.47-.15-.92-.38-1.35-.67,1.75,1.77,2.91,3.7,3.65,6.03,.72,2.27-.82,4.05-2.43,5.13Zm-19.77-22.19c5.67,.71,11.18,5.07,14.52,7.71,.59,.47,1.1,.87,1.51,1.17,.39,.28,.75,.57,1.1,.86-1.34-1.56-2.25-3.71-2.47-5.54-.2-1.69,.15-3.09,1.01-4.03-6.21-8.67-12.35-17.22-18.77-26.16-3.82,1.82-7.34,4.35-10.27,7.36,4.56,6.35,8.97,12.5,13.38,18.64Z"/>
        <path class="cls-9" d="M182.86,310.09c-.32,0-.62-.15-.81-.42-.75-1.04-1.5-2.07-2.24-3.1l-.89-1.23c-.21-.29-.25-.67-.1-1,1-2.18-.4-5.55-2.33-7.32-.41-.37-.43-1.01-.06-1.41,.37-.41,1.01-.43,1.41-.06,2.35,2.15,4.02,6.02,3.02,9.07l.57,.79c.27,.37,.53,.73,.8,1.1l3.03-20.78,3.07-22.39c.08-.55,.58-.92,1.13-.86,.55,.08,.93,.58,.85,1.13l-3.07,22.4-3.38,23.23c-.06,.4-.36,.73-.75,.83-.08,.02-.16,.03-.24,.03Z"/>
        <path class="cls-9" d="M153.44,334.63c-1.16,0-2.33-.13-3.4-.48-.47-.14-.94-.31-1.43-.51-.06-.02-.1-.04-.14-.06-3.6-1.44-5.96-3.59-9.29-7.3-3.13-3.54-1.34-8.16,.27-10.49-1.43-4.43,.45-7.67,1.96-9.08,0-4.69,2.74-6.13,4.06-6.56,1.08-3.17,4.04-4.17,5.67-4.26,1.42-.52,2.97-.71,4.6-.57,5.83,.52,11.56,5.05,14.98,7.76,.59,.47,1.1,.87,1.51,1.17,3.21,2.36,5.12,4.88,6.17,8.18,.72,2.27-.82,4.05-2.43,5.13,5.21,4,6.87,7.21,7.31,9.26,0,0,0,0,0,0,.33,1.57,.09,2.98-.69,3.98-.47,.59-1.09,.98-1.76,1.1-1.83,.32-3.58-.61-4.49-1.22-1.09,.73-3.51,2.05-7.32,2.47-4.29,.47-7.17,.16-8.05,.03-.94,.34-4.21,1.43-7.53,1.43Zm1.28-37.35c-1.07,0-2.08,.18-3.02,.54-.11,.04-.22,.06-.34,.07-.13,0-3.33,.13-4.12,3.34-.1,.41-.45,.71-.87,.75-.31,.04-3.14,.54-2.95,5.15,.01,.33-.13,.64-.4,.84-.13,.1-3.37,2.69-1.52,7.65,.12,.32,.06,.69-.15,.96-.15,.2-3.75,4.91-.68,8.38,3.19,3.56,5.29,5.49,8.56,6.78,.03,.01,.06,.03,.09,.04,.02,0,.07,.03,.1,.04,.36,.15,.77,.29,1.19,.42,3.97,1.27,9.82-.98,9.88-1,.17-.07,.36-.08,.54-.05,.03,0,2.97,.52,7.76,0,4.58-.5,6.85-2.46,6.87-2.48,.38-.33,.94-.33,1.32-.01,.5,.43,2.12,1.49,3.51,1.25,.18-.03,.37-.16,.52-.36,.4-.51,.51-1.36,.31-2.32-.33-1.53-1.79-4.72-7.79-8.99-.29-.21-.45-.56-.41-.92,.04-.36,.27-.67,.6-.81,.03-.01,3.4-1.48,2.77-3.48-.92-2.87-2.6-5.08-5.44-7.17-.42-.31-.95-.73-1.57-1.22-3.03-2.4-8.68-6.87-13.92-7.34-.28-.02-.56-.04-.84-.04Z"/>
        <path class="cls-9" d="M177.27,307.26c-.38,0-.78-.06-1.17-.18-2.79-.88-4.89-4.58-5.24-7.51-.21-1.79,.19-3.24,1.15-4.19,0-.28,.14-.56,.37-.75,1.49-1.2,3.53-.86,5.45,.92,2.48,2.27,4.2,6.46,2.82,9.57-.05,.16-.12,.28-.17,.37-.04,.08-.12,.21-.18,.28-.88,.99-1.93,1.5-3.04,1.5Zm-3.08-11.31c-.07,.25-.23,.47-.45,.6-.99,.6-.99,2-.89,2.78,.3,2.51,2.14,5.3,3.85,5.84,.48,.15,1.19,.24,2.04-.65,.02-.05,.06-.13,.08-.18,1-2.18-.4-5.55-2.33-7.32-.35-.32-1.39-1.2-2.29-1.07Z"/>
        <path class="cls-9" d="M118.97,302.82h-.02c-.31,0-.61-.15-.8-.39-.19-.25-.25-.57-.17-.87,2.87-10.45,7.9-24.91,14.17-40.72,.2-.51,.78-.76,1.29-.57l1.39,.53c.25,.1,.46,.3,.56,.55,.1,.25,.1,.54,0,.79-.7,1.61-.5,3.56,.5,4.95,.63,.9,1.25,1.76,1.87,2.61l4.58,6.36c4.83,6.71,9.47,13.2,14.12,19.68,.23,.32,.25,.74,.06,1.08-.19,.34-.57,.54-.95,.5-1.38-.12-2.68,.05-3.87,.51-.51,.2-1.09-.06-1.29-.57-.2-.52,.06-1.09,.57-1.29,.87-.33,1.78-.54,2.73-.63-4.27-5.96-8.56-11.93-12.99-18.1l-4.58-6.36c-.62-.85-1.25-1.73-1.88-2.63-.84-1.17-1.28-2.58-1.29-4.01-5.73,14.64-10.32,27.94-13.02,37.72-.06,.49-.48,.87-.98,.87Z"/>
        <path class="cls-9" d="M141.53,277.64s-.04,0-.06,0c-.3-.02-.57-.17-.75-.41l-4.58-6.36c-.27-.37-.25-.88,.05-1.23,3.3-3.91,7.55-6.96,12.3-8.82,.43-.17,.91-.02,1.18,.35l4.58,6.36c.18,.24,.23,.55,.15,.84-.08,.29-.28,.53-.56,.65-4.35,1.95-8.35,4.82-11.57,8.3-.19,.21-.46,.32-.73,.32Zm-3.3-7.3l3.41,4.74c2.96-2.99,6.47-5.51,10.27-7.36l-3.41-4.74c-3.91,1.65-7.43,4.18-10.27,7.36Z"/>
        <path class="cls-9" d="M144.32,334.2c-8.84,0-27.14-1.68-29.12-15.39-.45-3.07,.49-8.88,2.79-17.25,.12-.43,.51-.74,.96-.74,.55,0,1.01,.45,1.01,1,0,.14-.03,.28-.08,.4-2.73,10-2.98,14.39-2.7,16.3,1.87,12.94,20.85,13.84,28.52,13.67-2.22-1.37-4.11-3.24-6.51-5.91-3.13-3.54-1.34-8.16,.27-10.49-1.43-4.43,.45-7.67,1.96-9.08,0-4.69,2.74-6.13,4.06-6.56,1.13-3.3,4.27-4.24,5.85-4.27,.54,0,1.01,.43,1.02,.98,0,.55-.43,1.01-.98,1.02-.15,0-3.33,.14-4.13,3.34-.1,.41-.45,.71-.87,.75-.31,.04-3.14,.54-2.95,5.15,.01,.33-.13,.64-.4,.84-.13,.1-3.37,2.69-1.52,7.65,.12,.32,.06,.69-.15,.96-.15,.2-3.75,4.91-.68,8.38,3.19,3.56,5.29,5.49,8.56,6.78,.03,.01,.06,.03,.09,.04,.02,0,.07,.03,.1,.04,.46,.23,.68,.78,.49,1.26l-.12,.32c-.15,.38-.52,.64-.93,.64-.03,0-.07,.01-.1,.02-.63,.05-2.25,.15-4.45,.15Z"/>
        <path class="cls-9" d="M136.95,271.28s-.02,0-.04,0c-.31-.01-.59-.16-.77-.41-.63-.86-1.25-1.74-1.88-2.63-1.42-1.97-1.69-4.62-.7-6.9,.41-.92,1.02-1.75,1.78-2.41,1.2-1.04,1.9-1.54,3.26-2.35,3.05-1.81,7.09-.94,9.19,1.96,0,0,0,0,0,0l1.87,2.62c.18,.25,.23,.57,.14,.87-.09,.29-.31,.53-.59,.65-4.43,1.73-8.41,4.58-11.5,8.24-.19,.22-.47,.35-.76,.35Zm5.09-13.63c-.84,0-1.68,.21-2.43,.65-1.27,.75-1.85,1.17-2.97,2.14-.53,.46-.97,1.05-1.25,1.69-.7,1.61-.5,3.55,.5,4.94,.38,.54,.76,1.08,1.14,1.6,2.88-3.14,6.4-5.66,10.27-7.37l-1.14-1.59c-.96-1.33-2.55-2.06-4.12-2.06Z"/>
      </g>
      <path class="cls-9" d="M265.28,389.15c-.54,0-.98-.43-1-.97l-2.45-80.61c-.02-.55,.42-1.01,.97-1.03,.51,0,1.01,.42,1.03,.97l2.45,80.61c.02,.55-.42,1.01-.97,1.03h-.03Z"/>
      <path class="cls-9" d="M355.41,299.87c-.18,0-.37-.05-.54-.16-5.6-3.57-11.69-5.06-11.75-5.08-.54-.13-.87-.67-.74-1.21,.13-.54,.66-.87,1.21-.74,.26,.06,6.47,1.58,12.36,5.34,.47,.3,.6,.92,.3,1.38-.19,.3-.51,.46-.84,.46Z"/>
      <path class="cls-9" d="M355.41,293.56c-.05,0-.11,0-.17-.01l-6.68-1.11c-.54-.09-.91-.61-.82-1.15,.09-.54,.61-.92,1.15-.82l6.68,1.11c.54,.09,.91,.61,.82,1.15-.08,.49-.5,.84-.99,.84Z"/>
      <path class="cls-9" d="M285.16,287.83c-.16,0-.32-.04-.47-.12-.32-.17-7.94-4.25-10.27-6.42-2.35-2.18-7.9-11.48-8.13-11.88-.28-.47-.13-1.09,.35-1.37,.47-.28,1.09-.13,1.37,.35,1.56,2.62,6,9.79,7.78,11.44,2.15,2,9.78,6.08,9.86,6.13,.49,.26,.67,.87,.41,1.35-.18,.34-.53,.53-.88,.53Z"/>
      <path class="cls-9" d="M279.88,290.47c-.22,0-.43-.07-.62-.21l-24.26-19.02c-.43-.34-.51-.97-.17-1.4,.34-.43,.97-.51,1.4-.17l24.26,19.02c.43,.34,.51,.97,.17,1.4-.2,.25-.49,.38-.79,.38Z"/>
      <path class="cls-9" d="M274.93,293.56c-.24,0-.48-.08-.67-.26l-17.08-15.47c-.41-.37-.44-1-.07-1.41,.37-.41,1-.44,1.41-.07l17.08,15.47c.41,.37,.44,1,.07,1.41-.2,.22-.47,.33-.74,.33Z"/>
      <path class="cls-9" d="M292.19,279.18s-.02,0-.03,0c-.55-.02-.98-.48-.97-1.03l.56-16.7c.02-.54,.46-.97,1-.97,.01,0,.02,0,.03,0,.55,.02,.98,.48,.97,1.03l-.56,16.71c-.02,.54-.46,.97-1,.97Z"/>
      <path class="cls-9" d="M304.96,284.59h-.02c-.55-.01-.99-.47-.98-1.02l.44-22.12c.01-.55,.47-.98,1.02-.98,.55,.01,.99,.47,.98,1.02l-.44,22.12c-.01,.54-.46,.98-1,.98Z"/>
      <path class="cls-9" d="M290.52,319.45h0c-.55,0-1-.46-.99-1.01l.11-13.71c0-.55,.45-.99,1-.99h0c.55,0,1,.46,.99,1.01l-.11,13.71c0,.55-.45,.99-1,.99Z"/>
      <path class="cls-9" d="M303.53,318.62c-.55,0-1-.44-1-.99l-.06-9.49c0-.55,.44-1,.99-1.01h0c.55,0,1,.44,1,.99l.06,9.49c0,.55-.44,1-.99,1.01h0Z"/>
      <path class="cls-9" d="M298.53,260.77c-.29,0-.57-.12-.77-.36-19.87-24.04-59.12-19.98-59.51-19.94-.54,.06-1.04-.33-1.1-.88-.06-.55,.33-1.04,.88-1.1,.41-.04,40.71-4.23,61.27,20.65,.35,.42,.29,1.06-.13,1.41-.19,.15-.41,.23-.64,.23Z"/>
      <path class="cls-9" d="M294.73,260.77c-.17,0-.35-.05-.51-.14-27.88-16.65-56.6-16.36-56.89-16.35h-.02c-.54,0-.99-.44-1-.98,0-.55,.43-1.01,.98-1.02,.28,0,29.57-.31,57.95,16.64,.47,.28,.63,.9,.35,1.37-.19,.31-.52,.49-.86,.49Z"/>
      <path class="cls-9" d="M301.66,260.77c-.23,0-.47-.08-.66-.25-.42-.36-.46-.99-.1-1.41,.24-.28,24.46-27.67,59.99-21.71,.54,.09,.91,.61,.82,1.15-.09,.54-.6,.91-1.15,.82-34.4-5.78-57.92,20.78-58.15,21.04-.2,.23-.48,.34-.76,.34Z"/>
      <path class="cls-9" d="M307.44,259.18c-.31,0-.62-.14-.81-.41-.32-.45-.22-1.07,.22-1.4,1.21-.88,30.02-21.47,54.11-15.9,.54,.12,.87,.66,.75,1.2-.12,.54-.66,.88-1.2,.75-23.22-5.37-52.2,15.36-52.49,15.57-.18,.13-.38,.19-.58,.19Z"/>
      <path class="cls-9" d="M218.19,135.75s-.06,0-.09,0c-.55-.05-.95-.54-.9-1.09l1.13-12.11c.05-.55,.53-.95,1.09-.9,.55,.05,.95,.54,.9,1.09l-1.13,12.11c-.05,.52-.48,.91-.99,.91Z"/>
      <path class="cls-9" d="M285.8,147.51c-.1,0-.21-.02-.32-.05-.52-.17-.81-.74-.63-1.26l3.31-9.95c.17-.52,.74-.81,1.26-.63,.52,.17,.81,.74,.63,1.26l-3.31,9.95c-.14,.42-.53,.68-.95,.68Z"/>
      <path class="cls-9" d="M160.86,333.16c-.19,0-.38-.05-.55-.16l-12.83-8.38c-.46-.3-.59-.92-.29-1.38,.3-.46,.92-.59,1.38-.29l12.83,8.38c.46,.3,.59,.92,.29,1.38-.19,.29-.51,.45-.84,.45Z"/>
      <path class="cls-9" d="M176.34,330.44c-.14,0-.29-.03-.42-.09-7.98-3.74-23.61-13.03-23.77-13.12-.47-.28-.63-.9-.35-1.37,.28-.48,.89-.63,1.37-.35,.16,.09,15.7,9.34,23.6,13.03,.5,.23,.72,.83,.48,1.33-.17,.36-.53,.58-.91,.58Z"/>
      <path class="cls-9" d="M174.11,318.44c-.19,0-.38-.05-.55-.17l-14.86-9.9c-.46-.31-.58-.93-.28-1.39,.3-.46,.93-.58,1.39-.28l14.86,9.9c.46,.31,.58,.93,.28,1.39-.19,.29-.51,.45-.83,.45Z"/>
      <path class="cls-9" d="M243.64,127.13c-.52,2.71-2.84,4.55-5.17,4.1-2.34-.45-3.81-3.01-3.29-5.73,.52-2.71,2.84-4.55,5.17-4.1,2.34,.45,3.81,3.01,3.29,5.73Z"/>
      <path class="cls-9" d="M247.09,120.92c-.28,0-.56-.12-.75-.34-5.84-6.72-11.93-2.6-12.19-2.42-.45,.31-1.08,.2-1.39-.25-.31-.45-.2-1.08,.25-1.39,.08-.05,7.84-5.3,14.84,2.75,.36,.42,.32,1.05-.1,1.41-.19,.16-.42,.25-.66,.25Z"/>
      <path class="cls-9" d="M249.68,146.8c-.06,0-.13,0-.19-.02-2.45-.47-4.27-1.9-5.27-4.13-.78-1.74-1-3.92-.6-5.97,.41-2.14,3.69-2.76,5.44-2.93l2.89-10.21c.15-.53,.7-.84,1.23-.69,.53,.15,.84,.7,.69,1.23l-3.08,10.87c-.12,.41-.48,.7-.91,.73-2.1,.12-4.19,.79-4.3,1.37-.32,1.66-.15,3.4,.47,4.78,.73,1.63,2.01,2.64,3.82,2.98,.54,.1,.9,.63,.79,1.17-.09,.48-.51,.81-.98,.81Z"/>
      <path class="cls-9" d="M215.36,131.35s-.09,0-.13,0c-.55-.07-.94-.57-.86-1.12,1.13-8.78-1.96-14.27-2-14.32-.28-.48-.11-1.09,.36-1.37,.48-.28,1.09-.12,1.36,.36,.14,.24,3.47,6.09,2.25,15.58-.06,.5-.5,.87-.99,.87Z"/>
      <path class="cls-5" d="M238.84,139.24c-.46,2.39-3.97,3.72-7.84,2.98-3.87-.74-6.64-3.28-6.18-5.67,.46-2.39,3.97-3.72,7.84-2.98,3.87,.74,6.64,3.28,6.18,5.67Z"/>
      <path class="cls-9" d="M265.85,131.31c-.52,2.71,.95,5.28,3.29,5.73,2.34,.45,4.65-1.39,5.17-4.1,.52-2.71-.95-5.28-3.29-5.73-2.34-.45-4.65,1.39-5.17,4.1Z"/>
      <path class="cls-9" d="M280.36,127.21c-.32,0-.64-.16-.83-.45-.17-.26-4.36-6.31-12.22-2.26-.49,.25-1.09,.06-1.35-.43-.25-.49-.06-1.09,.43-1.35,9.48-4.9,14.75,2.85,14.81,2.93,.3,.46,.18,1.08-.28,1.39-.17,.11-.36,.17-.55,.17Z"/>
      <path class="cls-9" d="M289.33,145.27c-.08,0-.17-.01-.25-.03-.54-.14-.86-.68-.72-1.22,2.38-9.28,7.63-13.47,7.85-13.65,.43-.34,1.06-.26,1.4,.17,.34,.43,.26,1.06-.17,1.4h0s-4.95,3.99-7.15,12.57c-.12,.45-.52,.75-.97,.75Z"/>
      <path class="cls-5" d="M265.83,144.33c-.46,2.39,2.31,4.93,6.18,5.67s7.38-.59,7.84-2.98-2.31-4.93-6.18-5.67c-3.87-.74-7.38,.59-7.84,2.98Z"/>
      <path class="cls-9" d="M249.06,157.41c-.07,0-.15,0-.22,0-.55-.01-.99-.47-.98-1.02,.01-.54,.46-.98,1-.98,.06,0,.13,0,.19,0,2.87,0,5.75-1.62,7.22-4.08,.28-.47,.9-.63,1.37-.35,.47,.28,.63,.9,.35,1.37-1.85,3.09-5.33,5.06-8.93,5.06Z"/>
      <path class="cls-2" d="M217.8,91.63c-.09,0-.18-.01-.27-.04-.53-.15-.84-.7-.7-1.23,1.9-6.85,5.51-13.18,10.45-18.29,.38-.4,1.02-.41,1.41-.03,.4,.38,.41,1.02,.03,1.41-4.71,4.88-8.15,10.91-9.96,17.44-.12,.44-.53,.73-.96,.73Z"/>
      <path class="cls-2" d="M221.43,92.61c-.16,0-.32-.04-.47-.12-.49-.26-.67-.86-.41-1.35l2.91-5.48c.26-.49,.86-.68,1.35-.41,.49,.26,.67,.86,.41,1.35l-2.91,5.48c-.18,.34-.53,.53-.88,.53Z"/>
      <path class="cls-2" d="M299.31,105.49s-.06,0-.09,0c-.55-.05-.96-.54-.91-1.09,.51-5.64,.21-11.31-.87-16.86-.11-.54,.25-1.07,.79-1.17,.54-.11,1.07,.25,1.17,.79,1.12,5.74,1.42,11.6,.9,17.42-.05,.52-.48,.91-1,.91Z"/>
      <path class="cls-2" d="M295.38,105.7c-.06,0-.12,0-.18-.02-.54-.1-.9-.62-.8-1.16,.47-2.59,.43-5.32-.11-7.9-.11-.54,.23-1.07,.77-1.19,.54-.12,1.07,.23,1.19,.77,.6,2.83,.64,5.83,.12,8.68-.09,.48-.51,.82-.98,.82Z"/>
      <path class="cls-2" d="M292.17,104.96c-.53,0-.98-.42-1-.96l-.1-2.6c-.02-.55,.41-1.02,.96-1.04,.54-.02,1.02,.41,1.04,.96l.1,2.6c.02,.55-.41,1.02-.96,1.04-.01,0-.03,0-.04,0Z"/>
    </g>
    <g class="cls-12">
      <g>
        <g>
          <rect class="cls-10" x="75.82" y="402.02" width="336.66" height="22.48"/>
          <rect class="cls-10" x="82.83" y="424.5" width="322.63" height="80.7"/>
        </g>
        <g>
          <path class="cls-9" d="M412.47,425.5H75.82c-.55,0-1-.45-1-1v-22.48c0-.55,.45-1,1-1H412.47c.55,0,1,.45,1,1v22.48c0,.55-.45,1-1,1Zm-335.66-2H411.47v-20.48H76.82v20.48Z"/>
          <path class="cls-9" d="M405.46,506.2c-.55,0-1-.45-1-1v-79.7H83.83v79.7c0,.55-.45,1-1,1s-1-.45-1-1v-80.7c0-.55,.45-1,1-1H405.46c.55,0,1,.45,1,1v80.7c0,.55-.45,1-1,1Z"/>
        </g>
        <path class="cls-9" d="M346.02,474.48H142.27c-.55,0-1-.45-1-1v-48.98c0-.55,.45-1,1-1h203.75c.55,0,1,.45,1,1v48.98c0,.55-.45,1-1,1Zm-202.75-2h201.75v-46.98H143.27v46.98Z"/>
        <polygon class="cls-10" points="377.38 368.67 110.91 368.67 75.82 402.02 412.47 402.02 377.38 368.67"/>
        <path class="cls-9" d="M412.47,403.02H75.82c-.41,0-.78-.25-.93-.63-.15-.38-.06-.81,.24-1.1l35.09-33.35c.19-.18,.43-.28,.69-.28H377.38c.26,0,.5,.1,.69,.28l35.09,33.35c.3,.28,.39,.72,.24,1.1-.15,.38-.52,.63-.93,.63Zm-334.15-2H409.97l-32.98-31.35H111.3l-32.98,31.35Z"/>
      </g>
    </g>
    <g>
      <path class="cls-3" d="M269.65,382.98c2.23,4.93,2.23,10.45,0,15.38h-23.98c1.13-5.83,1.13-9.54,0-15.36h23.82c.05-.01,.1-.01,.16-.01Z"/>
      <path class="cls-2" d="M269.5,382.98h0s-23.83,.01-23.83,.01h0c7.94-.01,15.88-.01,23.82-.01Z"/>
      <path class="cls-3" d="M269.5,382.98H125.06l16.11-20.68h112.2l16.11,20.68Z"/>
      <path class="cls-11" d="M245.68,382.99c1.13,5.83,1.13,9.54,0,15.36h-10.26c.85-5.62,.85-9.75,0-15.36h10.26Z"/>
      <path class="cls-2" d="M245.68,382.98h0s-10.26,.01-10.26,.01h0c4.1-.01,6.15-.01,10.26-.01Z"/>
      <path class="cls-3" d="M235.42,382.99c.85,5.61,.85,9.74,0,15.36h-84.17c-1.07-5.78-1.07-9.58,0-15.36h84.17Z"/>
      <path class="cls-2" d="M235.42,382.98h0s-84.17,.01-84.17,.01h0c28.05-.01,56.12-.01,84.17-.01Z"/>
      <path class="cls-2" d="M151.24,382.98h0s-10.27,.01-10.27,.01h0c4.11-.01,6.16-.01,10.27-.01Z"/>
      <path class="cls-11" d="M140.98,382.99h10.27c-1.07,5.78-1.07,9.58,0,15.36h-10.27c-1.34-5.98-1.34-9.38,0-15.36Z"/>
      <path class="cls-2" d="M140.98,382.98h0s-15.92,.01-15.92,.01h0c5.3-.01,10.61-.01,15.91-.01Z"/>
      <path class="cls-3" d="M125.06,382.99h15.92c-1.34,5.98-1.34,9.38,0,15.36h-16.07c-2.23-4.93-2.23-10.45,0-15.38h.15Z"/>
      <path class="cls-9" d="M269.65,399.36h-23.98c-.3,0-.58-.13-.77-.36-.19-.23-.27-.53-.21-.83,1.1-5.67,1.1-9.31,0-14.99-.06-.29,.02-.6,.21-.83,.19-.23,.47-.36,.77-.36h23.66c.05,0,.1-.01,.16-.01h.16c.39,0,.75,.23,.91,.59,2.37,5.22,2.37,10.98,0,16.2-.16,.36-.52,.59-.91,.59Zm-22.78-2h22.12c1.78-4.33,1.79-9.03,0-13.36h-22.12c.86,4.91,.86,8.45,0,13.36Z"/>
      <path class="cls-9" d="M269.5,383.99h-23.83c-.55,0-1-.45-1-1s.45-1.01,1-1.01h23.82c.35,0,.67,.18,.85,.48h0c.19,.32,.2,.71,.02,1.03-.18,.32-.51,.51-.87,.51Z"/>
      <path class="cls-9" d="M269.5,383.98H125.06c-.38,0-.73-.22-.9-.56-.17-.34-.12-.75,.11-1.05l16.11-20.68c.19-.24,.48-.39,.79-.39h112.2c.31,0,.6,.14,.79,.39l16.11,20.68c.23,.3,.28,.71,.11,1.05-.17,.34-.52,.56-.9,.56Zm-142.39-2h140.34l-14.56-18.68h-111.23l-14.56,18.68Z"/>
      <path class="cls-9" d="M245.68,399.36h-10.26c-.29,0-.57-.13-.76-.35-.19-.22-.27-.51-.23-.8,.83-5.49,.83-9.58,0-15.07-.04-.29,.04-.58,.23-.8,.19-.22,.47-.35,.76-.35h10.26c.48,0,.89,.34,.98,.81,1.15,5.96,1.15,9.78,0,15.74-.09,.47-.5,.81-.98,.81Zm-9.11-2h8.28c.89-4.95,.89-8.41,0-13.36h-8.28c.65,4.77,.65,8.59,0,13.36Z"/>
      <path class="cls-9" d="M245.68,383.99h-10.26c-.55,0-1-.45-1-1s.45-1.01,1-1.01h10.26c.55,0,1,.45,1,1h0c0,.57-.45,1.01-1,1.01Z"/>
      <path class="cls-9" d="M235.42,399.36h-84.17c-.48,0-.9-.34-.98-.82-1.09-5.88-1.09-9.85,0-15.73,.09-.47,.5-.82,.98-.82h84.17c.49,0,.91,.36,.99,.85,.87,5.71,.87,9.95,0,15.66-.07,.49-.49,.85-.99,.85Zm-83.33-2h82.47c.67-4.8,.67-8.58,0-13.36h-82.47c-.85,4.95-.85,8.41,0,13.36Z"/>
      <path class="cls-9" d="M235.42,383.99h-84.17c-.55,0-1-.45-1-1s.45-1.01,1-1.01h84.17c.55,0,1,.45,1,1h0c0,.57-.45,1.01-1,1.01Z"/>
      <path class="cls-9" d="M151.24,383.99h-10.27c-.55,0-1-.45-1-1s.45-1.01,1-1.01h10.27c.55,0,1,.45,1,1h0c0,.57-.45,1.01-1,1.01Z"/>
      <path class="cls-9" d="M151.24,399.36h-10.27c-.47,0-.87-.33-.98-.78-1.37-6.13-1.37-9.67,0-15.8,.1-.46,.51-.78,.98-.78h10.27c.3,0,.58,.13,.77,.36,.19,.23,.27,.53,.21,.82-1.05,5.68-1.05,9.32,0,15,.05,.29-.02,.59-.21,.82s-.47,.36-.77,.36Zm-9.46-2h8.27c-.81-4.86-.81-8.5,0-13.36h-8.27c-1.08,5.12-1.08,8.25,0,13.36Z"/>
      <path class="cls-9" d="M140.98,383.99h-15.92c-.36,0-.69-.19-.87-.5-.18-.31-.18-.69,0-1,.18-.31,.52-.51,.87-.51h15.91c.55,0,1,.45,1,1h0c0,.57-.45,1.01-1,1.01Z"/>
      <path class="cls-9" d="M140.98,399.36h-16.07c-.39,0-.75-.23-.91-.59-2.37-5.22-2.37-10.98,0-16.2,.16-.36,.52-.59,.91-.59h.16c.05,0,.11,0,.16,.01h15.75c.3,0,.59,.14,.78,.38,.19,.24,.26,.55,.2,.84-1.31,5.86-1.31,9.07,0,14.93,.07,.3,0,.61-.2,.84-.19,.24-.48,.38-.78,.38Zm-15.41-2h14.18c-1.02-5.01-1.02-8.35,0-13.36h-14.18c-1.78,4.33-1.78,9.03,0,13.36Z"/>
    </g>
    <g>
      <path class="cls-11" d="M266.75,378.77v2.88h-9.48c-.19-.98-.43-1.95-.7-2.88h10.18Z"/>
      <polygon class="cls-11" points="266.75 360.35 266.75 363.24 264.58 363.24 124.47 363.24 122.3 363.24 122.3 360.35 266.75 360.35"/>
      <polygon class="cls-11" points="250.63 339.66 266.75 360.35 122.3 360.35 138.43 339.66 250.63 339.66"/>
      <polygon class="cls-2" points="214.81 341.22 225.01 358.8 154.45 358.8 164.64 341.22 214.81 341.22"/>
      <path class="cls-9" d="M225.01,359.8h-70.56c-.36,0-.69-.19-.87-.5-.18-.31-.18-.69,0-1l10.2-17.58c.18-.31,.51-.5,.87-.5h50.17c.36,0,.69,.19,.87,.5l10.2,17.58c.18,.31,.18,.69,0,1-.18,.31-.51,.5-.87,.5Zm-68.83-2h67.09l-9.04-15.58h-49.02l-9.04,15.58Z"/>
      <path class="cls-2" d="M124.47,363.24h140.11c-5.93,8.47,0,15.53,0,15.53h-8c-1.55-5.22-4.19-9.49-4.19-9.49h-28.24c3.65,1.62,4.86,5.86,5.18,9.49H124.47c5.93-8.47,0-15.53,0-15.53Z"/>
      <polygon class="cls-11" points="251.39 381.65 236.71 381.65 243.68 378.77 251.39 381.65"/>
      <path class="cls-1" d="M257.59,383.96l-6.2-2.31-7.71-2.88-6.97,2.88-7.48,3.09s.19-1.27,.21-3.09c.01-.86,0-1.85-.1-2.88-.32-3.63-1.53-7.87-5.18-9.49h28.24s2.64,4.27,4.19,9.49c.28,.93,.52,1.9,.7,2.88,.14,.77,.25,1.54,.31,2.31Z"/>
      <path class="cls-11" d="M229.33,378.77c.1,1.03,.12,2.02,.1,2.88H122.3v-2.88h107.03Z"/>
      <path class="cls-9" d="M266.75,382.65h-9.48c-.48,0-.89-.34-.98-.81-.18-.92-.4-1.86-.68-2.78-.09-.3-.03-.63,.16-.88,.19-.25,.49-.4,.8-.4h10.18c.55,0,1,.45,1,1v2.88c0,.55-.45,1-1,1Zm-8.66-2h7.66v-.88h-7.87c.07,.29,.14,.59,.21,.88Z"/>
      <path class="cls-9" d="M266.75,364.24H122.3c-.55,0-1-.45-1-1v-2.89c0-.55,.45-1,1-1h144.46c.55,0,1,.45,1,1v2.89c0,.55-.45,1-1,1Zm-143.46-2h142.46v-.89H123.3v.89Z"/>
      <path class="cls-9" d="M266.75,361.35H122.3c-.38,0-.73-.22-.9-.56-.17-.34-.12-.75,.11-1.05l16.13-20.69c.19-.24,.48-.38,.79-.38h112.2c.31,0,.6,.14,.79,.38l16.13,20.69c.23,.3,.28,.71,.11,1.05-.17,.34-.52,.56-.9,.56Zm-142.41-2h140.36l-14.57-18.69h-111.22l-14.57,18.69Z"/>
      <path class="cls-9" d="M264.58,379.77h-8c-.44,0-.83-.29-.96-.72-1.2-4.05-3.09-7.54-3.8-8.78h-24.61c1.73,1.89,2.8,4.73,3.12,8.41,.02,.28-.07,.56-.26,.76-.19,.21-.46,.32-.74,.32H124.47c-.37,0-.71-.21-.89-.54-.17-.33-.15-.73,.07-1.04,5.43-7.76,.11-14.25,.05-14.31-.25-.3-.31-.71-.14-1.07,.16-.35,.52-.58,.91-.58h140.11c.37,0,.71,.21,.89,.54,.17,.33,.15,.73-.07,1.04-5.4,7.71-.27,14.05-.05,14.32,.25,.3,.3,.71,.14,1.06-.16,.35-.52,.58-.9,.58Zm-7.27-2h5.43c-1.37-2.51-3.23-7.65,.03-13.53H126.3c1.38,2.51,3.23,7.64-.03,13.53h101.93c-.41-2.94-1.55-6.28-4.47-7.58-.43-.19-.67-.66-.57-1.12,.1-.46,.51-.79,.98-.79h28.24c.35,0,.67,.18,.85,.47,.11,.17,2.5,4.07,4.08,9.02Z"/>
      <path class="cls-9" d="M251.39,382.65h-14.69c-.48,0-.89-.34-.98-.81-.09-.47,.16-.94,.6-1.12l6.97-2.88c.23-.1,.5-.1,.73-.01l7.71,2.88c.45,.17,.72,.64,.63,1.11s-.5,.82-.98,.82Zm-9.65-2h4.11l-2.16-.81-1.95,.81Z"/>
      <path class="cls-9" d="M229.22,385.74c-.22,0-.44-.07-.61-.21-.28-.22-.43-.58-.37-.93,0-.01,.18-1.24,.2-2.96,.02-.96-.02-1.89-.1-2.77-.28-3.15-1.3-7.21-4.59-8.67-.43-.19-.67-.66-.57-1.12,.1-.46,.51-.79,.98-.79h28.24c.35,0,.67,.18,.85,.47,.11,.18,2.73,4.45,4.3,9.73,.29,.99,.54,1.99,.73,2.98,.16,.89,.27,1.68,.33,2.42,.03,.34-.12,.67-.4,.88-.27,.21-.63,.26-.95,.14l-13.54-5.06-14.09,5.82c-.12,.05-.25,.08-.38,.08Zm-2.02-15.47c1.73,1.89,2.8,4.73,3.12,8.4,.09,.95,.13,1.96,.11,2.99,0,.56-.03,1.08-.06,1.52l12.92-5.34c.23-.1,.5-.1,.73-.01l12.37,4.62c-.03-.2-.07-.41-.11-.62-.17-.91-.4-1.85-.68-2.78-1.2-4.04-3.09-7.54-3.8-8.78h-24.61Z"/>
      <path class="cls-9" d="M229.43,382.65H122.3c-.55,0-1-.45-1-1v-2.88c0-.55,.45-1,1-1h107.03c.52,0,.95,.39,1,.91,.09,.96,.13,1.96,.11,2.99,0,.54-.45,.98-1,.98Zm-106.13-2h105.13c0-.3-.02-.59-.03-.88H123.3v.88Z"/>
      <path class="cls-9" d="M213.3,354.16h-49.26c-.55,0-1-.45-1-1s.45-1,1-1h49.26c.55,0,1,.45,1,1s-.45,1-1,1Z"/>
      <path class="cls-9" d="M213.3,349.77h-39.34c-.55,0-1-.45-1-1s.45-1,1-1h39.34c.55,0,1,.45,1,1s-.45,1-1,1Z"/>
      <path class="cls-9" d="M211.51,345.38h-45.2c-.55,0-1-.45-1-1s.45-1,1-1h45.2c.55,0,1,.45,1,1s-.45,1-1,1Z"/>
      <path class="cls-9" d="M224.15,370.28h-92.04c-.55,0-1-.45-1-1s.45-1,1-1h92.04c.55,0,1,.45,1,1s-.45,1-1,1Z"/>
      <path class="cls-9" d="M225.01,374.64h-57.23c-.55,0-1-.45-1-1s.45-1,1-1h57.23c.55,0,1,.45,1,1s-.45,1-1,1Z"/>
      <path class="cls-9" d="M163.23,374.64h-31.12c-.55,0-1-.45-1-1s.45-1,1-1h31.12c.55,0,1,.45,1,1s-.45,1-1,1Z"/>
    </g>
    <g>
      <g>
        <path class="cls-3" d="M330.01,302.24v-10.8s13.29,3.47,29.12,0v10.8c-15.84,3.47-29.12,0-29.12,0Z"/>
        <path class="cls-11" d="M330.01,309.46v-7.22s13.29,3.47,29.12,0v7.22c-15.84,3.47-29.12,0-29.12,0Z"/>
        <path class="cls-3" d="M330.01,374.03v-64.57s13.29,3.47,29.12,0v64.57c-15.84,3.47-29.12,0-29.12,0Z"/>
        <path class="cls-11" d="M330.01,382.06v-8.03s13.29,3.47,29.12,0v8.03c-15.84,3.47-29.12,0-29.12,0Z"/>
        <path class="cls-3" d="M330.01,391.06v-9.01s13.29,3.47,29.12,0v9.01c-5.28,1.16-10.27,1.54-14.58,1.54-8.62,0-14.54-1.54-14.54-1.54h0Z"/>
      </g>
      <path class="cls-9" d="M344.49,304.8c-8.51,0-14.37-1.49-14.73-1.59-.44-.12-.75-.51-.75-.97v-10.8c0-.31,.14-.6,.39-.79,.24-.19,.56-.25,.86-.18,.13,.03,13.26,3.36,28.66,0,.3-.07,.6,0,.84,.2,.24,.19,.37,.48,.37,.78v10.8c0,.47-.33,.88-.79,.98-5.4,1.18-10.48,1.58-14.86,1.58Zm-13.48-3.35c2.94,.63,14.15,2.65,27.12-.01v-8.76c-12.75,2.54-23.53,.77-27.12,.02v8.75Z"/>
      <path class="cls-9" d="M344.49,312.02c-8.51,0-14.37-1.49-14.73-1.59-.44-.12-.75-.51-.75-.97v-7.22c0-.31,.14-.6,.39-.79,.24-.19,.56-.26,.86-.18,.13,.03,13.26,3.36,28.66,0,.3-.07,.6,0,.84,.2,.24,.19,.37,.48,.37,.78v7.22c0,.47-.33,.88-.79,.98-5.4,1.18-10.48,1.58-14.86,1.58Zm-13.48-3.35c2.94,.63,14.15,2.66,27.12-.01v-5.18c-12.75,2.54-23.53,.77-27.12,.02v5.17Z"/>
      <path class="cls-9" d="M344.49,376.58c-8.51,0-14.37-1.49-14.73-1.58-.44-.12-.75-.51-.75-.97v-64.57c0-.31,.14-.6,.39-.79,.25-.19,.56-.25,.86-.18,.13,.03,13.26,3.37,28.66,0,.29-.07,.6,0,.84,.2,.24,.19,.37,.48,.37,.78v64.57c0,.47-.33,.88-.79,.98-5.4,1.18-10.48,1.58-14.86,1.58Zm-13.48-3.35c2.94,.63,14.15,2.65,27.12-.01v-62.52c-12.75,2.54-23.53,.77-27.12,.02v62.52Z"/>
      <path class="cls-9" d="M344.49,384.61c-8.51,0-14.37-1.49-14.73-1.58-.44-.12-.75-.51-.75-.97v-8.03c0-.31,.14-.6,.39-.79,.24-.19,.56-.26,.86-.18,.13,.03,13.26,3.36,28.66,0,.3-.07,.6,0,.84,.2,.24,.19,.37,.48,.37,.78v8.03c0,.47-.33,.88-.79,.98-5.4,1.18-10.48,1.58-14.86,1.58Zm-13.48-3.35c2.94,.63,14.15,2.65,27.12-.01v-5.99c-12.75,2.54-23.53,.77-27.12,.02v5.98Z"/>
      <path class="cls-9" d="M344.55,393.6c-8.45,0-14.26-1.44-14.76-1.57-.45-.1-.78-.5-.78-.97v-9.01c0-.31,.14-.6,.39-.79,.24-.19,.56-.25,.86-.18,.13,.03,13.26,3.36,28.66,0,.3-.07,.6,0,.84,.2,.24,.19,.37,.48,.37,.78v9.01c0,.47-.33,.88-.79,.98-4.73,1.04-9.71,1.56-14.79,1.56Zm-13.55-3.34c1.83,.39,6.89,1.34,13.55,1.34,4.66,0,9.22-.45,13.58-1.35v-6.97c-12.75,2.54-23.53,.77-27.12,.02v6.96Z"/>
      <g>
        <path class="cls-2" d="M330.01,291.45h29.12s-4.32,1.54-14.56,1.54-14.56-1.54-14.56-1.54Z"/>
        <path class="cls-9" d="M344.57,293.99c-10.3,0-14.71-1.53-14.9-1.6-.46-.16-.73-.63-.65-1.11,.08-.48,.5-.83,.99-.83h29.12c.49,0,.9,.35,.99,.83,.08,.48-.19,.95-.65,1.11-.18,.07-4.6,1.6-14.9,1.6Z"/>
      </g>
    </g>
    <g>
      <g>
        <path class="cls-1" d="M359.13,302.24v-10.8s13.29,3.47,29.12,0v10.8c-15.84,3.47-29.12,0-29.12,0Z"/>
        <path class="cls-11" d="M359.13,309.46v-7.22s13.29,3.47,29.12,0v7.22c-15.84,3.47-29.12,0-29.12,0Z"/>
        <path class="cls-1" d="M359.13,374.03v-64.57s13.29,3.47,29.12,0v64.57c-15.84,3.47-29.12,0-29.12,0Z"/>
        <path class="cls-11" d="M359.13,382.06v-8.03s13.29,3.47,29.12,0v8.03c-15.84,3.47-29.12,0-29.12,0Z"/>
        <path class="cls-1" d="M359.13,391.06v-9.01s13.29,3.47,29.12,0v9.01c-5.28,1.16-10.27,1.54-14.58,1.54-8.62,0-14.54-1.54-14.54-1.54h0Z"/>
      </g>
      <path class="cls-9" d="M373.61,304.8c-8.51,0-14.37-1.49-14.73-1.59-.44-.12-.75-.51-.75-.97v-10.8c0-.31,.14-.6,.39-.79,.24-.19,.56-.25,.86-.18,.13,.04,13.26,3.36,28.66,0,.3-.07,.6,0,.84,.2,.24,.19,.37,.48,.37,.78v10.8c0,.47-.33,.88-.79,.98-5.4,1.18-10.48,1.58-14.86,1.58Zm-13.48-3.35c2.94,.63,14.15,2.65,27.12-.01v-8.76c-12.75,2.54-23.53,.77-27.12,.02v8.75Z"/>
      <path class="cls-9" d="M373.61,312.02c-8.51,0-14.37-1.49-14.73-1.59-.44-.12-.75-.51-.75-.97v-7.22c0-.31,.14-.6,.39-.79,.24-.19,.56-.26,.86-.18,.13,.03,13.26,3.36,28.66,0,.3-.07,.6,0,.84,.2,.24,.19,.37,.48,.37,.78v7.22c0,.47-.33,.88-.79,.98-5.4,1.18-10.48,1.58-14.86,1.58Zm-13.48-3.35c2.94,.63,14.15,2.65,27.12-.01v-5.18c-12.75,2.54-23.53,.77-27.12,.02v5.17Z"/>
      <path class="cls-9" d="M373.61,376.58c-8.51,0-14.37-1.49-14.73-1.58-.44-.12-.75-.51-.75-.97v-64.57c0-.31,.14-.6,.39-.79,.25-.19,.56-.25,.86-.18,.13,.03,13.26,3.37,28.66,0,.29-.07,.6,0,.84,.2,.24,.19,.37,.48,.37,.78v64.57c0,.47-.33,.88-.79,.98-5.4,1.18-10.48,1.58-14.86,1.58Zm-13.48-3.35c2.94,.63,14.15,2.65,27.12-.01v-62.52c-12.75,2.54-23.53,.77-27.12,.02v62.52Z"/>
      <path class="cls-9" d="M373.61,384.61c-8.51,0-14.37-1.49-14.73-1.58-.44-.12-.75-.51-.75-.97v-8.03c0-.31,.14-.6,.39-.79,.24-.19,.56-.26,.86-.18,.13,.03,13.26,3.36,28.66,0,.3-.07,.6,0,.84,.2,.24,.19,.37,.48,.37,.78v8.03c0,.47-.33,.88-.79,.98-5.4,1.18-10.48,1.58-14.86,1.58Zm-13.48-3.35c2.94,.63,14.15,2.65,27.12-.01v-5.99c-12.75,2.54-23.53,.77-27.12,.02v5.98Z"/>
      <path class="cls-9" d="M373.68,393.6c-8.45,0-14.26-1.44-14.76-1.57-.45-.1-.78-.5-.78-.97v-9.01c0-.31,.14-.6,.39-.79,.24-.19,.56-.25,.86-.18,.13,.03,13.26,3.36,28.66,0,.3-.07,.6,0,.84,.2,.24,.19,.37,.48,.37,.78v9.01c0,.47-.33,.88-.79,.98-4.73,1.04-9.71,1.56-14.79,1.56Zm-13.54-3.34c1.83,.39,6.89,1.34,13.54,1.34,4.66,0,9.22-.45,13.58-1.35v-6.97c-12.75,2.54-23.53,.77-27.12,.02v6.96Z"/>
      <g>
        <path class="cls-2" d="M359.13,291.45h29.12s-4.32,1.54-14.56,1.54-14.56-1.54-14.56-1.54Z"/>
        <path class="cls-9" d="M373.69,293.99c-10.3,0-14.71-1.53-14.9-1.6-.46-.16-.73-.63-.65-1.11,.08-.48,.5-.83,.99-.83h29.12c.49,0,.9,.35,.99,.83,.08,.48-.19,.95-.65,1.11-.18,.07-4.6,1.6-14.9,1.6Z"/>
      </g>
    </g>
    <g>
      <g>
        <path class="cls-11" d="M300.89,302.24v-10.8s13.29,3.47,29.12,0v10.8c-15.84,3.47-29.12,0-29.12,0Z"/>
        <path class="cls-3" d="M300.89,309.46v-7.22s13.29,3.47,29.12,0v7.22c-15.84,3.47-29.12,0-29.12,0Z"/>
        <path class="cls-11" d="M300.89,374.03v-64.57s13.29,3.47,29.12,0v64.57c-15.84,3.47-29.12,0-29.12,0Z"/>
        <path class="cls-3" d="M300.89,382.06v-8.03s13.29,3.47,29.12,0v8.03c-15.84,3.47-29.12,0-29.12,0Z"/>
        <path class="cls-11" d="M300.89,391.06v-9.01s13.29,3.47,29.12,0v9.01c-5.28,1.16-10.27,1.54-14.58,1.54-8.62,0-14.54-1.54-14.54-1.54h0Z"/>
      </g>
      <path class="cls-9" d="M315.37,304.8c-8.51,0-14.37-1.49-14.73-1.59-.44-.12-.75-.51-.75-.97v-10.8c0-.31,.14-.6,.39-.79,.25-.19,.56-.25,.86-.18,.13,.04,13.26,3.36,28.66,0,.29-.07,.6,0,.84,.2,.24,.19,.37,.48,.37,.78v10.8c0,.47-.33,.88-.79,.98-5.4,1.18-10.48,1.58-14.86,1.58Zm-13.48-3.35c2.94,.63,14.15,2.65,27.12-.01v-8.76c-12.75,2.54-23.53,.77-27.12,.02v8.75Z"/>
      <path class="cls-9" d="M315.37,312.02c-8.51,0-14.37-1.49-14.73-1.59-.44-.12-.75-.51-.75-.97v-7.22c0-.31,.14-.6,.39-.79,.25-.19,.56-.26,.86-.18,.13,.03,13.26,3.36,28.66,0,.29-.07,.6,0,.84,.2,.24,.19,.37,.48,.37,.78v7.22c0,.47-.33,.88-.79,.98-5.4,1.18-10.48,1.58-14.86,1.58Zm-13.48-3.35c2.94,.63,14.15,2.65,27.12-.01v-5.18c-12.75,2.54-23.53,.77-27.12,.02v5.17Z"/>
      <path class="cls-9" d="M315.37,376.58c-8.51,0-14.37-1.49-14.73-1.58-.44-.12-.75-.51-.75-.97v-64.57c0-.31,.14-.6,.39-.79,.25-.19,.56-.25,.86-.18,.13,.03,13.26,3.37,28.66,0,.29-.07,.6,0,.84,.2,.24,.19,.37,.48,.37,.78v64.57c0,.47-.33,.88-.79,.98-5.4,1.18-10.48,1.58-14.86,1.58Zm-13.48-3.35c2.94,.63,14.15,2.65,27.12-.01v-62.52c-12.75,2.54-23.53,.77-27.12,.02v62.52Z"/>
      <path class="cls-9" d="M315.37,384.61c-8.51,0-14.37-1.49-14.73-1.58-.44-.12-.75-.51-.75-.97v-8.03c0-.31,.14-.6,.39-.79,.25-.19,.56-.26,.86-.18,.13,.03,13.26,3.36,28.66,0,.29-.07,.6,0,.84,.2,.24,.19,.37,.48,.37,.78v8.03c0,.47-.33,.88-.79,.98-5.4,1.18-10.48,1.58-14.86,1.58Zm-13.48-3.35c2.94,.63,14.15,2.65,27.12-.01v-5.99c-12.75,2.54-23.53,.77-27.12,.02v5.98Z"/>
      <path class="cls-9" d="M315.43,393.6c-8.45,0-14.26-1.44-14.76-1.57-.45-.1-.78-.5-.78-.97v-9.01c0-.31,.14-.6,.39-.79,.25-.19,.56-.25,.86-.18,.13,.03,13.26,3.36,28.66,0,.29-.07,.6,0,.84,.2,.24,.19,.37,.48,.37,.78v9.01c0,.47-.33,.88-.79,.98-4.73,1.04-9.71,1.56-14.79,1.56Zm-13.54-3.34c1.83,.39,6.89,1.34,13.54,1.34,4.66,0,9.22-.45,13.58-1.35v-6.97c-12.75,2.54-23.53,.77-27.12,.02v6.96Z"/>
      <g>
        <path class="cls-2" d="M300.89,291.45h29.12s-4.32,1.54-14.56,1.54-14.56-1.54-14.56-1.54Z"/>
        <path class="cls-9" d="M315.45,293.99c-10.3,0-14.71-1.53-14.9-1.6-.46-.16-.73-.63-.65-1.11,.08-.48,.5-.83,.99-.83h29.12c.49,0,.9,.35,.99,.83,.08,.48-.19,.95-.65,1.11-.18,.07-4.6,1.6-14.9,1.6Z"/>
      </g>
    </g>
    <g>
      <path class="cls-2" d="M155.63,149.25c.11,11,5.39,21.26,5.39,21.26-15.27-3.12-24.69-9.47-29.08-13.13-3.39,.5-6.89,.76-10.45,.76-34.79,0-63-24.96-63-55.74s28.21-55.75,63-55.75,63.01,24.96,63.01,55.75c0,19.65-11.5,36.93-28.87,46.85Z"/>
      <path class="cls-9" d="M161.02,171.51c-.07,0-.13,0-.2-.02-15.19-3.11-24.69-9.39-29.18-13.06-3.35,.47-6.76,.71-10.15,.71-35.29,0-64-25.45-64-56.74s28.71-56.75,64-56.75,64.01,25.46,64.01,56.75c0,19.19-10.77,36.88-28.86,47.42,.28,10.41,5.21,20.13,5.27,20.23,.18,.34,.14,.75-.09,1.06-.19,.25-.49,.4-.8,.4Zm-29.08-15.13c.23,0,.46,.08,.64,.23,4,3.34,12.67,9.27,26.68,12.49-1.53-3.49-4.54-11.39-4.63-19.84,0-.36,.19-.7,.5-.88,17.76-10.15,28.37-27.34,28.37-45.98,0-30.19-27.82-54.75-62.01-54.75s-62,24.56-62,54.75,27.81,54.74,62,54.74c3.45,0,6.91-.25,10.3-.75,.05,0,.1-.01,.15-.01Z"/>
    </g>
    <g>
      <g>
        <rect class="cls-2" x="81.64" y="46.12" width="65.68" height="94.48" transform="translate(-27.36 52.09) rotate(-22.97)"/>
        <path class="cls-9" d="M102.68,150.67c-.13,0-.25-.02-.37-.07-.25-.1-.44-.29-.55-.54L64.88,63.08c-.22-.51,.02-1.1,.53-1.31l60.47-25.64c.51-.21,1.1,.02,1.31,.53l36.88,86.98c.22,.51-.02,1.1-.53,1.31l-60.47,25.64c-.12,.05-.26,.08-.39,.08ZM67.12,63.22l36.1,85.14,58.63-24.86L125.75,38.36l-58.63,24.86Z"/>
      </g>
      <g>
        <rect class="cls-2" x="95.18" y="39.65" width="65.68" height="94.48" transform="translate(-11.53 20.06) rotate(-8.58)"/>
        <path class="cls-9" d="M102.59,139.49c-.21,0-.42-.07-.59-.2-.21-.16-.36-.39-.39-.66l-14.09-93.42c-.04-.26,.03-.53,.18-.74,.16-.21,.39-.36,.66-.39l64.95-9.8c.54-.09,1.06,.29,1.14,.84l14.09,93.42c.08,.55-.29,1.06-.84,1.14l-64.95,9.8s-.1,.01-.15,.01Zm-12.95-93.58l13.79,91.44,62.97-9.5-13.79-91.44-62.97,9.5Z"/>
      </g>
      <rect class="cls-9" x="94.41" y="51.09" width="56.86" height="3.03" transform="translate(-6.47 18.91) rotate(-8.58)"/>
      <rect class="cls-9" x="95.54" y="58.58" width="56.86" height="3.03" transform="translate(-7.58 19.16) rotate(-8.58)"/>
      <rect class="cls-9" x="96.83" y="68.14" width="29.12" height="3.03" transform="translate(-9.14 17.39) rotate(-8.58)"/>
      <g>
        <rect class="cls-2" x="98.61" y="77.09" width="10.19" height="10.19" transform="translate(-11.1 16.38) rotate(-8.58)"/>
        <path class="cls-9" d="M99.43,88.98c-.49,0-.91-.36-.99-.85l-1.52-10.08c-.08-.55,.29-1.06,.84-1.14l10.08-1.52c.54-.08,1.06,.29,1.14,.84l1.52,10.08c.08,.55-.29,1.06-.84,1.14l-10.08,1.52c-.05,0-.1,.01-.15,.01Zm-.38-10.24l1.22,8.1,8.1-1.22-1.22-8.1-8.1,1.22Z"/>
      </g>
      <g>
        <rect class="cls-2" x="113.8" y="74.79" width="10.19" height="10.19" transform="translate(-10.58 18.62) rotate(-8.58)"/>
        <path class="cls-9" d="M114.62,86.69c-.49,0-.91-.36-.99-.85l-1.52-10.08c-.08-.55,.29-1.06,.84-1.14l10.08-1.52c.54-.09,1.06,.29,1.14,.84l1.52,10.08c.08,.55-.29,1.06-.84,1.14l-10.08,1.52c-.05,0-.1,.01-.15,.01Zm-.38-10.24l1.22,8.1,8.1-1.22-1.22-8.1-8.1,1.22Z"/>
      </g>
      <g>
        <rect class="cls-2" x="129.31" y="72.46" width="10.19" height="10.19" transform="translate(-10.06 20.91) rotate(-8.58)"/>
        <path class="cls-9" d="M130.13,84.35c-.49,0-.91-.36-.99-.85l-1.52-10.08c-.08-.55,.29-1.06,.84-1.14l10.08-1.52c.54-.08,1.06,.29,1.14,.84l1.52,10.08c.08,.55-.29,1.06-.84,1.14l-10.08,1.52c-.05,0-.1,.01-.15,.01Zm-.38-10.24l1.22,8.1,8.1-1.22-1.22-8.1-8.1,1.22Z"/>
      </g>
      <g>
        <rect class="cls-2" x="144.76" y="70.13" width="10.19" height="10.19" transform="translate(-9.54 23.19) rotate(-8.58)"/>
        <path class="cls-9" d="M145.58,82.02c-.21,0-.42-.07-.59-.2-.21-.16-.36-.39-.39-.66l-1.52-10.08c-.08-.55,.29-1.06,.84-1.14l10.08-1.52c.54-.08,1.06,.29,1.14,.84l1.52,10.08c.08,.55-.29,1.06-.84,1.14l-10.08,1.52s-.1,.01-.15,.01Zm-.38-10.24l1.22,8.1,8.1-1.22-1.22-8.1-8.1,1.22Z"/>
      </g>
      <polygon class="cls-1" points="103.33 86.3 97.9 82 100.24 79.03 102.61 80.9 107.55 74.21 110.59 76.46 103.33 86.3"/>
      <rect class="cls-9" x="99.76" y="89.78" width="56.86" height="3.03" transform="translate(-12.18 20.14) rotate(-8.58)"/>
      <rect class="cls-9" x="100.89" y="97.27" width="56.86" height="3.03" transform="translate(-13.29 20.39) rotate(-8.58)"/>
      <rect class="cls-9" x="102.18" y="106.83" width="29.12" height="3.03" transform="translate(-14.85 18.62) rotate(-8.58)"/>
      <g>
        <rect class="cls-2" x="103.96" y="115.77" width="10.19" height="10.19" transform="translate(-16.81 17.62) rotate(-8.58)"/>
        <path class="cls-9" d="M104.78,127.66c-.49,0-.91-.36-.99-.85l-1.52-10.08c-.08-.55,.29-1.06,.84-1.14l10.08-1.52c.54-.09,1.06,.29,1.14,.84l1.52,10.08c.08,.55-.29,1.06-.84,1.14l-10.08,1.52c-.05,0-.1,.01-.15,.01Zm-.38-10.24l1.22,8.1,8.1-1.22-1.22-8.1-8.1,1.22Z"/>
      </g>
      <g>
        <rect class="cls-2" x="119.15" y="113.48" width="10.19" height="10.19" transform="translate(-16.29 19.85) rotate(-8.58)"/>
        <path class="cls-9" d="M119.97,125.37c-.21,0-.42-.07-.59-.2-.21-.16-.36-.39-.4-.66l-1.52-10.08c-.08-.55,.29-1.06,.84-1.14l10.08-1.52c.54-.09,1.06,.29,1.14,.84l1.52,10.08c.08,.55-.29,1.06-.84,1.14l-10.08,1.52s-.1,.01-.15,.01Zm-.38-10.24l1.22,8.1,8.1-1.22-1.22-8.1-8.1,1.22Z"/>
      </g>
      <g>
        <rect class="cls-2" x="134.66" y="111.14" width="10.19" height="10.19" transform="translate(-15.77 22.14) rotate(-8.58)"/>
        <path class="cls-9" d="M135.48,123.03c-.49,0-.91-.36-.99-.85l-1.52-10.08c-.08-.55,.29-1.06,.84-1.14l10.08-1.52c.54-.09,1.06,.29,1.14,.84l1.52,10.08c.08,.55-.29,1.06-.84,1.14l-10.08,1.52c-.05,0-.1,.01-.15,.01Zm-.38-10.24l1.22,8.1,8.1-1.22-1.22-8.1-8.1,1.22Z"/>
      </g>
      <g>
        <rect class="cls-2" x="150.11" y="108.81" width="10.19" height="10.19" transform="translate(-15.25 24.42) rotate(-8.58)"/>
        <path class="cls-9" d="M150.93,120.7c-.49,0-.91-.36-.99-.85l-1.52-10.08c-.08-.55,.29-1.06,.84-1.14l10.08-1.52c.54-.08,1.06,.29,1.14,.84l1.52,10.08c.08,.55-.29,1.06-.84,1.14l-10.08,1.52c-.05,0-.1,.01-.15,.01Zm-.38-10.24l1.22,8.1,8.1-1.22-1.22-8.1-8.1,1.22Z"/>
      </g>
      <polygon class="cls-1" points="140.38 119.52 134.94 115.23 137.29 112.26 139.65 114.13 144.59 107.44 147.64 109.69 140.38 119.52"/>
    </g>
    <g>
      <path class="cls-2" d="M327.76,139.98c-.08,7.36-3.6,14.22-3.6,14.22,10.22-2.09,16.52-6.33,19.46-8.79,2.27,.33,4.61,.51,6.99,.51,23.28,0,42.16-16.7,42.16-37.3s-18.88-37.3-42.16-37.3-42.16,16.7-42.16,37.3c0,13.15,7.7,24.71,19.32,31.35Z"/>
      <path class="cls-9" d="M324.15,155.21c-.31,0-.61-.14-.8-.4-.23-.31-.27-.72-.09-1.06,.03-.06,3.24-6.39,3.48-13.2-12.1-7.13-19.3-19.02-19.3-31.92,0-21.12,19.36-38.3,43.16-38.3s43.16,17.18,43.16,38.3-19.36,38.3-43.16,38.3c-2.24,0-4.49-.15-6.7-.46-3.07,2.48-9.44,6.65-19.55,8.71-.07,.01-.13,.02-.2,.02Zm26.45-82.87c-22.7,0-41.16,16.28-41.16,36.3,0,12.36,7.03,23.75,18.81,30.48,.31,.18,.51,.52,.5,.88-.06,5.26-1.78,10.21-2.86,12.8,8.93-2.17,14.48-5.98,17.08-8.14,.22-.18,.51-.26,.79-.22,2.25,.33,4.56,.5,6.85,.5,22.69,0,41.16-16.28,41.16-36.3s-18.46-36.3-41.16-36.3Z"/>
    </g>
    <g>
      <g>
        <rect class="cls-2" x="326.5" y="85.5" width="19.22" height="19.22"/>
        <path class="cls-9" d="M345.72,105.73h-19.22c-.55,0-1-.45-1-1v-19.22c0-.55,.45-1,1-1h19.22c.55,0,1,.45,1,1v19.22c0,.55-.45,1-1,1Zm-18.22-2h17.22v-17.22h-17.22v17.22Z"/>
      </g>
      <g>
        <rect class="cls-2" x="355.72" y="85.5" width="19.22" height="19.22"/>
        <path class="cls-9" d="M374.94,105.73h-19.22c-.55,0-1-.45-1-1v-19.22c0-.55,.45-1,1-1h19.22c.55,0,1,.45,1,1v19.22c0,.55-.45,1-1,1Zm-18.22-2h17.22v-17.22h-17.22v17.22Z"/>
      </g>
      <g>
        <rect class="cls-2" x="326.5" y="111.03" width="19.22" height="19.22"/>
        <path class="cls-9" d="M345.72,131.25h-19.22c-.55,0-1-.45-1-1v-19.22c0-.55,.45-1,1-1h19.22c.55,0,1,.45,1,1v19.22c0,.55-.45,1-1,1Zm-18.22-2h17.22v-17.22h-17.22v17.22Z"/>
      </g>
      <g>
        <rect class="cls-2" x="355.72" y="111.03" width="19.22" height="19.22"/>
        <path class="cls-9" d="M374.94,131.25h-19.22c-.55,0-1-.45-1-1v-19.22c0-.55,.45-1,1-1h19.22c.55,0,1,.45,1,1v19.22c0,.55-.45,1-1,1Zm-18.22-2h17.22v-17.22h-17.22v17.22Z"/>
      </g>
      <polygon class="cls-1" points="334.84 102.69 325.91 93.15 331.12 88.27 335.01 92.42 346.1 81.33 351.15 86.39 334.84 102.69"/>
    </g>
  </g>
</svg>