<?xml version="1.0" encoding="UTF-8"?>
<svg id="Layer_2" data-name="Layer 2" xmlns="http://www.w3.org/2000/svg" xmlns:xlink="http://www.w3.org/1999/xlink" viewBox="0 0 500 500">
  <defs>
    <style>
      .cls-1 {
        fill: #e2795d;
      }

      .cls-2 {
        fill: #fff;
      }

      .cls-3 {
        fill: #7e9fcc;
      }

      .cls-4 {
        fill: #f1cecd;
      }

      .cls-5 {
        fill: #ebb0b0;
      }

      .cls-6 {
        fill: #65718b;
      }

      .cls-7 {
        fill: #aabbc9;
      }

      .cls-8 {
        fill: #2a344a;
      }

      .cls-9 {
        fill: #ecb84c;
      }

      .cls-10 {
        clip-path: url(#clippath);
      }

      .cls-11 {
        fill: none;
      }
    </style>
    <clipPath id="clippath">
      <rect class="cls-11" width="500" height="500"/>
    </clipPath>
  </defs>
  <g id="OBJECTS">
    <g>
      <path class="cls-8" d="M401.51,120.2c-.3,0-.6-.13-.79-.39-.34-.44-.26-1.07,.18-1.4,.93-.72,1.83-1.45,2.67-2.17,.42-.36,1.05-.31,1.41,.11,.36,.42,.31,1.05-.11,1.41-.87,.75-1.8,1.5-2.76,2.24-.18,.14-.4,.21-.61,.21Z"/>
      <path class="cls-8" d="M63.4,306.48c-.24,0-.49-.09-.68-.27-1.74-1.61-3.44-3.31-5.07-5.05-.38-.4-.35-1.04,.05-1.41,.4-.38,1.04-.35,1.41,.05,1.59,1.71,3.26,3.37,4.96,4.95,.41,.38,.43,1.01,.05,1.41-.2,.21-.46,.32-.73,.32Zm-9.65-10.36c-.29,0-.58-.13-.78-.37-1.48-1.84-2.93-3.77-4.29-5.73-.32-.45-.2-1.08,.25-1.39,.45-.32,1.08-.2,1.39,.25,1.34,1.92,2.75,3.81,4.21,5.61,.35,.43,.28,1.06-.15,1.41-.19,.15-.41,.22-.63,.22Zm-8.1-11.62c-.34,0-.67-.17-.86-.49-1.22-2.03-2.39-4.14-3.47-6.25-.25-.49-.06-1.09,.43-1.35,.49-.25,1.09-.06,1.35,.43,1.07,2.08,2.21,4.14,3.41,6.14,.28,.47,.13,1.09-.34,1.37-.16,.1-.34,.14-.51,.14Zm-6.47-12.6c-.39,0-.75-.23-.92-.6-.94-2.17-1.83-4.41-2.63-6.65-.19-.52,.08-1.09,.6-1.28,.52-.19,1.09,.08,1.28,.6,.79,2.2,1.66,4.39,2.58,6.53,.22,.51-.01,1.1-.52,1.32-.13,.06-.26,.08-.4,.08Zm-4.79-13.33c-.43,0-.83-.29-.96-.72-.66-2.28-1.25-4.61-1.76-6.93-.12-.54,.22-1.07,.76-1.19,.54-.12,1.07,.22,1.19,.76,.5,2.28,1.09,4.57,1.73,6.8,.15,.53-.15,1.08-.68,1.24-.09,.03-.19,.04-.28,.04Zm-3.06-13.83c-.48,0-.91-.35-.99-.85-.36-2.35-.66-4.73-.87-7.1-.05-.55,.36-1.04,.91-1.09,.56-.05,1.04,.36,1.09,.91,.21,2.32,.5,4.66,.86,6.97,.08,.55-.29,1.06-.83,1.14-.05,0-.1,.01-.15,.01Zm-1.27-14.11c-.54,0-.99-.43-1-.97-.02-.92-.04-1.85-.04-2.77,0-1.45,.03-2.93,.09-4.38,.02-.55,.5-.99,1.04-.96,.55,.02,.98,.49,.96,1.04-.06,1.42-.09,2.87-.09,4.3,0,.91,.01,1.81,.03,2.72,.01,.55-.42,1.01-.97,1.03h-.03Zm.58-14.15s-.07,0-.11,0c-.55-.06-.95-.55-.89-1.1,.15-1.35,.32-2.71,.52-4.04,.15-1.02,.31-2.03,.49-3.04,.1-.54,.62-.9,1.16-.81,.54,.1,.91,.62,.81,1.16-.18,.99-.34,1.99-.48,2.98-.19,1.3-.36,2.64-.51,3.97-.06,.51-.49,.89-.99,.89Zm2.46-13.95c-.08,0-.16,0-.24-.03-.54-.13-.87-.67-.73-1.21,.56-2.29,1.2-4.61,1.91-6.89,.16-.53,.73-.82,1.25-.66,.53,.16,.82,.72,.66,1.25-.7,2.24-1.33,4.51-1.88,6.77-.11,.46-.52,.76-.97,.76Zm4.2-13.52c-.12,0-.24-.02-.35-.07-.52-.2-.78-.77-.58-1.29,.84-2.21,1.76-4.43,2.73-6.6,.23-.5,.82-.73,1.32-.5,.5,.23,.73,.82,.5,1.32-.96,2.13-1.86,4.32-2.69,6.49-.15,.4-.53,.65-.93,.65Zm5.81-12.92c-.16,0-.31-.04-.46-.11-.49-.26-.68-.86-.42-1.35,1.09-2.1,2.27-4.19,3.49-6.23,.28-.47,.9-.63,1.37-.35,.47,.28,.63,.9,.35,1.37-1.2,2.01-2.35,4.07-3.43,6.13-.18,.34-.53,.54-.89,.54Zm7.26-12.16c-.19,0-.39-.06-.56-.17-.46-.31-.58-.93-.27-1.39,1.33-1.96,2.73-3.91,4.16-5.8,.33-.44,.96-.53,1.4-.19,.44,.33,.53,.96,.19,1.4-1.42,1.86-2.79,3.78-4.1,5.71-.19,.29-.51,.44-.83,.44Zm8.57-11.28c-.23,0-.46-.08-.65-.24-.42-.36-.47-.99-.11-1.41,1.53-1.8,3.14-3.59,4.77-5.31,.38-.4,1.01-.42,1.41-.04,.4,.38,.42,1.01,.04,1.41-1.61,1.7-3.19,3.46-4.7,5.23-.2,.23-.48,.35-.76,.35Zm255.75-5.82h0c-2.46-.02-4.87-.12-7.15-.31-.55-.04-.96-.53-.92-1.08,.04-.55,.52-.96,1.08-.92,2.24,.18,4.59,.28,7.01,.3,.55,0,1,.46,.99,1.01,0,.55-.45,.99-1,.99Zm7.09-.16c-.53,0-.97-.41-1-.95-.03-.55,.39-1.02,.95-1.05,2.28-.12,4.64-.31,7.01-.55,.55-.06,1.04,.34,1.1,.89,.06,.55-.34,1.04-.89,1.1-2.41,.25-4.8,.44-7.12,.56-.02,0-.04,0-.05,0Zm-21.19-1.02c-.06,0-.12,0-.17-.02-2.38-.42-4.65-.95-6.74-1.58l-.27-.08c-.53-.16-.82-.72-.66-1.25,.16-.53,.72-.82,1.25-.66l.25,.08c2.02,.61,4.21,1.12,6.51,1.53,.54,.1,.91,.61,.81,1.16-.09,.49-.51,.83-.98,.83Zm35.29-.43c-.49,0-.91-.36-.99-.85-.08-.55,.29-1.06,.84-1.14,2.29-.34,4.63-.75,6.94-1.19,.54-.11,1.07,.25,1.17,.79,.11,.54-.25,1.07-.79,1.17-2.34,.45-4.71,.86-7.03,1.21-.05,0-.1,.01-.15,.01Zm13.92-2.69c-.45,0-.86-.31-.97-.77-.13-.54,.21-1.08,.75-1.2,2.27-.53,4.57-1.12,6.83-1.75,.54-.14,1.08,.17,1.23,.7,.15,.53-.17,1.08-.7,1.23-2.28,.63-4.61,1.22-6.91,1.76-.08,.02-.15,.03-.23,.03Zm-281.11-.15c-.27,0-.53-.11-.73-.31-.38-.4-.36-1.03,.04-1.41,1.72-1.63,3.51-3.23,5.32-4.77,.42-.36,1.05-.31,1.41,.12,.36,.42,.31,1.05-.12,1.41-1.78,1.51-3.54,3.09-5.23,4.69-.19,.18-.44,.27-.69,.27Zm218.27-.54c-.11,0-.22-.02-.32-.05-2.15-.73-4.41-1.54-6.7-2.39-.52-.19-.78-.77-.59-1.29,.19-.52,.77-.78,1.29-.59,2.28,.84,4.51,1.64,6.65,2.37,.52,.18,.8,.75,.62,1.27-.14,.42-.53,.68-.95,.68Zm76.51-3.08c-.42,0-.82-.27-.95-.7-.17-.53,.12-1.09,.65-1.26,2.25-.72,4.5-1.48,6.67-2.27,.52-.19,1.09,.08,1.28,.6,.19,.52-.08,1.09-.6,1.28-2.2,.8-4.46,1.57-6.74,2.3-.1,.03-.2,.05-.3,.05Zm-89.8-1.84c-.12,0-.25-.02-.37-.07-2.2-.87-4.39-1.76-6.58-2.67-.51-.21-.75-.8-.54-1.31,.21-.51,.8-.75,1.31-.54,2.18,.9,4.36,1.79,6.55,2.66,.51,.2,.76,.78,.56,1.3-.16,.39-.53,.63-.93,.63Zm103.11-3.01c-.39,0-.76-.23-.92-.62-.21-.51,.03-1.1,.54-1.31,2.21-.92,4.38-1.87,6.44-2.85,.5-.24,1.09-.02,1.33,.48,.24,.5,.02,1.1-.48,1.33-2.09,.99-4.29,1.96-6.53,2.89-.12,.05-.25,.08-.38,.08Zm-297.29-.69c-.3,0-.6-.14-.8-.39-.33-.44-.25-1.07,.19-1.4,1.89-1.44,3.84-2.84,5.8-4.16,.46-.31,1.08-.19,1.39,.27,.31,.46,.19,1.08-.27,1.39-1.93,1.31-3.85,2.68-5.71,4.1-.18,.14-.39,.2-.6,.2Zm181.08-1.7c-.13,0-.26-.03-.39-.08-2.17-.92-4.35-1.86-6.52-2.79-.51-.22-.74-.81-.52-1.31,.22-.51,.8-.74,1.31-.52,2.17,.93,4.34,1.86,6.51,2.79,.51,.22,.75,.8,.53,1.31-.16,.38-.53,.61-.92,.61Zm129.02-3.68c-.35,0-.7-.19-.88-.52-.26-.49-.08-1.09,.4-1.36,2.13-1.15,4.16-2.35,6.05-3.55,.47-.3,1.08-.16,1.38,.31,.3,.47,.16,1.08-.31,1.38-1.93,1.23-4.01,2.45-6.17,3.62-.15,.08-.32,.12-.48,.12Zm-142.04-1.9c-.13,0-.26-.03-.39-.08-2.17-.93-4.34-1.85-6.52-2.76-.51-.21-.75-.8-.54-1.31,.21-.51,.8-.75,1.31-.54,2.18,.91,4.36,1.83,6.53,2.76,.51,.22,.74,.8,.53,1.31-.16,.38-.53,.61-.92,.61Zm-156.32-.66c-.34,0-.67-.17-.86-.49-.28-.47-.13-1.09,.34-1.37,1.33-.8,2.7-1.58,4.05-2.33,.72-.4,1.45-.79,2.17-1.17,.49-.26,1.09-.07,1.35,.42,.26,.49,.07,1.09-.42,1.35-.72,.38-1.43,.76-2.14,1.15-1.34,.73-2.68,1.5-3.99,2.29-.16,.1-.34,.14-.51,.14Zm143.23-4.79c-.12,0-.25-.02-.37-.07-2.31-.93-4.47-1.77-6.58-2.57-.52-.2-.78-.77-.58-1.29,.19-.52,.77-.78,1.29-.58,2.13,.81,4.29,1.65,6.62,2.58,.51,.21,.76,.79,.56,1.3-.16,.39-.53,.63-.93,.63Zm-130.7-1.81c-.38,0-.74-.22-.91-.58-.23-.5-.01-1.1,.49-1.33,2.14-.99,4.35-1.93,6.56-2.81,.51-.2,1.09,.05,1.3,.56,.2,.51-.05,1.09-.56,1.3-2.18,.87-4.35,1.8-6.46,2.77-.14,.06-.28,.09-.42,.09Zm117.44-3.2c-.11,0-.22-.02-.33-.06-2.28-.8-4.53-1.54-6.69-2.22-.53-.16-.82-.73-.65-1.25,.16-.53,.73-.82,1.25-.65,2.18,.68,4.45,1.44,6.75,2.24,.52,.18,.8,.75,.61,1.27-.14,.41-.53,.67-.94,.67Zm-104.28-2.05c-.42,0-.81-.26-.95-.68-.18-.52,.1-1.09,.62-1.27,2.24-.76,4.53-1.48,6.81-2.13,.53-.15,1.08,.16,1.24,.69,.15,.53-.16,1.09-.69,1.24-2.25,.64-4.51,1.35-6.71,2.1-.11,.04-.22,.05-.32,.05Zm90.76-2.18c-.09,0-.18-.01-.26-.04-.57-.16-1.15-.31-1.72-.46-1.69-.44-3.41-.86-5.11-1.25-.54-.12-.88-.66-.75-1.2,.12-.54,.66-.88,1.2-.75,1.72,.39,3.46,.81,5.17,1.26,.58,.15,1.16,.31,1.74,.47,.53,.15,.85,.69,.7,1.23-.12,.44-.52,.74-.96,.74Zm-77.14-1.71c-.45,0-.86-.31-.97-.77-.13-.54,.21-1.08,.75-1.2,2.29-.54,4.64-1.03,6.98-1.46,.55-.1,1.06,.26,1.16,.8,.1,.54-.26,1.06-.8,1.16-2.31,.42-4.63,.91-6.89,1.44-.08,.02-.15,.03-.23,.03Zm63.32-1.42c-.06,0-.12,0-.18-.02-2.3-.41-4.64-.78-6.96-1.1-.55-.07-.93-.58-.86-1.12,.07-.55,.58-.94,1.12-.86,2.35,.32,4.72,.69,7.04,1.11,.54,.1,.9,.62,.81,1.16-.09,.48-.51,.82-.98,.82Zm-49.39-1.15c-.49,0-.92-.36-.99-.87-.07-.55,.31-1.05,.86-1.13,2.34-.32,4.72-.59,7.09-.8,.57-.04,1.04,.36,1.08,.91,.05,.55-.36,1.04-.91,1.09-2.34,.21-4.69,.47-7,.79-.05,0-.09,0-.14,0Zm35.35-.75s-.06,0-.09,0c-2.33-.21-4.69-.37-7.02-.48-.55-.03-.98-.49-.95-1.05,.03-.55,.51-.96,1.04-.95,2.37,.11,4.76,.27,7.11,.49,.55,.05,.96,.54,.91,1.09-.05,.52-.48,.91-1,.91Zm-21.24-.51c-.53,0-.97-.42-1-.96-.02-.55,.4-1.02,.96-1.04,2.27-.1,4.58-.15,6.87-.15h.26c.55,0,1,.45,1,1s-.45,1-1,1h-.26c-2.26,0-4.54,.05-6.78,.15-.01,0-.03,0-.04,0Z"/>
      <path class="cls-8" d="M71.59,313.25c-.21,0-.41-.06-.59-.19-.94-.69-1.89-1.41-2.81-2.15-.43-.34-.5-.97-.16-1.41,.34-.43,.97-.5,1.41-.16,.91,.72,1.83,1.43,2.75,2.1,.45,.33,.54,.95,.21,1.4-.2,.27-.5,.41-.81,.41Z"/>
    </g>
    <g>
      <g>
        <path class="cls-3" d="M422.72,197.93c3.24,6.7-1.45,24.66-5.27,31.6-2.88,5.22-50.5,25.9-73.89,35.82,7.03-29.35,4.03-67.52,2.77-79.9,5.82-.65,10.08-1.07,10.08-1.07l-2.95-3.77c20.31,4.1,47.62,4.2,58.37,4.06,5.89,6.61,10.09,11.61,10.89,13.24Z"/>
        <path class="cls-2" d="M411.83,184.68c-10.75,.14-38.06,.03-58.37-4.06l-12-15.33,2.34-1.83c9.42,7.23,20.74,2.24,20.74,2.24,0,0-1.96-18.88-4.34-36.22,5.6,5.86,35.19,36.79,51.64,55.2Z"/>
        <path class="cls-1" d="M360.2,129.48c2.38,17.34,4.34,36.22,4.34,36.22,0,0-11.32,4.99-20.74-2.24l-.26-27.61-.19-20.27s-2.1-15.16-4.31-21.82c0,0,12,1.64,15.76,7.94,1.6,2.7,3.62,14.81,5.39,27.78Z"/>
        <path class="cls-3" d="M284.9,402.37c-.9-10.54-1.98-23.18-3.12-36.5,27.97-15.24,42.39-42.59,48.28-56.79l-.31,16.69,17.24,94.49c-2.33,.86-4.75,1.64-7.23,2.36-23.49,6.87-52.46,8.16-52.46,8.16,0,0-.95-11.47-2.39-28.42Z"/>
        <path class="cls-2" d="M346.33,185.46c1.26,12.38,4.25,50.55-2.77,79.9-7.7,3.26-12.78,5.36-12.78,5.36l-.72,38.37c-5.89,14.19-20.31,41.54-48.28,56.79-3.17-36.51-6.91-78.07-8.89-95-.17-1.46-.33-2.95-.46-4.44,0,0,0-.09-.02-.22-.02-.1-.02-.21-.02-.31-.1-3.89-.71-27.95,5.01-37.06,6.22-9.94,22.49-3.6,22.49-3.6,0,0,4.55-10.52-2.15-27.28-1.4-3.5-3.15-6.65-5.08-9.46,12.28-1.58,25.68,1.31,25.68,1.31,6.84-1.72,19.22-3.34,27.99-4.34Z"/>
        <path class="cls-3" d="M339.75,422.63l6.6,41.53H144.34l6.6-41.53c23.49,6.87,52.46,8.16,52.46,8.16,0,0,.95-11.47,2.39-28.42,0,0,20.77,8.16,39.51,8.16h.09c18.41,0,38.75-7.87,39.51-8.16,1.45,16.95,2.39,28.42,2.39,28.42,0,0,28.97-1.29,52.46-8.16Z"/>
        <path class="cls-2" d="M331.48,146.66c3.36-4.5,7.75-8.06,12.06-10.8l.26,27.61-2.34,1.83-12.11-15.47c.64-1.1,1.34-2.15,2.14-3.17Z"/>
        <path class="cls-4" d="M343.35,115.58l.19,20.27c-4.31,2.74-8.7,6.3-12.06,10.8l-5.18-7.37s-9.25-1.62-12.99-6.05c-3.74-4.43-8.2-17-8.2-17l4.67-3.29s-.69-4.6-1.69-8.9c-.98-4.32-6.51-5.15-6.51-5.15,0,0,6.34-6.25,8.85-8.15,2.51-1.88,6.34-.78,6.34-.78,2.91-2.72,7.3-1.21,7.3-1.21,3.65-2.29,6.65,.07,6.65,.07,0,0,4.43-.65,7.01,2.1,.43,.47,.88,1.46,1.31,2.82,2.2,6.67,4.31,21.82,4.31,21.82Z"/>
        <path class="cls-1" d="M198.99,100.12c2.2,.19,4.82,.4,7.92,.59,4.55,.28,10.09,.53,16.78,.72-1.38,1.21-2.77,2.41-4.15,3.62-.46,.4-.96,.86-1,1.48-.05,1.02,1.12,1.58,2.1,1.84,8.01,2.12,16.79,1.19,24.2-2.51-1.36,2.43-2.74,4.86-4.1,7.29-.33,.57-.65,1.31-.29,1.86,.43,.65,1.41,.52,2.15,.29,8.99-2.77,17.33-7.54,24.28-13.86,6.68-.19,12.21-.43,16.76-.72,4.03-.24,7.27-.52,9.83-.76,5.79-.57,8.11-1.05,8.11-1.05,0,0,5.53,.83,6.51,5.15,1,4.31,1.69,8.9,1.69,8.9l-4.67,3.29s-4.29,1.33-11.88,2.86c-2.03,.41-4.32,.83-6.8,1.24-1.67,.29-3.43,.57-5.27,.83-9.68,1.41-21.86,2.57-35.77,2.57h-.09c-13.26,0-24.94-1.05-34.38-2.36-2.39-.33-4.65-.69-6.75-1.05-1.62-.26-3.15-.53-4.56-.81-8.94-1.71-14.02-3.27-14.02-3.27l-4.67-3.29s.69-4.6,1.67-8.9c.98-4.32,6.53-5.15,6.53-5.15,0,0,2.81,.59,9.87,1.22Z"/>
        <path class="cls-3" d="M272.86,198.29v-.03c.02-.22,.03-.33,.03-.33,0,0-.02,.03-.07,.09-.17-1.21-.31-2.51-.43-3.84-.31-4.12-.31-11.49-.28-16.83,1.33-1.58,2.58-3.29,3.74-5.1l.07,.05s9.47,5.56,16.74,16.19c1.93,2.81,3.69,5.96,5.08,9.46,6.7,16.76,2.15,27.28,2.15,27.28,0,0-16.28-6.34-22.49,3.6-5.72,9.11-5.12,33.17-5.01,37.06-1.12-11.88-1.34-24.34-1.17-35.27,.28-16.78,1.43-30.04,1.64-32.33Z"/>
        <path class="cls-8" d="M244.83,105.85c-7.41,3.7-16.19,4.63-24.2,2.51-.98-.26-2.15-.83-2.1-1.84,.03-.62,.53-1.09,1-1.48,1.38-1.21,2.77-2.41,4.15-3.62-6.68-.19-12.23-.45-16.78-.72-3.1-.19-5.72-.4-7.92-.59-1.19-4.86-.38-10.18,2.26-14.43,3.36-5.44,9.18-8.78,14.76-11.9,5.3-2.95,10.63-5.87,16.31-7.92,5.7-2.05,11.83-3.19,17.83-2.38,10.32,1.36,18.96,8.15,27.01,14.78,3.77-1,8.04-.02,10.99,2.57,2.64,2.31,4.15,5.67,4.82,9.11,.65,3.29,.6,6.67,.52,10.01-2.57,.24-5.8,.52-9.83,.76-4.55,.29-10.08,.53-16.76,.72-6.96,6.32-15.29,11.09-24.28,13.86-.74,.22-1.72,.36-2.15-.29-.36-.55-.03-1.29,.29-1.86,1.36-2.43,2.74-4.86,4.1-7.29Z"/>
        <path class="cls-8" d="M293.23,119.1c-.79,4.6-1.6,9.21-2.39,13.83l-.02,.05c-1.53-.43-3.32-.21-5.32,.88,0,0-4.93-5.43-4.34-12.68v-.02c1.84-.26,3.6-.53,5.27-.83,2.48-.41,4.77-.83,6.8-1.24Z"/>
        <path class="cls-4" d="M272.12,177.35c-1.08,1.33-2.22,2.6-3.36,3.77-3.58,3.7-7.25,6.61-10.25,8.75-3.88,2.74-8.47,4.2-13.21,4.2-2.36,0-4.68-.38-6.92-1.09-2.2-.69-4.34-1.76-6.27-3.12-3-2.14-6.68-5.05-10.27-8.75-1.15-1.19-2.29-2.46-3.41-3.82v-.02c-1.29-1.57-2.51-3.22-3.65-4.99-2.82-4.32-5.13-9.28-6.36-14.85-18.08-.71-17-23.8-7.68-24.65,1.31-.12,2.77,.19,4.37,1.07,0,0,4.62-5.12,5.8-12.49,9.44,1.31,21.12,2.36,34.38,2.36h.09c13.92,0,26.09-1.15,35.77-2.57v.02c-.59,7.25,4.34,12.68,4.34,12.68,2-1.09,3.79-1.31,5.32-.88,8.4,2.29,8.78,23.77-8.65,24.46-1.21,5.55-3.5,10.49-6.32,14.81-1.15,1.81-2.41,3.51-3.74,5.1Z"/>
        <path class="cls-2" d="M281.78,365.87c1.14,13.31,2.22,25.96,3.12,36.5-.76,.29-21.1,8.16-39.51,8.16h-.09c-18.74,0-39.51-8.16-39.51-8.16,.88-10.28,1.93-22.6,3.05-35.57,3.19-36.72,6.96-78.85,8.96-95.93,.17-1.46,.33-2.95,.46-4.44,1.15-12.04,1.38-24.7,1.21-35.81h.29s8.68-9.65,12.57-9.46c3.65,.15,12.06,10.47,12.99,11.63l-.02,.1s.02-.02,.05-.05c.02,.03,.03,.05,.03,.05l-.02-.09v-.02c.93-1.15,9.33-11.47,13-11.63,3.89-.19,12.57,9.46,12.57,9.46h.28c-.17,10.94,.05,23.39,1.17,35.27,0,.1,0,.21,.02,.31,.02,.14,.02,.22,.02,.22,.14,1.5,.29,2.98,.46,4.44,1.98,16.93,5.72,58.49,8.89,95Z"/>
        <path class="cls-5" d="M272.82,198.02c.05-.05,.07-.09,.07-.09,0,0-.02,.1-.03,.33,0-.09-.02-.15-.03-.24Z"/>
        <path class="cls-2" d="M272.86,198.26v.03c-.21,2.29-1.36,15.55-1.64,32.33h-.28s-8.68-9.65-12.57-9.46c-3.67,.15-12.07,10.47-13,11.63l-.02-.29v-.07l1.77-16.41c14.69-4.79,24.77-16.86,25.7-18,.02,.09,.03,.16,.03,.24Z"/>
        <path class="cls-4" d="M272.39,194.17c.12,1.33,.26,2.64,.43,3.84-.93,1.14-11.01,13.21-25.7,18l-1.77,16.41-1.77-16.41c-15.45-5.03-25.78-18.07-25.78-18.07v-.02c.07-.48,.14-.96,.19-1.46,.03-.33,.09-.67,.1-1.02,.17-1.71,.28-3.48,.33-5.2,.02-.52,.03-1.03,.03-1.53,.02-.52,.03-1,.02-1.5,.02-.47,.02-.93,.02-1.38v-1.45h.02s10.42,16.33,26.77,20.86c16.33,4.51,27.13-11.07,27.13-11.07Z"/>
        <path class="cls-5" d="M272.12,177.35c-.03,5.34-.03,12.71,.28,16.83,0,0-10.8,15.59-27.13,11.07-16.34-4.53-26.77-20.86-26.77-20.86h-.02c0-1.33-.02-4.29-.05-7.1,1.12,1.36,2.26,2.64,3.41,3.82,3.58,3.7,7.27,6.61,10.27,8.75,1.93,1.36,4.06,2.43,6.27,3.12,2.24,.71,4.56,1.09,6.92,1.09,4.74,0,9.34-1.46,13.21-4.2,3-2.14,6.67-5.05,10.25-8.75,1.14-1.17,2.27-2.45,3.36-3.77Z"/>
        <path class="cls-5" d="M245.37,232.81l.02,.09s-.02-.02-.03-.05c0,0,0-.02,.02-.03Z"/>
        <path class="cls-5" d="M245.37,232.79v.02s-.02,.03-.02,.03c-.02-.02-.03-.03-.03-.05l.03-.29,.02,.29Z"/>
        <path class="cls-2" d="M245.35,232.43v.07l-.03,.29c-.93-1.15-9.33-11.47-12.99-11.63-3.89-.19-12.57,9.46-12.57,9.46h-.29c-.29-18.03-1.6-32-1.67-32.67,0,0,10.33,13.04,25.78,18.07l1.77,16.41Z"/>
        <path class="cls-5" d="M245.32,232.79s.02,.03,.03,.05c-.03,.03-.05,.05-.05,.05l.02-.1Z"/>
        <path class="cls-3" d="M198.02,188.49c7.27-10.63,16.74-16.19,16.74-16.19l.02-.02c1.14,1.77,2.36,3.43,3.65,4.99v.02c.03,2.81,.05,5.77,.05,7.1v1.45c0,.45,0,.91-.02,1.38,.02,.5,0,.98-.02,1.5,0,.5-.02,1.02-.03,1.53-.05,1.72-.15,3.5-.33,5.2-.02,.34-.07,.69-.1,1.02-.05,.5-.12,.98-.19,1.46v.02c.07,.67,1.38,14.64,1.67,32.67,.17,11.11-.05,23.77-1.21,35.81,0,0,1.26-27.66-4.96-37.6-6.23-9.94-22.51-3.6-22.51-3.6,0,0-4.55-10.52,2.15-27.28,1.4-3.5,3.17-6.65,5.08-9.46Z"/>
        <path class="cls-2" d="M213.3,228.83c6.22,9.94,4.96,37.6,4.96,37.6-.14,1.5-.29,2.98-.46,4.44-2,17.09-5.77,59.21-8.96,95.93-26.2-13.38-40.96-37.41-48.12-52.77l-.81-43.32s-6.13-2.53-15.14-6.37c-6.82-29.28-3.82-66.91-2.58-79.12,8.78,.96,22.73,2.7,30.18,4.58,0,0,13.38-2.89,25.66-1.31-1.91,2.81-3.69,5.96-5.08,9.46-6.7,16.76-2.15,27.28-2.15,27.28,0,0,16.28-6.34,22.51,3.6Z"/>
        <path class="cls-8" d="M210.92,121.37c-1.19,7.37-5.8,12.49-5.8,12.49-1.6-.88-3.07-1.19-4.37-1.07-.38-4.43-.76-8.85-1.14-13.28,1.41,.28,2.95,.55,4.56,.81,2.1,.36,4.36,.72,6.75,1.05Z"/>
        <path class="cls-3" d="M150.93,422.63c-2.48-.72-4.91-1.5-7.23-2.36l17.24-94.49-.22-11.75c7.16,15.36,21.93,39.39,48.12,52.77-1.12,12.97-2.17,25.28-3.05,35.57-1.45,16.95-2.39,28.42-2.39,28.42,0,0-28.97-1.29-52.46-8.16Z"/>
        <path class="cls-4" d="M189.12,98.9s-5.55,.83-6.53,5.15c-.98,4.31-1.67,8.9-1.67,8.9l4.67,3.29s-4.46,12.57-8.2,17c-3.75,4.43-12.99,6.05-12.99,6.05l-5.18,7.37c-3.38-4.5-7.77-8.06-12.07-10.8l.19-20.27s2.1-15.16,4.31-21.82c.45-1.36,.9-2.36,1.33-2.82,2.57-2.76,6.99-2.1,6.99-2.1,0,0,3-2.36,6.65-.07,0,0,4.41-1.52,7.3,1.21,0,0,3.82-1.1,6.34,.78,2.51,1.89,8.87,8.15,8.87,8.15Z"/>
        <path class="cls-2" d="M159.22,146.66c.78,1.02,1.48,2.07,2.12,3.17l-12.09,15.47-2.34-1.83,.24-27.61c4.31,2.74,8.7,6.3,12.07,10.8Z"/>
        <path class="cls-2" d="M149.24,165.29l-11.37,14.54c-19.2,4.37-46.26,4.77-58.85,4.67,16.48-18.43,45.88-49.17,51.46-55.01-2.38,17.34-4.34,36.22-4.34,36.22,0,0,11.32,4.99,20.75-2.24l2.34,1.83Z"/>
        <path class="cls-1" d="M151.64,93.76c-2.2,6.67-4.31,21.82-4.31,21.82l-.19,20.27-.24,27.61c-9.44,7.23-20.75,2.24-20.75,2.24,0,0,1.96-18.88,4.34-36.22,1.77-12.97,3.79-25.08,5.39-27.78,3.75-6.3,15.76-7.94,15.76-7.94Z"/>
        <path class="cls-3" d="M142.18,185.22c-1.24,12.21-4.24,49.84,2.58,79.12-24.1-10.25-68.74-29.76-71.53-34.81-3.82-6.94-8.49-24.9-5.27-31.6,.79-1.65,5.08-6.73,11.06-13.43,12.59,.1,39.65-.29,58.85-4.67l-3.58,4.56s3.22,.31,7.89,.83Z"/>
      </g>
      <g>
        <path class="cls-8" d="M287.29,431.79c-.52,0-.95-.4-1-.92,0,0-.95-11.47-2.39-28.42-.57-6.65-1.21-14.13-1.89-22.09l-1.23-14.41c-2.92-33.64-6.83-77.43-8.88-94.97-.17-1.47-.33-2.96-.47-4.47,0-.1,0-.14-.01-.2-.02-.11-.02-.27-.02-.43-.98-10.36-1.38-22.27-1.17-35.29,.27-16.44,1.39-29.67,1.63-32.34,0-.04-.02-.07-.02-.11-.16-1.09-.29-2.32-.44-3.89-.24-3.21-.33-8.74-.28-16.92,0-.23,.08-.46,.23-.63,1.32-1.58,2.56-3.26,3.66-4.99,.15-.24,.39-.4,.67-.45,.28-.05,.56,.02,.78,.19,.36,.22,9.43,5.61,16.68,15.97,11.4-1.34,23.33,.97,25.18,1.35,7.37-1.82,20.61-3.48,27.89-4.31,3.53-.4,6.5-.71,8.29-.89l-25.94-33.14c-.25-.32-.28-.76-.08-1.12,.67-1.16,1.39-2.23,2.21-3.28,3.02-4.04,7.16-7.76,12.31-11.03,.31-.2,.7-.21,1.01-.04,.32,.17,.52,.51,.52,.87l.25,27.11c7.49,5.44,16.22,2.96,18.67,2.09-.39-3.7-2.17-20.25-4.26-35.43-.06-.43,.17-.85,.56-1.04,.39-.19,.86-.1,1.16,.21l.29,.3c22.68,23.73,40.93,43.24,51.37,54.93,8.87,9.96,10.55,12.46,11.04,13.48,3.47,7.17-1.36,25.39-5.29,32.52h0c-2.8,5.09-41.99,22.53-74.37,36.26-6.14,2.6-10.62,4.46-12.18,5.11l-1.02,54.31,17.22,94.39c.09,.48-.18,.95-.64,1.12-2.15,.8-4.54,1.58-7.3,2.38-23.34,6.83-52.41,8.19-52.7,8.2-.02,0-.03,0-.05,0Zm-13.54-234.37c.12,.2,.17,.43,.13,.67,0,.01-.01,.09-.02,.25-.23,2.54-1.36,15.79-1.63,32.3-.21,12.95,.19,24.78,1.17,35.16,0,.14,0,.19,0,.24,.03,.26,.03,.39,.03,.39,.13,1.4,.29,2.87,.46,4.33,2.06,17.57,5.97,61.38,8.89,95.03l1.23,14.41c.68,7.96,1.32,15.44,1.88,22.09,1.2,14.06,2.06,24.36,2.31,27.45,5.21-.3,30.54-2.01,51.26-8.07,2.38-.69,4.48-1.37,6.38-2.05l-17.09-93.66c-.01-.07-.02-.13-.02-.2l1.03-55.06c0-.4,.25-.75,.62-.91,0,0,5.08-2.1,12.77-5.35,44.05-18.68,71.49-31.91,73.4-35.39,4.03-7.31,8.15-24.68,5.25-30.69-.47-.96-2.71-4.01-10.73-13.02-10.15-11.36-27.67-30.11-49.49-52.95,2.17,16.27,3.91,33.02,3.93,33.2,.04,.43-.19,.84-.59,1.02-.48,.21-11.97,5.15-21.75-2.36-.24-.19-.39-.48-.39-.78l-.24-25.77c-4.24,2.89-7.69,6.1-10.27,9.55-.63,.81-1.2,1.63-1.73,2.49l26.64,34.03c.22,.29,.27,.67,.13,1.01-.14,.34-.46,.57-.82,.6-.04,0-4.32,.42-10.06,1.07-7.31,.83-20.65,2.5-27.85,4.32-.15,.04-.31,.04-.46,0-.13-.03-13.38-2.84-25.34-1.29-.38,.05-.74-.12-.95-.43-5.89-8.62-13.35-13.9-15.69-15.43-.94,1.41-1.96,2.78-3.03,4.08-.05,7.93,.04,13.29,.27,16.39,.12,1.3,.23,2.37,.36,3.32Zm143.7,32.12h0Zm-145.45-32.04s0,0,0,0c0,0,0,0,0,0Zm0,0s0,0,0,0c0,0,0,0,0,0Zm0,0h0s0,0,0,0Z"/>
        <path class="cls-8" d="M355.69,168.41c-3.82,0-8.32-.93-12.5-4.15-.24-.19-.39-.48-.39-.78l-.45-47.82c-.15-1.07-2.18-15.3-4.26-21.58-.11-.33-.04-.69,.18-.95,.22-.27,.56-.4,.9-.35,.51,.07,12.53,1.78,16.48,8.42,.54,.91,2.17,3.67,5.52,28.16,2.35,17.16,4.32,36.06,4.34,36.25,.04,.43-.19,.84-.59,1.02-.28,.12-4.15,1.79-9.25,1.79Zm-10.9-5.45c7.47,5.43,16.21,2.95,18.67,2.08-.39-3.71-2.18-20.25-4.26-35.43-2.87-20.96-4.53-26.17-5.26-27.41-2.69-4.51-10.19-6.5-13.47-7.18,2.02,7.17,3.78,19.83,3.86,20.41,0,.04,0,.09,0,.13l.44,47.39Z"/>
        <path class="cls-8" d="M346.35,465.15H144.34c-.29,0-.57-.13-.76-.35-.19-.22-.27-.52-.23-.81l6.6-41.53c.05-.28,.21-.53,.45-.69,.24-.15,.54-.19,.82-.12,20.73,6.06,46.06,7.78,51.27,8.07,.26-3.1,1.11-13.39,2.31-27.45,.03-.31,.2-.6,.47-.76,.27-.17,.6-.2,.89-.08,.21,.08,20.82,8.09,39.14,8.09s37.09-7.27,39.23-8.1c.29-.11,.62-.08,.89,.08,.27,.17,.44,.45,.47,.76,1.2,14.06,2.06,24.36,2.31,27.45,5.21-.3,30.54-2.01,51.27-8.07,.28-.08,.57-.04,.82,.12,.24,.15,.41,.4,.45,.69l6.6,41.53c.05,.29-.04,.58-.23,.81-.19,.22-.47,.35-.76,.35Zm-200.84-2h199.67l-6.24-39.25c-23.14,6.56-51.32,7.88-51.61,7.89-.53,.03-1-.38-1.04-.92,0,0-.9-10.88-2.28-27.1-5.05,1.85-22.47,7.76-38.63,7.76s-33.91-6.02-38.71-7.77c-1.38,16.22-2.28,27.1-2.28,27.1-.04,.54-.49,.94-1.04,.92-.29-.01-28.46-1.33-51.61-7.89l-6.24,39.25Z"/>
        <path class="cls-8" d="M331.48,147.66h-.01c-.32,0-.62-.16-.8-.42l-4.95-7.04c-1.9-.38-9.66-2.15-13.16-6.31-3.81-4.51-8.19-16.79-8.38-17.31-.15-.42,0-.89,.37-1.15l4.16-2.93c-.22-1.38-.81-4.91-1.58-8.22-.82-3.6-5.64-4.38-5.69-4.39-.37-.06-.68-.32-.8-.68-.12-.36-.02-.75,.25-1.02,.26-.26,6.41-6.32,8.95-8.23,2.3-1.72,5.43-1.32,6.67-1.07,2.71-2.15,6.19-1.52,7.43-1.2,3.3-1.84,6.08-.49,7.04,.12,1.25-.11,5.03-.17,7.48,2.45,.53,.57,1.03,1.62,1.53,3.21,2.2,6.66,4.26,21.36,4.34,21.99,0,.04,0,.09,0,.13l.19,20.27c0,.35-.17,.67-.46,.85-4.94,3.14-8.91,6.69-11.79,10.55-.19,.25-.49,.4-.8,.4Zm-25.17-31.04c1,2.7,4.68,12.33,7.76,15.98,3.46,4.09,12.31,5.69,12.4,5.71,.26,.05,.49,.19,.65,.41l4.41,6.27c2.84-3.51,6.54-6.76,11.01-9.66l-.18-19.65c-.15-1.07-2.18-15.3-4.26-21.58-.57-1.8-.98-2.34-1.09-2.46-2.18-2.32-6.09-1.8-6.13-1.79-.27,.04-.55-.04-.76-.2-.1-.07-2.51-1.88-5.5,0-.26,.16-.57,.2-.86,.1-.04-.01-3.87-1.28-6.29,.99-.26,.24-.62,.33-.96,.23-.03,0-3.38-.94-5.46,.62-1.76,1.33-5.52,4.92-7.49,6.83,1.92,.67,4.78,2.18,5.52,5.45,1,4.29,1.69,8.93,1.7,8.98,.06,.37-.1,.75-.41,.97l-4.04,2.85Z"/>
        <path class="cls-8" d="M245.38,124.73c-11.65,0-23.27-.8-34.6-2.37-2.14-.29-4.36-.64-6.78-1.06-1.5-.24-3.05-.51-4.59-.81-8.89-1.7-13.91-3.23-14.12-3.3-.1-.03-.2-.08-.28-.14l-4.67-3.29c-.31-.22-.47-.59-.41-.97,0-.05,.71-4.69,1.68-8.98,1.12-4.93,7.1-5.88,7.36-5.92,.12-.02,.24-.01,.35,.01,.03,0,2.86,.58,9.75,1.21,2.77,.24,5.28,.42,7.89,.58,5.08,.31,10.71,.55,16.74,.72,.41,.01,.77,.27,.91,.66,.14,.39,.03,.82-.28,1.09l-4.15,3.62c-.22,.18-.65,.55-.66,.78-.01,.22,.49,.59,1.36,.82,7.74,2.05,16.3,1.16,23.5-2.44,.39-.19,.87-.11,1.17,.2,.3,.32,.36,.8,.15,1.18-.68,1.21-1.37,2.43-2.05,3.65-.68,1.21-1.37,2.43-2.05,3.64-.36,.63-.32,.83-.32,.84,.04,.01,.35,.07,1.02-.13,8.79-2.71,17.06-7.43,23.9-13.65,.18-.16,.41-.25,.64-.26,6.63-.19,12.1-.42,16.72-.72,4.34-.26,7.68-.56,9.8-.76,5.64-.55,7.98-1.03,8-1.03,.12-.02,.24-.03,.35,0,.25,.04,6.22,.98,7.34,5.92,1,4.29,1.69,8.93,1.7,8.98,.06,.37-.1,.75-.41,.97l-4.67,3.29c-.09,.06-.18,.11-.28,.14-.18,.05-4.42,1.36-11.98,2.88-1.96,.4-4.2,.81-6.84,1.25-1.66,.29-3.45,.57-5.3,.83-11.71,1.71-23.8,2.58-35.91,2.58Zm-59.36-9.4c.9,.27,5.82,1.69,13.76,3.2,1.52,.3,3.04,.57,4.53,.8,2.42,.42,4.61,.76,6.73,1.05,23.11,3.21,47.32,3.1,69.96-.21,1.83-.26,3.59-.53,5.24-.82,2.62-.44,4.84-.84,6.78-1.24,6.68-1.35,10.82-2.55,11.64-2.79l4.03-2.84c-.22-1.38-.81-4.91-1.58-8.22-.73-3.23-4.69-4.19-5.53-4.36-.68,.13-3.11,.55-8.02,1.03-2.15,.2-5.5,.5-9.87,.76-4.56,.29-9.93,.53-16.42,.71-7,6.29-15.43,11.07-24.39,13.83-2.05,.62-2.94-.17-3.28-.7-.75-1.15,.01-2.47,.26-2.91,.67-1.2,1.36-2.42,2.04-3.63,.19-.34,.38-.67,.57-1.01-6.99,2.75-14.89,3.25-22.1,1.34-1.87-.49-2.91-1.54-2.84-2.86,.06-1.09,.9-1.81,1.35-2.19l2.22-1.93c-5.09-.17-9.88-.38-14.26-.65-2.63-.16-5.16-.35-7.95-.59h0c-6.09-.55-9.03-1.06-9.79-1.2-.84,.17-4.81,1.13-5.55,4.35-.75,3.31-1.34,6.84-1.56,8.22l4.03,2.84Z"/>
        <path class="cls-8" d="M241.52,116.47c-1.1,0-1.65-.54-1.91-.93-.75-1.15,.01-2.47,.26-2.91,.67-1.2,1.36-2.42,2.04-3.63,.19-.34,.38-.67,.57-1.01-6.99,2.75-14.89,3.25-22.1,1.34-1.87-.49-2.91-1.54-2.84-2.86,.06-1.09,.9-1.81,1.35-2.19l2.22-1.93c-5.09-.17-9.88-.38-14.26-.65-2.63-.16-5.16-.35-7.95-.59-.43-.04-.78-.34-.89-.76-1.27-5.18-.4-10.71,2.38-15.2,3.58-5.8,9.98-9.37,15.12-12.25,4.95-2.75,10.56-5.86,16.46-7.99,6.57-2.36,12.73-3.18,18.3-2.43,10.09,1.33,18.6,7.67,27.12,14.68,4-.88,8.32,.21,11.4,2.9,3.25,2.85,4.59,6.83,5.14,9.67,.65,3.28,.63,6.57,.54,10.22-.01,.51-.4,.92-.91,.97-2.14,.2-5.5,.5-9.87,.76-4.56,.29-9.93,.53-16.42,.71-7,6.29-15.43,11.07-24.39,13.83-.53,.16-.99,.23-1.37,.23Zm3.32-11.62c.27,0,.53,.11,.72,.31,.3,.32,.36,.8,.15,1.18-.68,1.21-1.37,2.43-2.05,3.65-.68,1.21-1.37,2.43-2.05,3.64-.36,.63-.32,.83-.32,.84,.04,.01,.35,.07,1.02-.13,8.79-2.71,17.06-7.43,23.9-13.65,.18-.16,.41-.25,.64-.26,6.63-.19,12.1-.42,16.72-.72,3.78-.23,6.8-.48,8.92-.67,.07-3.18,.04-6.07-.52-8.9-.5-2.54-1.68-6.08-4.5-8.55-2.67-2.34-6.62-3.27-10.07-2.35-.31,.08-.64,0-.89-.2-8.74-7.21-16.77-13.27-26.5-14.56-5.25-.71-11.09,.07-17.36,2.33-5.75,2.07-11.28,5.15-16.16,7.86-5.2,2.9-11.09,6.19-14.39,11.55-2.37,3.83-3.19,8.52-2.29,12.97,2.49,.21,4.79,.38,7.17,.52,5.08,.31,10.71,.55,16.74,.72,.41,.01,.77,.27,.91,.66,.14,.39,.03,.82-.28,1.09l-4.15,3.62c-.22,.18-.65,.55-.66,.78-.01,.22,.49,.59,1.36,.82,7.74,2.05,16.3,1.16,23.5-2.44,.14-.07,.29-.11,.45-.11Z"/>
        <path class="cls-8" d="M285.5,134.86c-.27,0-.55-.11-.74-.33-.21-.23-5.21-5.83-4.6-13.43,.04-.47,.39-.86,.86-.93,1.83-.26,3.59-.53,5.24-.82,2.62-.44,4.84-.84,6.78-1.24,.32-.07,.66,.03,.9,.26,.24,.23,.35,.56,.29,.89l-1.09,6.27c-.44,2.52-.87,5.04-1.31,7.56,0,.05-.02,.1-.04,.15-.17,.5-.73,.83-1.24,.69-1.36-.38-2.9-.12-4.57,.79-.15,.08-.31,.12-.48,.12Zm-3.38-12.82c-.09,5.08,2.55,9.11,3.66,10.57,1.47-.67,2.89-.94,4.25-.79,.38-2.21,.76-4.41,1.15-6.62l.84-4.83c-1.6,.31-3.39,.63-5.41,.96-1.42,.25-2.92,.49-4.48,.71Z"/>
        <path class="cls-8" d="M245.3,195.07c-2.41,0-4.84-.38-7.22-1.13-2.3-.72-4.5-1.81-6.54-3.25-3.9-2.78-7.4-5.76-10.41-8.87-1.17-1.2-2.33-2.51-3.46-3.88-.03-.04-.06-.08-.08-.12-1.35-1.65-2.54-3.28-3.64-4.99-3-4.6-5.13-9.45-6.32-14.43-9.73-.73-14.28-7.98-14.46-14.99-.16-6.32,2.99-11.2,7.49-11.61,1.35-.12,2.76,.15,4.2,.81,1.18-1.51,4.18-5.8,5.08-11.39,.09-.54,.58-.9,1.12-.83,11.24,1.56,22.77,2.35,34.24,2.35,12.11,0,24.09-.86,35.71-2.56,.29-.04,.58,.04,.8,.23,.22,.19,.35,.47,.35,.76-.44,5.49,2.45,9.9,3.61,11.44,1.87-.86,3.66-1.06,5.32-.59,4.26,1.16,6.94,6.7,6.24,12.88-.7,6.12-4.84,12.79-14.35,13.5-1.18,4.97-3.29,9.81-6.29,14.4-1.15,1.8-2.43,3.55-3.81,5.19-1.09,1.34-2.24,2.63-3.41,3.83-3.03,3.13-6.52,6.12-10.39,8.87-4.06,2.87-8.83,4.39-13.79,4.39Zm-26.01-18.31c1.07,1.29,2.17,2.53,3.27,3.66,2.92,3.02,6.33,5.92,10.13,8.63,1.84,1.3,3.91,2.33,5.99,2.98,6.69,2.11,13.73,.93,19.26-2.98,3.76-2.68,7.16-5.58,10.11-8.63,1.13-1.16,2.24-2.41,3.3-3.71,1.33-1.59,2.56-3.27,3.67-5,3.02-4.63,5.1-9.5,6.19-14.49,.1-.45,.48-.77,.94-.79,8.79-.35,12.59-6.31,13.21-11.77,.58-5.12-1.52-9.84-4.78-10.73-1.37-.39-2.91-.12-4.58,.79-.4,.22-.91,.14-1.22-.21-.2-.22-4.68-5.24-4.65-12.21-22.32,3.14-45.94,3.19-68.38,.17-1.44,7.05-5.69,11.83-5.87,12.04-.31,.34-.82,.43-1.22,.21-1.35-.74-2.63-1.06-3.8-.95-3.84,.35-5.79,5.19-5.67,9.56,.15,5.8,3.72,12.71,13.3,13.09,.45,.02,.84,.34,.94,.78,1.1,5,3.19,9.88,6.22,14.51,1.08,1.68,2.25,3.28,3.59,4.91,.03,.04,.06,.08,.08,.12Z"/>
        <path class="cls-8" d="M245.39,411.53c-18.8,0-39.75-8.15-39.96-8.23-.41-.16-.67-.58-.63-1.02l.23-2.72c.83-9.7,1.79-21,2.82-32.85,4.32-49.78,7.33-82.07,8.96-95.96,.17-1.46,.33-2.93,.46-4.42,1-10.46,1.41-22.47,1.2-35.7,0-.27,.1-.53,.29-.72,.15-.15,.34-.25,.55-.29,1.72-1.87,8.94-9.47,12.93-9.47,.05,0,.1,0,.15,0,3.53,.15,10.1,7.62,12.96,11.08,2.86-3.46,9.44-10.93,12.99-11.08,3.98-.17,11.34,7.58,13.07,9.47,.2,.04,.39,.13,.53,.28,.19,.19,.29,.45,.29,.72-.21,12.95,.19,24.78,1.17,35.16,0,.14,0,.19,0,.24,.03,.26,.03,.39,.03,.39,.13,1.4,.29,2.87,.46,4.33,2.06,17.57,5.97,61.38,8.89,95.03l1.23,14.41c.68,7.96,1.32,15.44,1.88,22.09,.04,.44-.22,.86-.64,1.02l-.36-.93,.36,.93c-2.18,.84-21.81,8.23-39.87,8.23Zm-38.54-9.83c3.75,1.39,22.02,7.83,38.45,7.83s34.39-6.28,38.54-7.83c-.55-6.46-1.17-13.67-1.82-21.34l-1.23-14.41c-2.92-33.64-6.83-77.43-8.88-94.97-.17-1.47-.33-2.96-.47-4.47,0-.1,0-.14-.01-.2-.02-.11-.02-.27-.02-.43-.96-10.18-1.36-21.84-1.18-34.59,0,0,0,0,0,0-3.23-3.59-9.33-9.25-11.78-9.13-2.16,.09-7.71,5.62-12.14,11.09-.08,.2-.23,.36-.41,.47-.01,0-.03,.02-.04,.02-.3,.18-.67,.2-.99,.03-.24-.13-.42-.35-.49-.6-4.42-5.44-9.92-10.92-12.05-11.01-2.47-.09-8.55,5.53-11.79,9.13,0,0-.02,.02-.03,.03,.18,13.03-.23,24.87-1.22,35.21-.14,1.5-.29,2.99-.47,4.46-1.62,13.87-4.63,46.14-8.95,95.9-1.02,11.84-1.99,23.14-2.82,32.84l-.17,1.97Z"/>
        <path class="cls-8" d="M272.86,199.26s-.03,0-.04,0c-.54-.02-.96-.46-.96-1-.06-.31,.01-.66,.21-.9,.25-.35,.7-.51,1.12-.38,.47,.15,.76,.62,.69,1.11,0,.02-.01,.1-.03,.25-.04,.52-.48,.92-1,.92Zm-.87-1.77s0,0,0,0c0,0,0,0,0,0Zm0,0s0,0,0,0c0,0,0,0,0,0Zm0,0h0Zm.12-.18s0,0,0,0c0,0,0,0,0,0Z"/>
        <path class="cls-8" d="M245.37,233.79c-.1,0-.2-.02-.3-.05-.39-.12-.67-.48-.69-.89l-.02-.29s0-.11,0-.13c0-.04,0-.07,0-.11l1.77-16.41c.04-.39,.31-.72,.68-.84,14.26-4.65,24.15-16.36,25.23-17.68,.25-.3,.64-.43,1.02-.34,.38,.1,.66,.4,.74,.78,.03,.17,.05,.29,.05,.43v.03c-.23,2.58-1.37,15.83-1.64,32.34,0,.55-.45,.98-1,.98h-.28c-.28,0-.55-.12-.74-.33-3.23-3.59-9.33-9.25-11.78-9.13-2.18,.09-7.82,5.73-12.27,11.25-.19,.24-.48,.37-.78,.37Zm2.68-17.03l-1.4,12.93c3.23-3.75,8.6-9.39,11.68-9.52,3.36-.16,9.19,5.42,11.93,8.26,.26-12.37,.98-22.66,1.37-27.56-3.74,3.98-12.29,12.03-23.59,15.9Z"/>
        <path class="cls-8" d="M245.35,233.43h0c-.51,0-.94-.38-.99-.89l-1.7-15.78c-15.21-5.2-25.22-17.66-25.64-18.19-.14-.18-.22-.4-.22-.62,0-.05,0-.11,.01-.16,.07-.47,.13-.94,.18-1.43l.04-.32c.03-.21,.05-.43,.06-.65,.16-1.62,.27-3.35,.33-5.18,.02-.51,.03-1.01,.03-1.5,.02-.55,.03-1,.02-1.46,.02-.52,.02-.98,.02-1.41v-1.45c0-1.32-.02-4.28-.05-7.08,0-.42,.26-.81,.66-.95,.4-.15,.85-.02,1.12,.3,1.1,1.33,2.23,2.6,3.36,3.76,2.92,3.02,6.33,5.92,10.13,8.63,1.84,1.3,3.91,2.33,5.99,2.98,6.69,2.11,13.73,.93,19.26-2.98,3.76-2.68,7.16-5.58,10.11-8.63,1.13-1.16,2.24-2.41,3.3-3.71,.27-.33,.71-.45,1.11-.31,.4,.14,.66,.52,.66,.95-.05,8.13,.04,13.61,.27,16.75,.14,1.52,.27,2.72,.42,3.77,.04,.28-.04,.56-.22,.78-1.1,1.35-11.08,13.16-25.55,18.11l-1.71,15.78c-.05,.51-.48,.89-.99,.89Zm-26.51-35.78c1.7,2.02,11.41,12.98,25.04,17.42,.37,.12,.64,.45,.68,.84l.78,7.21,.78-7.21c.04-.39,.31-.72,.68-.84,13.43-4.38,22.99-15.02,24.96-17.35-.13-.98-.25-2.09-.37-3.45-.21-2.84-.31-7.5-.29-14.2-.54,.6-1.08,1.18-1.63,1.75-3.03,3.13-6.52,6.12-10.39,8.87-6.04,4.27-13.74,5.55-21.02,3.26-2.3-.72-4.5-1.81-6.54-3.25-3.9-2.78-7.4-5.76-10.41-8.87-.56-.57-1.11-1.17-1.66-1.79,.02,1.83,.02,3.47,.02,4.36v1.45c0,.46,0,.94-.02,1.41,.02,.44,0,.94-.02,1.47,0,.51-.02,1.03-.04,1.56-.06,1.88-.17,3.65-.33,5.27,0,.21-.04,.48-.07,.73l-.03,.29c-.04,.36-.08,.72-.13,1.08Z"/>
        <path class="cls-8" d="M245.38,233.89c-.26,0-.51-.1-.71-.29-.08-.08-.17-.22-.22-.31-.07-.14-.11-.29-.11-.45,0-.27,.12-.55,.31-.74,.26-.26,.64-.36,1-.25,.35,.11,.62,.4,.69,.77l.02,.09c.08,.43-.12,.87-.51,1.07-.15,.08-.31,.12-.47,.12Zm.04-1.04l.66,.66-.66-.66Z"/>
        <path class="cls-8" d="M245.35,233.84c-.26,0-.52-.1-.71-.29-.19-.19-.33-.49-.33-.76,0-.04,0-.08,0-.12l.03-.29c.06-.5,.49-.88,.99-.88h.03c.52,.01,.94,.42,.97,.94l.02,.29s0,.04,0,.06v.02c0,.17-.04,.33-.12,.47-.11,.21-.29,.39-.52,.48-.12,.05-.25,.08-.38,.08Z"/>
        <path class="cls-8" d="M245.32,233.79c-.3,0-.59-.13-.78-.37-4.45-5.52-10.09-11.16-12.25-11.25-2.49-.07-8.55,5.53-11.79,9.13-.19,.21-.46,.33-.74,.33h-.29c-.55,0-.99-.44-1-.98-.3-18.28-1.65-32.46-1.67-32.59-.05-.44,.21-.86,.62-1.03,.41-.17,.88-.04,1.16,.3,.1,.13,10.34,12.87,25.31,17.74,.37,.12,.64,.45,.68,.84l1.77,16.41s0,.07,0,.11v.07s0,.08,0,.12l-.03,.29c-.05,.4-.33,.73-.72,.84-.09,.03-.18,.04-.28,.04Zm-13.08-13.63s.1,0,.15,0c3.07,.13,8.44,5.8,11.67,9.55l-1.4-12.95c-11.41-3.9-19.9-11.89-23.6-15.86,.39,4.88,1.11,15.15,1.37,27.54,2.7-2.8,8.42-8.28,11.81-8.28Z"/>
        <path class="cls-8" d="M245.3,233.89c-.16,0-.32-.04-.47-.12-.38-.2-.59-.62-.51-1.05l.02-.1c.09-.51,.56-.89,1.07-.83,.33,.03,.61,.21,.77,.48,.26,.39,.23,.92-.11,1.26,0,0-.07,.07-.08,.08-.19,.18-.44,.27-.69,.27Zm1.02-1.1h0Z"/>
        <path class="cls-8" d="M218.26,267.43s-.05,0-.07,0c-.54-.04-.95-.5-.93-1.04,.01-.27,1.17-27.46-4.81-37.02-.29-.47-.15-1.08,.32-1.38,.47-.29,1.09-.15,1.38,.32,2.27,3.63,3.58,9.45,4.32,15.46,.07-4.22,.07-8.6,0-13.12-.3-18.28-1.65-32.45-1.67-32.59,0-.03,0-.07,0-.1,0-.05,0-.11,.01-.16,.07-.47,.13-.94,.18-1.43l.04-.32c.03-.21,.05-.43,.06-.65,.16-1.62,.27-3.35,.33-5.18,.02-.51,.03-1.01,.03-1.5,.02-.55,.03-1,.02-1.46,.02-.52,.02-.98,.02-1.41v-1.45c0-1.27-.02-4.05-.05-6.75-1.08-1.32-2.05-2.63-2.95-3.98-2.39,1.57-9.79,6.84-15.64,15.4-2.05,3.02-3.73,6.13-4.98,9.26-.2,.51-.78,.76-1.3,.56-.51-.2-.76-.79-.56-1.3,1.3-3.26,3.05-6.51,5.18-9.65,7.19-10.51,16.36-16.07,17.03-16.47,.19-.12,.42-.18,.65-.16,.3,.03,.58,.19,.74,.45,1.07,1.67,2.24,3.27,3.58,4.9,.15,.18,.23,.4,.23,.64,.03,2.82,.05,5.78,.05,7.11v1.45c0,.46,0,.94-.02,1.41,.02,.44,0,.94-.02,1.47,0,.51-.02,1.03-.04,1.56-.06,1.88-.17,3.65-.33,5.27,0,.21-.04,.48-.07,.73l-.03,.29c-.05,.48-.11,.94-.18,1.4,.08,.85,1.38,14.82,1.67,32.63,.21,13.31-.2,25.39-1.21,35.92-.05,.52-.48,.9-.99,.9Z"/>
        <path class="cls-8" d="M205.12,134.86c-.16,0-.33-.04-.48-.12-1.35-.74-2.63-1.06-3.8-.95-.27,.02-.53-.06-.73-.23-.2-.17-.33-.42-.35-.68l-1.14-13.28c-.03-.31,.09-.62,.33-.83,.23-.21,.55-.3,.86-.24,1.51,.29,3.04,.57,4.53,.8,2.42,.42,4.61,.76,6.73,1.05,.27,.04,.51,.18,.67,.4,.16,.22,.23,.49,.18,.75-1.22,7.58-5.85,12.78-6.05,13-.2,.22-.47,.33-.74,.33Zm-3.46-3.08c1.04,.05,2.11,.33,3.19,.83,1.1-1.42,3.82-5.29,4.9-10.39-1.82-.26-3.71-.56-5.75-.91-1.08-.17-2.18-.36-3.29-.57l.94,11.04Z"/>
        <path class="cls-8" d="M159.22,147.66c-.31,0-.61-.15-.8-.4-2.9-3.87-6.88-7.42-11.81-10.56-.29-.18-.47-.51-.46-.85l.19-20.27s0-.09,0-.13c.09-.62,2.14-15.32,4.35-22,.53-1.61,1.02-2.63,1.54-3.19,2.44-2.62,6.22-2.56,7.47-2.45,.97-.6,3.74-1.95,7.04-.12,1.25-.32,4.74-.95,7.43,1.2,1.25-.26,4.37-.65,6.67,1.06,2.58,1.96,8.9,8.18,8.96,8.24,.27,.27,.36,.66,.24,1.02-.12,.36-.43,.62-.8,.68-.05,0-4.86,.76-5.68,4.38-.75,3.31-1.34,6.84-1.56,8.22l4.16,2.93c.37,.26,.52,.73,.37,1.15-.18,.52-4.57,12.8-8.38,17.31-3.52,4.15-11.27,5.93-13.17,6.31l-4.95,7.04c-.18,.26-.48,.42-.8,.42h-.02Zm-11.07-12.34c4.47,2.9,8.17,6.15,11.03,9.66l4.41-6.27c.15-.22,.38-.36,.64-.41,.09-.02,8.92-1.61,12.4-5.71,3.08-3.64,6.76-13.28,7.76-15.98l-4.04-2.85c-.31-.22-.47-.59-.41-.97,0-.05,.71-4.69,1.68-8.98,.74-3.26,3.6-4.78,5.52-5.45-2.01-1.94-5.77-5.52-7.5-6.83-2.07-1.55-5.42-.62-5.46-.61-.34,.09-.7,0-.96-.23-2.43-2.28-6.25-1-6.29-.99-.29,.1-.6,.06-.86-.1-2.98-1.87-5.4-.07-5.5,.01-.21,.17-.5,.24-.76,.2-.04,0-3.95-.53-6.11,1.79-.14,.15-.53,.69-1.11,2.46-2.08,6.29-4.1,20.51-4.26,21.58l-.18,19.65Z"/>
        <path class="cls-8" d="M203.4,431.79s-.03,0-.04,0c-.29-.01-29.36-1.38-52.7-8.2-2.76-.81-5.15-1.58-7.3-2.38-.46-.17-.72-.64-.64-1.12l17.22-94.39-1.02-54.31c-1.76-.73-7.23-3.01-14.54-6.12-31.33-13.32-69.25-30.25-72.01-35.25-3.93-7.13-8.75-25.33-5.3-32.52,.49-1.02,2.18-3.54,11.21-13.67,10.47-11.71,28.66-31.15,51.21-54.75l.28-.29c.3-.31,.77-.4,1.16-.21,.39,.19,.62,.61,.56,1.04-2.08,15.18-3.86,31.72-4.26,35.43,2.5,.88,11.5,3.43,19.07-2.37,.36-.28,.86-.27,1.22,0l2.34,1.83c.21,.16,.35,.4,.38,.67,.03,.26-.04,.53-.21,.74l-13.83,17.67c1.4,.14,3.53,.36,6.09,.65,7.89,.87,22.23,2.6,30.08,4.55,1.89-.39,14.2-2.77,25.77-1.27,.34,.04,.64,.26,.78,.58,.14,.32,.11,.68-.09,.97-2.06,3.02-3.73,6.13-4.98,9.26-.2,.51-.78,.76-1.3,.56-.51-.2-.76-.79-.56-1.3,1.11-2.79,2.55-5.57,4.28-8.27-11.51-1.12-23.59,1.45-23.72,1.48-.15,.03-.31,.03-.46,0-7.69-1.94-22.12-3.69-30.04-4.56-4.66-.52-7.87-.83-7.87-.83-.36-.04-.68-.27-.82-.6-.14-.34-.09-.72,.13-1.01l14.33-18.31-.95-.74c-9.65,6.84-20.67,2.11-21.14,1.9-.4-.18-.64-.59-.59-1.02,.02-.18,1.77-16.93,3.93-33.2-21.68,22.71-39.15,41.39-49.31,52.76-8.17,9.16-10.44,12.24-10.9,13.2-2.89,6.02,1.22,23.39,5.24,30.69,1.88,3.4,28.44,16.25,71.04,34.37,8.9,3.79,15.07,6.34,15.13,6.37,.37,.15,.61,.51,.62,.91l1.03,55.06c0,.07,0,.13-.02,.2l-17.09,93.66c1.9,.68,4,1.35,6.38,2.05,20.72,6.06,46.06,7.78,51.27,8.07,.26-3.1,1.11-13.39,2.31-27.45l.23-2.72c.83-9.7,1.79-21,2.82-32.85,4.32-49.78,7.33-82.07,8.96-95.96,.17-1.46,.33-2.93,.46-4.42,0-.23,1.17-27.42-4.81-36.98-.29-.47-.15-1.08,.32-1.38,.47-.29,1.09-.15,1.38,.32,6.31,10.09,5.16,37.03,5.11,38.17-.14,1.55-.3,3.04-.47,4.52-1.62,13.87-4.63,46.14-8.95,95.9-1.02,11.84-1.99,23.14-2.82,32.84l-.23,2.72c-1.45,16.95-2.39,28.42-2.39,28.42-.04,.52-.48,.92-1,.92Z"/>
        <path class="cls-8" d="M149.24,166.29c-.22,0-.43-.07-.61-.21l-2.34-1.83c-.25-.19-.39-.49-.39-.8l.24-27.61c0-.36,.2-.7,.52-.87,.32-.17,.71-.16,1.01,.03,5.14,3.27,9.29,6.98,12.34,11.04,.81,1.06,1.54,2.16,2.18,3.27,.2,.35,.17,.79-.08,1.12l-12.09,15.47c-.2,.25-.49,.38-.79,.38Zm-1.34-3.31l1.17,.91,11.05-14.14c-.52-.85-1.08-1.66-1.7-2.49-2.6-3.47-6.06-6.67-10.29-9.56l-.22,25.28Z"/>
        <path class="cls-8" d="M134.99,168.41c-5.1,0-8.97-1.67-9.25-1.79-.4-.18-.64-.59-.59-1.02,.02-.19,1.99-19.09,4.34-36.25,3.35-24.49,4.98-27.25,5.52-28.16,3.96-6.64,15.98-8.35,16.48-8.42,.34-.05,.68,.09,.9,.35,.22,.27,.29,.63,.18,.95-2.08,6.29-4.1,20.51-4.26,21.58l-.43,47.82c0,.31-.15,.6-.39,.79-4.19,3.21-8.7,4.15-12.52,4.15Zm-7.77-3.36c2.46,.87,11.2,3.34,18.68-2.08l.43-47.39s0-.09,0-.13c.08-.58,1.85-13.25,3.86-20.41-3.28,.67-10.78,2.67-13.47,7.18-.73,1.24-2.39,6.44-5.26,27.41-2.08,15.18-3.86,31.72-4.26,35.43Z"/>
      </g>
      <path class="cls-8" d="M119.21,207.07c-.2,0-.4-.06-.57-.18-.45-.32-.56-.94-.25-1.39l15.09-21.68c.31-.45,.94-.57,1.39-.25,.45,.32,.56,.94,.25,1.39l-15.09,21.68c-.19,.28-.51,.43-.82,.43Z"/>
      <path class="cls-8" d="M130.94,209.41c-.08,0-.15,0-.23-.03-.54-.13-.87-.66-.75-1.2l3.36-14.34c.13-.54,.66-.87,1.2-.75,.54,.13,.87,.66,.75,1.2l-3.36,14.34c-.11,.46-.52,.77-.97,.77Z"/>
      <path class="cls-8" d="M373.69,204.21c-.27,0-.54-.11-.74-.32l-17.28-18.82c-.37-.41-.35-1.04,.06-1.41,.41-.37,1.04-.35,1.41,.06l17.28,18.82c.37,.41,.35,1.04-.06,1.41-.19,.18-.43,.26-.68,.26Z"/>
      <path class="cls-8" d="M359.08,207.07c-.55,0-1-.45-1-1v-12.27c0-.55,.45-1,1-1s1,.45,1,1v12.27c0,.55-.45,1-1,1Z"/>
      <path class="cls-8" d="M330.78,271.71c-.53,0-.97-.41-1-.95l-1.43-28.49c-.03-.55,.4-1.02,.95-1.05,.54-.04,1.02,.4,1.05,.95l1.43,28.49c.03,.55-.4,1.02-.95,1.05-.02,0-.03,0-.05,0Z"/>
      <path class="cls-8" d="M159.91,271.71s-.04,0-.06,0c-.55-.03-.97-.5-.94-1.05l1.43-25.61c.03-.55,.51-.97,1.05-.94,.55,.03,.97,.5,.94,1.05l-1.43,25.61c-.03,.53-.47,.94-1,.94Z"/>
      <path class="cls-8" d="M271.38,250.66s-.08,0-.11,0c-.55-.06-.94-.56-.88-1.11,.26-2.31,2.75-22.59,9.85-24.95,.52-.17,1.09,.11,1.26,.63,.17,.52-.11,1.09-.63,1.26-5,1.66-7.83,17.37-8.5,23.28-.06,.51-.49,.89-.99,.89Z"/>
      <ellipse class="cls-8" cx="229.43" cy="138.08" rx="4.38" ry="5.09"/>
      <path class="cls-8" d="M243.51,160.84c-5.11,0-7.78-4.5-7.78-8.95,0-2.21,3.16-3.45,4.87-3.96l.93-10.75c.05-.55,.51-.97,1.08-.91,.55,.05,.96,.53,.91,1.08l-.99,11.45c-.04,.43-.34,.78-.75,.88-2.08,.52-4.05,1.6-4.05,2.21,0,2.4,1.21,6.95,5.78,6.95,.55,0,1,.45,1,1s-.45,1-1,1Z"/>
      <path class="cls-8" d="M207.49,154.88c-.52,0-.96-.41-1-.94-.56-9.04-4.7-13.88-4.74-13.93-.36-.42-.32-1.05,.1-1.41,.42-.36,1.05-.32,1.41,.1,.19,.22,4.63,5.41,5.23,15.12,.03,.55-.39,1.03-.94,1.06-.02,0-.04,0-.06,0Z"/>
      <path class="cls-5" d="M229.49,151.09c0,2.47-3.25,4.48-7.26,4.48s-7.26-2-7.26-4.48,3.25-4.48,7.26-4.48,7.26,2,7.26,4.48Z"/>
      <path class="cls-8" d="M256.79,138c0,2.81,1.96,5.09,4.38,5.09s4.38-2.28,4.38-5.09-1.96-5.09-4.38-5.09-4.38,2.28-4.38,5.09Z"/>
      <path class="cls-8" d="M283.11,154.79s-.04,0-.06,0c-.55-.03-.97-.51-.94-1.06,.6-9.71,5.04-14.9,5.22-15.12,.37-.42,1-.46,1.41-.1,.42,.36,.46,.99,.1,1.41-.07,.08-4.19,4.97-4.74,13.93-.03,.53-.47,.94-1,.94Z"/>
      <path class="cls-5" d="M261.11,151.01c0,2.47,3.25,4.48,7.26,4.48s7.26-2,7.26-4.48-3.25-4.48-7.26-4.48-7.26,2-7.26,4.48Z"/>
      <path class="cls-8" d="M242.33,170.06c-.8,0-1.59-.06-2.38-.2-.54-.09-.91-.61-.82-1.15,.09-.54,.6-.91,1.15-.82,2.6,.44,5.32,.03,7.68-1.15,2.35-1.18,4.32-3.12,5.52-5.45,.25-.49,.86-.68,1.35-.43,.49,.25,.68,.86,.43,1.35-1.4,2.71-3.68,4.96-6.41,6.33-2.02,1.01-4.27,1.53-6.53,1.53Z"/>
      <path class="cls-8" d="M233.89,131.82c-.19,0-.39-.06-.56-.17-5.22-3.52-10.96-2.29-11.02-2.27-.54,.12-1.07-.22-1.19-.76-.12-.54,.22-1.07,.76-1.19,.27-.06,6.65-1.43,12.57,2.57,.46,.31,.58,.93,.27,1.39-.19,.29-.51,.44-.83,.44Z"/>
      <path class="cls-8" d="M255.21,133.15c-.32,0-.64-.15-.83-.44-.31-.46-.19-1.08,.27-1.39,5.92-3.99,12.3-2.63,12.57-2.57,.54,.12,.88,.66,.76,1.19-.12,.54-.65,.88-1.19,.76h0c-.06-.01-5.83-1.22-11.02,2.27-.17,.12-.37,.17-.56,.17Z"/>
    </g>
    <g class="cls-10">
      <g>
        <g>
          <rect class="cls-3" x="34" y="403.67" width="422.68" height="21.89"/>
          <rect class="cls-3" x="42.81" y="425.56" width="405.07" height="78.59"/>
        </g>
        <g>
          <path class="cls-8" d="M456.69,426.56H34c-.55,0-1-.45-1-1v-21.89c0-.55,.45-1,1-1H456.69c.55,0,1,.45,1,1v21.89c0,.55-.45,1-1,1Zm-421.68-2H455.69v-19.89H35v19.89Z"/>
          <path class="cls-8" d="M447.88,505.15c-.55,0-1-.45-1-1v-77.59H43.81v77.59c0,.55-.45,1-1,1s-1-.45-1-1v-78.59c0-.55,.45-1,1-1H447.88c.55,0,1,.45,1,1v78.59c0,.55-.45,1-1,1Z"/>
        </g>
        <path class="cls-8" d="M373.25,474.26H117.44c-.55,0-1-.45-1-1v-47.7c0-.55,.45-1,1-1h255.81c.55,0,1,.45,1,1v47.7c0,.55-.45,1-1,1Zm-254.81-2h253.81v-45.7H118.44v45.7Z"/>
      </g>
    </g>
    <g>
      <g>
        <path class="cls-9" d="M200.63,398.84v5.64h-19.72c-4.96-21.51,0-39.61,0-39.61h19.72v5.64h-16.63s-4.06,13.7,0,28.32h16.63Z"/>
        <path class="cls-2" d="M183.99,370.52h15.72s-4.06,13.7,0,28.32h-15.72c-4.06-14.62,0-28.32,0-28.32Z"/>
        <path class="cls-9" d="M49.74,364.87H180.9s-4.96,18.1,0,39.61H49.74c-4.95-21.5,0-39.6,0-39.6h0Zm120.09,27.61v-15.62H76.63v15.62h93.21Zm-100.14-8.16c0-5.72-3.58-10.35-7.99-10.35s-7.99,4.63-7.99,10.35,3.58,10.36,7.99,10.36,7.99-4.63,7.99-10.36Z"/>
        <rect class="cls-1" x="76.63" y="376.87" width="93.21" height="15.62"/>
        <path class="cls-8" d="M61.7,373.98c4.41,0,7.99,4.63,7.99,10.35s-3.58,10.36-7.99,10.36-7.99-4.63-7.99-10.36,3.58-10.35,7.99-10.35Z"/>
      </g>
      <path class="cls-8" d="M200.63,405.47h-19.72c-.47,0-.87-.32-.97-.78-4.96-21.5-.04-39.91,.01-40.1,.12-.43,.51-.74,.96-.74h19.72c.55,0,1,.45,1,1v5.64c0,.55-.45,1-1,1h-15.86c-.72,2.91-3.13,14.3,0,26.32h15.87c.55,0,1,.45,1,1v5.64c0,.55-.45,1-1,1Zm-18.92-2h17.92v-3.64h-15.63c-.45,0-.84-.3-.96-.73-4.09-14.73-.16-28.3,0-28.87,.13-.42,.52-.72,.96-.72h15.63v-3.64h-17.94c-.82,3.54-4.01,19.34,.02,37.61Z"/>
      <path class="cls-8" d="M199.71,399.84h-15.72c-.45,0-.84-.3-.96-.73-4.09-14.73-.16-28.3,0-28.87,.13-.42,.52-.72,.96-.72h15.72c.32,0,.61,.15,.8,.4,.19,.25,.25,.58,.16,.88-.04,.13-3.93,13.62,0,27.77,.08,.3,.02,.62-.17,.87-.19,.25-.48,.39-.8,.39Zm-14.95-2h13.66c-2.94-11.82-.87-22.67,0-26.32h-13.66c-.72,2.91-3.13,14.3,0,26.32Z"/>
      <path class="cls-8" d="M180.91,405.47H49.75c-.47,0-.87-.32-.97-.78-1.54-6.69-2.29-13.75-2.22-20.98,.11-11.01,2.07-18.49,2.23-19.08,.11-.44,.5-.77,.97-.77H180.91c.31,0,.61,.15,.79,.39,.19,.25,.25,.57,.17,.87-.05,.18-4.83,18.13,.01,39.12,.07,.3,0,.61-.19,.85-.19,.24-.48,.38-.78,.38Zm-130.36-2H179.66c-3.81-17.76-1-33.19-.02-37.61H50.53c-.5,2.15-1.89,8.86-1.98,17.87-.06,6.79,.61,13.43,2,19.74Z"/>
    </g>
    <g>
      <g>
        <path class="cls-3" d="M181.45,360.13v4.74H102.16c-3.96-18.08,0-33.25,0-33.25h79.29v4.74H104.72s-2.97,11.89,0,23.78h76.73Z"/>
        <path class="cls-2" d="M104.72,336.35h75.81s-2.95,11.89,0,23.78H104.72c-2.97-11.89,0-23.78,0-23.78Z"/>
        <path class="cls-3" d="M89.84,331.62h12.33s-3.96,15.17,0,33.25h-12.33c-3.96-18.08,0-33.25,0-33.25Z"/>
        <path class="cls-9" d="M84.35,331.62h5.48s-3.96,15.17,0,33.25h-5.48c-3.97-18.08,0-33.25,0-33.25Z"/>
        <path class="cls-3" d="M44.61,331.62h39.75s-3.97,15.17,0,33.25H44.61c-3.96-18.08,0-33.25,0-33.25Z"/>
        <path class="cls-9" d="M39.11,331.62h5.49s-3.96,15.17,0,33.25h-5.49c-3.96-18.08,0-33.25,0-33.25Z"/>
        <path class="cls-3" d="M28.83,331.62h10.28s-3.96,15.17,0,33.25h-10.28c-1.32-6.03-1.76-11.72-1.76-16.64,0-9.85,1.76-16.6,1.76-16.6h0Z"/>
      </g>
      <path class="cls-8" d="M181.45,365.87H102.16c-.47,0-.88-.33-.98-.79-3.96-18.11-.15-33.09,0-33.72,.12-.44,.51-.75,.97-.75h79.29c.55,0,1,.45,1,1v4.74c0,.55-.45,1-1,1H105.52c-.56,2.7-2.2,12.22-.01,21.78h75.94c.55,0,1,.45,1,1v4.74c0,.55-.45,1-1,1Zm-78.48-2h77.48v-2.74H104.72c-.46,0-.86-.31-.97-.76-2.99-11.99-.12-23.77,0-24.26,.11-.45,.51-.76,.97-.76h75.73v-2.74H102.96c-.7,3.19-3.1,16.2,.02,31.25Z"/>
      <path class="cls-8" d="M180.53,361.13H104.72c-.46,0-.86-.31-.97-.76-2.99-11.99-.12-23.77,0-24.26,.11-.45,.51-.76,.97-.76h75.81c.31,0,.6,.14,.79,.38,.19,.24,.26,.56,.18,.86-.03,.12-2.86,11.8,0,23.3,.07,.3,0,.62-.18,.86-.19,.24-.48,.38-.79,.38Zm-75.02-2h73.76c-2.04-9.45-.63-18.53,.02-21.78H105.52c-.56,2.7-2.2,12.22-.01,21.78Z"/>
      <path class="cls-8" d="M102.16,365.87h-12.33c-.47,0-.88-.33-.98-.79-3.96-18.11-.15-33.09,0-33.72,.12-.44,.51-.75,.97-.75h12.33c.31,0,.6,.14,.79,.39,.19,.25,.25,.56,.18,.86-.04,.15-3.85,15.17,0,32.78,.06,.3,0,.6-.2,.84-.19,.24-.48,.37-.78,.37Zm-11.52-2h10.29c-2.99-14.82-.86-27.33-.03-31.25h-10.28c-.7,3.19-3.1,16.2,.02,31.25Z"/>
      <path class="cls-8" d="M89.84,365.87h-5.49c-.47,0-.88-.33-.98-.79-3.97-18.11-.16-33.09,0-33.72,.11-.44,.51-.75,.97-.75h5.49c.31,0,.6,.14,.79,.39,.19,.25,.25,.56,.18,.86-.04,.15-3.85,15.17,0,32.78,.06,.3,0,.6-.2,.84-.19,.24-.48,.37-.78,.37Zm-4.68-2h3.44c-2.99-14.82-.86-27.33-.03-31.25h-3.43c-.7,3.19-3.11,16.19,.01,31.25Z"/>
      <path class="cls-8" d="M84.35,365.87H44.61c-.47,0-.88-.33-.98-.79-3.96-18.11-.15-33.09,0-33.72,.12-.44,.51-.75,.97-.75h39.75c.31,0,.6,.14,.79,.39,.19,.25,.25,.56,.18,.86-.04,.15-3.85,15.17,0,32.78,.07,.3,0,.6-.2,.84-.19,.24-.48,.37-.78,.37Zm-38.94-2h37.7c-2.99-14.81-.86-27.33-.03-31.25H45.4c-.7,3.19-3.1,16.2,.02,31.25Z"/>
      <path class="cls-8" d="M44.61,365.87h-5.49c-.47,0-.88-.33-.98-.79-3.96-18.11-.15-33.09,0-33.72,.12-.44,.51-.75,.97-.75h5.49c.31,0,.6,.14,.79,.39,.19,.25,.25,.56,.18,.86-.04,.15-3.85,15.17,0,32.78,.06,.3,0,.6-.2,.84-.19,.24-.48,.37-.78,.37Zm-4.68-2h3.45c-2.99-14.82-.86-27.33-.03-31.25h-3.44c-.7,3.19-3.1,16.2,.02,31.25Z"/>
      <path class="cls-8" d="M39.11,365.87h-10.28c-.47,0-.88-.33-.98-.79-1.18-5.4-1.78-11.07-1.78-16.86,0-9.65,1.65-16.28,1.79-16.82,.1-.45,.5-.78,.97-.78h10.28c.31,0,.6,.14,.79,.39,.19,.25,.25,.56,.18,.86-.04,.15-3.85,15.17,0,32.78,.06,.3,0,.6-.2,.84-.19,.24-.48,.37-.78,.37Zm-9.48-2h8.24c-2.99-14.82-.86-27.33-.03-31.25h-8.23c-.44,1.99-1.56,7.85-1.56,15.61,0,5.37,.53,10.62,1.57,15.64Zm-.81-32.24h0Z"/>
    </g>
    <g>
      <g>
        <polygon class="cls-1" points="221.2 326.19 221.2 331.7 134.25 331.7 134.25 326.19 218.06 326.19 221.2 326.19"/>
        <path class="cls-2" d="M219.49,323.05l-1.42,3.14h-83.81v-.18s-2.71-5.51-6.85-5.51v-2.84c1.94-.95,30.92-17.03,50.56-13.85,23.62,3.81,41.52,19.25,41.52,19.25Z"/>
        <path class="cls-8" d="M134.25,326.19v5.51s-2.71-5.51-6.85-5.51-7.1,5.51-7.1,5.51v-5.7s2.94-5.51,7.1-5.51,6.85,5.51,6.85,5.51v.18Z"/>
        <path class="cls-2" d="M127.4,317.66v2.84c-4.15,0-7.1,5.51-7.1,5.51v.18H36.73l-1.42-3.9s17.91-13.91,41.52-17.72c23.62-3.82,50.57,13.05,50.57,13.05-.18,.11-.18,.13,0,.04Z"/>
        <path class="cls-1" d="M127.4,317.62v.04c-.18,.09-.18,.08,0-.04Z"/>
        <polygon class="cls-1" points="120.3 326.19 120.3 331.7 33.35 331.7 33.35 326.19 36.73 326.19 120.3 326.19"/>
        <polygon class="cls-3" points="162.4 319.95 179.87 319.95 179.87 345 171.13 339.43 162.4 345 162.4 319.95"/>
      </g>
      <g>
        <path class="cls-8" d="M162.39,332.71h-28.14c-.55,0-1-.45-1-1v-5.51c0-.55,.45-1,1-1h28.14c.55,0,1,.45,1,1v5.51c0,.55-.45,1-1,1Zm-27.14-2h26.14v-3.51h-26.14v3.51Z"/>
        <path class="cls-8" d="M221.2,332.71h-41.34c-.55,0-1-.45-1-1v-5.51c0-.55,.45-1,1-1h41.34c.55,0,1,.45,1,1v5.51c0,.55-.45,1-1,1Zm-40.34-2h39.34v-3.51h-39.34v3.51Z"/>
      </g>
      <path class="cls-8" d="M218.06,327.19h-38.2c-.55,0-1-.45-1-1v-5.24h-15.47v5.24c0,.55-.45,1-1,1h-28.14c-.53,0-.96-.41-1-.93-.5-.91-2.78-4.76-5.86-4.76-.55,0-1-.45-1-1v-2.85c0-.38,.22-.73,.56-.9,.13-.06,.37-.19,.73-.38,11.87-6.19,34.22-16.19,50.43-13.56,23.62,3.81,41.83,19.32,42.01,19.47,.34,.29,.44,.77,.26,1.17l-1.42,3.14c-.16,.36-.52,.59-.91,.59Zm-37.2-2h36.55l.84-1.86c-3.23-2.61-19.72-15.2-40.45-18.54-15.65-2.54-37.54,7.28-49.19,13.36-.08,.04-.15,.08-.22,.11v1.33c3.53,.62,5.88,4.38,6.56,5.6h26.44v-5.24c0-.55,.45-1,1-1h17.47c.55,0,1,.45,1,1v5.24Z"/>
      <path class="cls-8" d="M120.3,332.7c-.08,0-.16-.01-.24-.03-.44-.11-.76-.51-.76-.97v-5.7c0-.16,.04-.33,.12-.47,.13-.25,3.28-6.03,7.98-6.03s7.63,5.82,7.75,6.06c.07,.14,.1,.29,.1,.44v5.7c0,.46-.32,.87-.77,.97-.45,.11-.92-.11-1.12-.53-.02-.05-2.49-4.95-5.96-4.95s-6.19,4.93-6.21,4.98c-.18,.33-.52,.53-.88,.53Zm1-6.43v2.28c1.4-1.62,3.52-3.37,6.1-3.37s4.52,1.65,5.85,3.24v-2.17c-.5-.92-2.78-4.75-5.85-4.75s-5.54,3.83-6.1,4.77Z"/>
      <path class="cls-8" d="M120.3,327.19H36.73c-.42,0-.8-.26-.94-.66l-1.42-3.9c-.15-.41-.02-.87,.33-1.13,.18-.14,18.38-14.11,41.98-17.92,23.71-3.84,50.14,12.5,51.26,13.19,.29,.18,.47,.5,.47,.84v2.89c0,.55-.45,1-1,1-3.09,0-5.55,3.85-6.1,4.78-.05,.51-.47,.91-1,.91Zm0-1.18h0Zm-82.87-.82H119.62c.71-1.19,3.21-4.98,6.78-5.6v-1.37h0s-.02-.03-.02-.05c-3.76-2.23-28.15-16.05-49.38-12.62-20.76,3.35-37.24,14.72-40.49,17.09l.93,2.55Z"/>
      <path class="cls-8" d="M127.24,318.71c-.54,0-.81-.43-.85-.5-.08-.14-.43-.86,.46-1.43,.31-.2,.7-.21,1.02-.04,.32,.18,.52,.51,.52,.88v.04c0,.38-.21,.72-.55,.89-.23,.12-.43,.16-.61,.16Z"/>
      <path class="cls-8" d="M120.3,332.7H33.35c-.55,0-1-.45-1-1v-5.51c0-.55,.45-1,1-1H120.3c.55,0,1,.45,1,1v5.51c0,.55-.45,1-1,1Zm-85.95-2H119.3v-3.51H34.35v3.51Z"/>
      <path class="cls-8" d="M179.87,346c-.19,0-.37-.05-.54-.16l-8.2-5.23-8.2,5.23c-.31,.2-.7,.21-1.02,.03-.32-.18-.52-.51-.52-.88v-25.04c0-.55,.45-1,1-1h17.47c.55,0,1,.45,1,1v25.04c0,.37-.2,.7-.52,.88-.15,.08-.32,.12-.48,.12Zm-16.47-25.04v22.22l7.2-4.59c.33-.21,.75-.21,1.08,0l7.2,4.59v-22.22h-15.47Z"/>
    </g>
    <g>
      <path class="cls-8" d="M441.21,262.45c-1.51,4.68-2.57,8.58-3.53,12.29l-.39-.09c-3.27-4.3-5.16-6.22-9.17-9.32l-.12-.14c1.62-1.49,3.31-3.14,5.15-5.02,3.38,.62,5.01,1.07,8.07,2.28Z"/>
      <path class="cls-5" d="M437.29,274.64l.39,.09c-1.56,5.91-2.85,11.37-5.3,18.83,0,0-3.76-1.82-2.77-6.14,.16-.69-.46-1.33-1.06-1.02-1.64,.84-4.07,1.48-6.57,.1-2.51-1.39-3.26-3.79-3.41-5.62-.07-.67-.92-.87-1.44-.35-3.12,3.14-6.67,.91-6.67,.91,6.68-7.02,11.57-10.69,17.53-16.25l.12,.14c4.01,3.1,5.89,5.01,9.17,9.32Z"/>
      <path class="cls-9" d="M428.55,286.42c.6-.31,1.22,.33,1.06,1.02-.99,4.32,2.77,6.14,2.77,6.14-17.49,31.64-19.34,34.99-31.42,56.86-8.03-2.5-15.53-6.65-21.93-12.11,12.09-21.86,13.93-25.23,31.44-56.87,0,0,3.54,2.23,6.67-.91,.52-.52,1.37-.31,1.44,.35,.15,1.83,.9,4.24,3.41,5.62,2.5,1.38,4.93,.75,6.57-.1Z"/>
      <path class="cls-7" d="M400.96,350.43c-.73,1.33-1.37,2.49-1.96,3.54-8.07-2.4-15.6-6.56-21.93-12.13,.16-.3,.33-.6,.5-.9,.18-.33,.37-.65,.53-.98,.3-.52,.6-1.07,.92-1.66,6.4,5.46,13.91,9.61,21.93,12.11Z"/>
      <path class="cls-6" d="M399.01,353.97c-.14,.24-.26,.46-.38,.68-.05,.11-.11,.22-.18,.31-.12,.23-.24,.45-.37,.67-.12,.23-.24,.45-.37,.67-.12,.22-.24,.43-.37,.67-.05,.1-.11,.19-.15,.29-.08,.12-.15,.24-.22,.38-.08,.14-.16,.29-.24,.45-.12,.22-.24,.46-.39,.72-8.13-2.24-15.71-6.42-21.93-12.13,.56-1,.96-1.75,1.39-2.5,.08-.16,.18-.33,.26-.48,.2-.37,.41-.73,.61-1.1,.08-.15,.15-.29,.23-.42,.05-.11,.11-.22,.18-.33,6.33,5.57,13.86,9.72,21.93,12.13Z"/>
      <path class="cls-2" d="M398.63,354.65c-.05,.11-.11,.22-.18,.31,.07-.09,.12-.2,.18-.31Z"/>
      <path class="cls-2" d="M398.45,354.96c-.04,.11-.09,.2-.15,.3-.07,.12-.14,.24-.22,.37,.12-.22,.24-.43,.37-.67Z"/>
      <path class="cls-2" d="M398.08,355.63c.08-.12,.15-.24,.22-.37-.22,.39-.42,.76-.62,1.13,.01-.04,.03-.07,.04-.1,.12-.22,.24-.43,.37-.67Z"/>
      <path class="cls-2" d="M397.72,356.29s-.03,.05-.04,.1c-.09,.18-.19,.35-.3,.54t-.03,.03c.12-.23,.24-.45,.37-.67Z"/>
      <path class="cls-2" d="M397.38,356.93c-.05,.1-.11,.2-.18,.31,.04-.09,.1-.19,.15-.29t.03-.03Z"/>
      <path class="cls-2" d="M397.2,357.24c-.04,.08-.09,.16-.14,.26-.03,.04-.05,.08-.08,.12,.07-.14,.14-.26,.22-.38Z"/>
      <path class="cls-2" d="M397.06,357.5c-.1,.18-.2,.37-.33,.57,.08-.16,.16-.31,.24-.45,.03-.04,.05-.08,.08-.12Z"/>
      <path class="cls-7" d="M396.34,358.79c-.18,.31-.34,.62-.52,.94-.45,.79-.9,1.6-1.36,2.43-8.19-2.13-15.77-6.33-21.92-12.13,.69-1.26,1.3-2.35,1.86-3.37,6.22,5.7,13.8,9.89,21.93,12.13Z"/>
      <path class="cls-2" d="M395.83,359.73c-.42,.75-.86,1.55-1.34,2.43h-.01c.46-.83,.91-1.64,1.36-2.43Z"/>
      <path class="cls-1" d="M394.47,362.16c-.84,1.53-1.72,3.14-2.66,4.82-2.48,4.49-8.27,6.59-13.02,4.47-2.4-1.07-3.56-1.72-5.74-3.18-4.33-2.89-5.65-8.91-3.16-13.4,.94-1.68,1.82-3.3,2.68-4.83,6.15,5.8,13.73,9.99,21.92,12.13Z"/>
      <path class="cls-8" d="M437.68,275.74c-.08,0-.16,0-.24-.03l-.39-.09c-.22-.05-.42-.18-.56-.37-3.21-4.22-5.05-6.09-8.98-9.13-.05-.04-.09-.08-.13-.12l-.12-.14c-.37-.41-.34-1.03,.06-1.41,1.74-1.6,3.41-3.24,5.11-4.99,.23-.24,.57-.34,.9-.29,3.5,.65,5.2,1.13,8.25,2.33,.49,.19,.75,.73,.58,1.24-1.53,4.75-2.59,8.69-3.51,12.23-.12,.45-.52,.75-.97,.75Zm-8.17-10.59c3.2,2.53,5.05,4.38,7.63,7.68,.77-2.91,1.66-6.1,2.82-9.79-2.27-.87-3.78-1.28-6.49-1.79-1.32,1.35-2.63,2.64-3.97,3.9Z"/>
      <path class="cls-8" d="M432.38,294.57c-.15,0-.3-.03-.44-.1-1.51-.73-4.1-3.11-3.37-6.96-1.81,.82-4.39,1.36-7.08-.13-2.19-1.21-3.56-3.34-3.88-6.02-2.8,2.78-6.24,1.83-7.68,.93-.25-.16-.42-.42-.46-.72-.04-.3,.06-.6,.27-.81,4.37-4.59,8.05-7.82,11.6-10.94,1.91-1.68,3.89-3.42,5.97-5.35,.2-.18,.44-.29,.72-.27,.27,.01,.52,.13,.7,.33l.06,.07c3.96,3.06,5.88,5,9.06,9.16h.05c.26,.07,.49,.24,.62,.47,.14,.23,.18,.51,.11,.77-.31,1.16-.6,2.3-.9,3.45-1.2,4.63-2.44,9.41-4.41,15.44-.09,.27-.29,.5-.56,.61-.13,.05-.26,.08-.39,.08Zm-3.51-9.24c.37,0,.73,.12,1.04,.36,.58,.45,.85,1.23,.68,1.97-.5,2.16,.45,3.55,1.26,4.31,1.72-5.37,2.86-9.77,3.96-14.03,.23-.89,.46-1.78,.7-2.67,0,0-.01-.01-.02-.02-3.06-4.03-4.88-5.92-8.46-8.72-1.86,1.72-3.64,3.28-5.37,4.79-3.39,2.97-6.61,5.8-10.45,9.76,1.08,.26,2.7,.28,4.21-1.25,.54-.54,1.33-.72,2.01-.48,.63,.22,1.06,.77,1.13,1.44,.13,1.56,.73,3.65,2.9,4.85,2.15,1.19,4.25,.6,5.63-.11,.25-.13,.51-.19,.77-.19Zm.15,1.97s0,0,0,0c0,0,0,0,0,0Z"/>
      <path class="cls-8" d="M400.96,351.43c-.1,0-.2-.01-.3-.04-8.1-2.52-15.8-6.78-22.28-12.31-.36-.31-.46-.83-.23-1.24l10.39-18.8c5.12-9.27,9.92-17.96,21.05-38.07,.13-.24,.36-.42,.62-.48,.27-.07,.55-.02,.78,.12,.11,.07,2.92,1.74,5.43-.77,.54-.54,1.33-.72,2.01-.48,.63,.22,1.06,.77,1.13,1.44,.13,1.56,.73,3.65,2.9,4.85,2.15,1.19,4.25,.6,5.63-.11,.58-.31,1.28-.24,1.81,.17,.58,.45,.85,1.23,.68,1.97-.79,3.46,2.11,4.95,2.24,5.01,.24,.12,.43,.34,.51,.6,.08,.26,.05,.54-.08,.78l-31.42,56.86c-.18,.33-.52,.52-.87,.52Zm-20.66-13.35c5.93,4.93,12.88,8.76,20.18,11.15l30.57-55.31c-1.44-1.08-3.07-3.25-2.48-6.4-1.81,.82-4.39,1.36-7.08-.13-2.19-1.21-3.56-3.34-3.88-6.02-2.3,2.28-5.03,2.05-6.73,1.4-10.8,19.52-15.54,28.09-20.59,37.24l-9.99,18.08Zm48.72-50.78s0,0,0,0c0,0,0,0,0,0Z"/>
      <path class="cls-8" d="M394.47,363.16c-.08,0-.17-.01-.25-.03-8.34-2.17-16.07-6.45-22.35-12.37-.33-.31-.41-.81-.19-1.21,.35-.64,.68-1.23,.99-1.8,.31-.55,.59-1.07,.87-1.57l.53-.97c.31-.56,.58-1.05,.86-1.54l.07-.13c.06-.12,.13-.24,.2-.36l.61-1.09s.08-.15,.14-.25l.08-.15c.05-.11,.12-.24,.2-.37,.14-.26,.31-.57,.49-.88l.17-.32c.11-.2,.22-.4,.32-.6,.22-.39,.42-.75,.62-1.12l.32-.58c.15-.26,.4-.44,.7-.5,.29-.05,.6,.03,.83,.22,6.28,5.36,13.74,9.48,21.58,11.92,.29,.09,.52,.3,.63,.58,.11,.28,.09,.59-.05,.86l-2.34,4.23c-.05,.1-.11,.22-.19,.34-.1,.19-.2,.36-.3,.54l-.05,.1c-.12,.22-.24,.45-.37,.67-.13,.24-.24,.43-.35,.64-.05,.09-.09,.15-.12,.21-.02,.06-.05,.11-.09,.16-.06,.09-.11,.18-.16,.28-.1,.18-.17,.3-.24,.44l-.17,.32c-.08,.14-.16,.29-.25,.45l-.82,1.47c-.22,.4-.45,.8-.67,1.21l-.38,.67c-.18,.32-.52,.51-.87,.51Zm-20.66-13.33c5.74,5.24,12.68,9.08,20.17,11.16,.21-.4,.44-.81,.67-1.21l.82-1.48c.08-.14,.15-.28,.22-.4l.17-.31c.07-.14,.16-.31,.26-.47,.04-.09,.11-.22,.2-.35,.05-.1,.11-.2,.16-.3,.1-.19,.22-.4,.34-.61,.14-.25,.26-.46,.38-.69l.06-.11c.1-.18,.2-.36,.3-.55,.02-.04,.04-.07,.07-.11,.04-.06,.07-.12,.1-.19l1.77-3.19c-7.29-2.43-14.22-6.26-20.18-11.15-.12,.21-.23,.41-.35,.61-.08,.17-.21,.4-.33,.62l-.18,.33c-.19,.32-.35,.61-.5,.9-.08,.13-.12,.21-.16,.3l-.11,.2c-.04,.07-.08,.14-.12,.21l-.63,1.13c-.07,.12-.12,.22-.17,.32l-.09,.16c-.28,.5-.55,.99-.86,1.54l-.53,.96c-.27,.5-.56,1.03-.87,1.58-.2,.35-.4,.72-.61,1.1Z"/>
      <path class="cls-8" d="M398.08,356.63c-.18,0-.36-.05-.52-.15-.46-.28-.61-.87-.35-1.34l.05-.1c.1-.18,.2-.36,.3-.55,.25-.47,.81-.66,1.3-.44,.48,.22,.71,.77,.52,1.26-.06,.16-.14,.3-.22,.44-.08,.15-.16,.29-.25,.42-.19,.29-.51,.45-.83,.45Z"/>
      <path class="cls-8" d="M397.67,357.39c-.13,0-.27-.03-.4-.09-.47-.21-.71-.74-.55-1.23,.03-.1,.06-.16,.09-.23,.14-.25,.26-.46,.38-.69,.11-.17,.16-.27,.21-.36,0,0,0,0,0,0h0c.27-.48,.88-.65,1.35-.39,.48,.27,.66,.86,.4,1.34h0s-.87-.48-.87-.48l.87,.49-.62,1.12c-.18,.33-.52,.51-.87,.51Z"/>
      <path class="cls-8" d="M397.35,357.94c-.21,0-.41-.06-.58-.19-.4-.29-.54-.82-.3-1.26,.12-.22,.24-.44,.36-.65,.27-.47,.87-.67,1.35-.42,.48,.25,.68,.83,.44,1.31l-.89-.45,.89,.46c-.02,.05-.02,.06-.05,.11-.1,.18-.2,.37-.31,.57-.04,.08-.1,.15-.16,.21-.2,.2-.46,.3-.73,.3Z"/>
      <path class="cls-8" d="M397.2,358.25c-.16,0-.32-.04-.46-.12-.46-.24-.66-.8-.45-1.28,.06-.13,.13-.26,.2-.39,.04-.07,.08-.12,.13-.18,.35-.37,.93-.44,1.34-.14,.41,.3,.54,.84,.29,1.29l-.04,.08c-.05,.09-.1,.18-.16,.27-.19,.3-.51,.47-.85,.47Zm.86-.63l.03,.03-.03-.03Zm-.58-.58l-.1-.1,.1,.1Z"/>
      <path class="cls-8" d="M396.98,358.63c-.17,0-.34-.04-.5-.14-.46-.27-.63-.84-.39-1.31,.09-.17,.17-.33,.28-.48,.29-.44,.87-.58,1.33-.31,.46,.26,.63,.84,.4,1.31l-.08,.14c-.02,.06-.09,.17-.12,.23l-.08,.12c-.19,.29-.51,.45-.83,.45Z"/>
      <path class="cls-8" d="M396.74,359.07c-.16,0-.33-.04-.48-.12-.47-.26-.66-.84-.42-1.32,.09-.19,.19-.36,.28-.52,0-.02,.06-.09,.07-.11,.3-.44,.91-.61,1.37-.33,.46,.28,.64,.83,.38,1.3-.1,.19-.22,.39-.35,.61-.19,.31-.52,.49-.86,.49Z"/>
      <path class="cls-8" d="M394.48,363.16c-.36,0-.69-.19-.87-.5-.18-.31-.19-.69-.01-1l.37-.65c.27-.47,.86-.65,1.34-.39,.48,.25,.67,.84,.43,1.33-.12,.23-.25,.47-.38,.7-.18,.31-.51,.51-.87,.51Z"/>
      <path class="cls-8" d="M382.7,373.27c-1.47,0-2.94-.29-4.32-.91-2.39-1.07-3.6-1.74-5.89-3.26-4.68-3.13-6.24-9.73-3.49-14.72,.46-.83,.91-1.65,1.35-2.45,.45-.82,.89-1.62,1.33-2.39,.15-.27,.42-.45,.72-.5,.3-.05,.61,.05,.84,.26,6.03,5.69,13.46,9.8,21.48,11.89,.3,.08,.54,.29,.67,.57,.12,.28,.11,.61-.04,.88-.84,1.54-1.73,3.14-2.67,4.83-2.02,3.65-5.99,5.8-9.99,5.8Zm-9.89-21.64c-.23,.42-.47,.84-.7,1.28-.44,.8-.89,1.62-1.36,2.45-2.27,4.1-.99,9.52,2.85,12.08,2.2,1.46,3.3,2.07,5.6,3.1,4.21,1.88,9.47,.06,11.74-4.04,.71-1.28,1.4-2.52,2.05-3.71-7.46-2.14-14.39-5.98-20.17-11.16Z"/>
      <path class="cls-8" d="M384.05,343.17c-.17,0-.33-.04-.49-.13-.48-.27-.65-.88-.38-1.36l34.52-61.28c.27-.48,.88-.65,1.36-.38,.48,.27,.65,.88,.38,1.36l-34.52,61.28c-.18,.33-.52,.51-.87,.51Z"/>
      <path class="cls-8" d="M395.15,348.65c-.16,0-.33-.04-.48-.12-.49-.26-.66-.87-.4-1.36l33.41-61.24c.26-.49,.87-.66,1.36-.4,.49,.26,.66,.87,.4,1.36l-33.41,61.24c-.18,.33-.52,.52-.88,.52Z"/>
    </g>
    <g>
      <g>
        <path class="cls-1" d="M422.36,340.83v2.4h-134.27v-2.4h2.03s0,0,0,.01h130.23s0,0,0-.01h2.03Z"/>
        <path class="cls-1" d="M422.36,318.79v2.4h-2.03s0,0,0-.01h-130.23s0,0,0,.01h-2.03v-2.4h134.27Z"/>
        <path class="cls-2" d="M420.34,321.18s0,0,0,.01h-130.22s0,0,0-.01h130.23Z"/>
        <path class="cls-2" d="M420.33,340.83s0,0,0,.01h-130.23s0,0,0-.01h130.22Z"/>
        <path class="cls-2" d="M290.11,321.19h130.22c-1.68,7.28-1.68,12.35,0,19.64h-130.22c1.68-7.28,1.68-12.35,0-19.64Z"/>
        <polygon class="cls-9" points="306.87 324.44 319.63 324.44 319.63 339.19 313.25 336.43 306.87 339.19 306.87 324.44"/>
      </g>
      <path class="cls-8" d="M422.36,344.23h-134.27c-.55,0-1-.45-1-1v-2.4c0-.55,.45-1,1-1h2.03c.06,0,.12,0,.17,.01h129.88c.06,0,.11-.01,.17-.01h2.03c.55,0,1,.45,1,1v2.4c0,.55-.45,1-1,1Zm-133.27-2h132.27v-.4h-.85c-.06,0-.11,.01-.17,.01h-130.23c-.06,0-.12,0-.17-.01h-.85v.4Z"/>
      <path class="cls-8" d="M422.36,322.19h-2.03c-.06,0-.12,0-.17-.01h-129.88c-.06,0-.11,.01-.17,.01h-2.03c-.55,0-1-.45-1-1v-2.4c0-.55,.45-1,1-1h134.27c.55,0,1,.45,1,1v2.4c0,.55-.45,1-1,1Zm-1.85-2h.85v-.4h-132.27v.4h.85c.06,0,.11-.01,.17-.01h130.23c.06,0,.12,0,.17,.01Z"/>
      <path class="cls-8" d="M420.33,322.19h-130.22c-.29,0-.57-.13-.76-.35-.16-.18-.25-.43-.25-.67,0-.55,.45-1,1-1h130.23c.55,0,1,.45,1,1,0,.21-.07,.43-.19,.6-.19,.26-.49,.42-.81,.42Z"/>
      <path class="cls-8" d="M420.34,341.84h-130.23c-.55,0-1-.45-1-1,0-.24,.09-.48,.25-.67,.19-.22,.47-.35,.76-.35h130.22c.32,0,.63,.16,.81,.42,.12,.17,.19,.39,.19,.6,0,.55-.45,1-1,1Z"/>
      <path class="cls-8" d="M420.33,341.83h-130.22c-.3,0-.59-.14-.78-.38-.19-.24-.26-.55-.19-.85,1.66-7.17,1.66-12.01,0-19.19-.07-.3,0-.61,.19-.85,.19-.24,.48-.38,.78-.38h130.22c.3,0,.59,.14,.78,.38,.19,.24,.26,.55,.19,.85-1.66,7.17-1.66,12.01,0,19.19,.07,.3,0,.61-.19,.85-.19,.24-.48,.38-.78,.38Zm-128.97-2h127.73c-1.35-6.38-1.35-11.25,0-17.64h-127.73c1.35,6.38,1.35,11.25,0,17.64Z"/>
      <path class="cls-8" d="M319.63,340.19c-.13,0-.27-.03-.4-.08l-5.99-2.59-5.99,2.59c-.31,.13-.66,.1-.95-.08-.28-.19-.45-.5-.45-.84v-14.75c0-.55,.45-1,1-1h12.76c.55,0,1,.45,1,1v14.75c0,.34-.17,.65-.45,.84-.16,.11-.36,.16-.55,.16Zm-6.38-4.76c.13,0,.27,.03,.4,.08l4.99,2.15v-12.23h-10.76v12.23l4.99-2.15c.13-.05,.26-.08,.4-.08Z"/>
    </g>
    <g>
      <g>
        <path class="cls-9" d="M427.11,398.25v4.63h-18.04c-4.54-17.63,0-32.47,0-32.47h18.04v4.63h-15.22s-3.72,11.23,0,23.22h15.22Z"/>
        <path class="cls-2" d="M411.89,375.03h14.38s-3.72,11.23,0,23.22h-14.38c-3.72-11.98,0-23.22,0-23.22Z"/>
        <path class="cls-9" d="M409.06,402.87h-120.01c-4.54-17.62,0-32.46,0-32.46h0s120.01,0,120.01,0c0,0-4.54,14.84,0,32.47Z"/>
        <rect class="cls-2" x="300.23" y="379.24" width="98.71" height="14.82"/>
      </g>
      <path class="cls-8" d="M427.11,403.87h-18.04c-.46,0-.85-.31-.97-.75-4.56-17.7-.18-32.39,.01-33.01,.13-.42,.52-.71,.96-.71h18.04c.55,0,1,.45,1,1v4.62c0,.55-.45,1-1,1h-14.47c-.69,2.52-2.76,11.61,0,21.22h14.47c.55,0,1,.45,1,1v4.63c0,.55-.45,1-1,1Zm-17.26-2h16.26v-2.63h-14.22c-.44,0-.83-.29-.96-.7-3.77-12.15-.15-23.36,0-23.83,.14-.41,.52-.69,.95-.69h14.22v-2.62h-16.28c-.79,3.08-3.56,15.79,.02,30.47Z"/>
      <path class="cls-8" d="M426.27,399.25h-14.38c-.44,0-.83-.29-.95-.7-3.77-12.15-.15-23.36,0-23.83,.14-.41,.52-.69,.95-.69h14.38c.32,0,.62,.15,.81,.41,.19,.26,.24,.59,.14,.9-.04,.11-3.57,11.09,0,22.61,.09,.3,.04,.63-.15,.89-.19,.26-.49,.41-.8,.41Zm-13.64-2h12.31c-2.54-9.39-.83-18.01,0-21.22h-12.31c-.69,2.52-2.76,11.61,0,21.22Z"/>
      <path class="cls-8" d="M409.06,403.87h-120.02c-.46,0-.85-.31-.97-.75-1.42-5.51-2.1-11.32-2.04-17.27,.1-9.02,1.88-15.17,2.05-15.71,.12-.43,.5-.75,.97-.75h120.02c.32,0,.62,.15,.8,.41,.19,.25,.25,.58,.15,.89-.04,.15-4.4,14.8,.01,31.93,.08,.3,.01,.62-.18,.86-.19,.25-.48,.39-.79,.39Zm-119.24-2h117.96c-3.39-14.38-1-26.56-.03-30.47h-117.94c-.48,1.86-1.7,7.27-1.78,14.47-.06,5.5,.55,10.88,1.79,16Z"/>
    </g>
    <g>
      <g>
        <path class="cls-3" d="M409.56,366.52v3.88h-72.55c-3.62-14.82,0-27.26,0-27.26h72.55v3.88h-70.21s-2.72,9.75,0,19.49h70.21Z"/>
        <path class="cls-2" d="M339.35,347.03h69.37s-2.7,9.75,0,19.49h-69.37c-2.72-9.75,0-19.49,0-19.49Z"/>
        <path class="cls-3" d="M325.73,343.15h11.28s-3.62,12.43,0,27.26h-11.28c-3.62-14.82,0-27.26,0-27.26Z"/>
        <path class="cls-9" d="M320.71,343.15h5.02s-3.62,12.43,0,27.26h-5.02c-3.63-14.82,0-27.26,0-27.26Z"/>
        <path class="cls-3" d="M284.34,343.15h36.37s-3.63,12.43,0,27.26h-36.37c-3.62-14.82,0-27.26,0-27.26Z"/>
        <path class="cls-9" d="M279.32,343.15h5.03s-3.62,12.43,0,27.26h-5.03c-3.62-14.82,0-27.26,0-27.26Z"/>
        <path class="cls-3" d="M269.91,343.15h9.41s-3.62,12.43,0,27.26h-9.41c-1.21-4.94-1.61-9.61-1.61-13.64,0-8.07,1.61-13.61,1.61-13.61h0Z"/>
      </g>
      <path class="cls-8" d="M409.56,371.4h-72.55c-.46,0-.86-.32-.97-.76-3.64-14.91-.14-27.26,.01-27.77,.12-.43,.52-.72,.96-.72h72.55c.55,0,1,.45,1,1v3.88c0,.55-.45,1-1,1h-69.42c-.53,2.33-1.92,9.88-.02,17.49h69.44c.55,0,1,.45,1,1v3.88c0,.55-.45,1-1,1Zm-71.76-2h70.76v-1.88h-69.21c-.45,0-.84-.3-.96-.73-2.76-9.9-.11-19.62,0-20.03,.12-.43,.51-.73,.96-.73h69.21v-1.88h-70.77c-.66,2.77-2.74,13.2,.01,25.26Z"/>
      <path class="cls-8" d="M408.72,367.52h-69.37c-.45,0-.84-.3-.96-.73-2.76-9.9-.11-19.62,0-20.03,.12-.43,.51-.73,.96-.73h69.37c.31,0,.61,.15,.8,.39,.19,.25,.25,.57,.17,.87-.03,.09-2.59,9.61,0,18.96,.08,.3,.02,.62-.17,.87-.19,.25-.48,.39-.8,.39Zm-68.6-2h67.31c-1.75-7.49-.59-14.66,.02-17.49h-67.31c-.53,2.33-1.92,9.88-.02,17.49Z"/>
      <path class="cls-8" d="M337.01,371.4h-11.28c-.46,0-.86-.31-.97-.76-3.64-14.91-.14-27.26,.01-27.77,.12-.43,.52-.72,.96-.72h11.28c.31,0,.61,.15,.8,.4,.19,.25,.25,.58,.16,.88-.04,.12-3.5,12.37,.01,26.74,.07,.3,0,.61-.19,.85-.19,.24-.48,.38-.79,.38Zm-10.49-2h9.23c-2.6-11.8-.82-21.8-.03-25.26h-9.22c-.66,2.77-2.74,13.2,.01,25.26Z"/>
      <path class="cls-8" d="M325.73,371.4h-5.02c-.46,0-.86-.31-.97-.76-3.65-14.91-.14-27.26,.01-27.77,.12-.43,.52-.72,.96-.72h5.02c.31,0,.61,.15,.8,.4,.19,.25,.25,.58,.16,.88-.04,.12-3.5,12.37,.01,26.74,.07,.3,0,.61-.19,.85-.19,.24-.48,.38-.79,.38Zm-4.23-2h2.97c-2.6-11.8-.82-21.8-.03-25.26h-2.96c-.66,2.77-2.75,13.2,.02,25.26Z"/>
      <path class="cls-8" d="M320.71,371.4h-36.37c-.46,0-.86-.32-.97-.76-3.64-14.91-.14-27.26,.01-27.77,.12-.43,.52-.72,.96-.72h36.37c.31,0,.61,.15,.8,.4,.19,.25,.25,.58,.16,.88-.04,.12-3.5,12.37,.01,26.74,.07,.3,0,.61-.18,.85-.19,.24-.48,.38-.79,.38Zm-35.58-2h34.32c-2.61-11.8-.82-21.8-.03-25.26h-34.31c-.66,2.77-2.74,13.2,.01,25.26Z"/>
      <path class="cls-8" d="M284.34,371.4h-5.03c-.46,0-.86-.31-.97-.76-3.64-14.91-.14-27.26,.01-27.77,.12-.43,.52-.72,.96-.72h5.03c.31,0,.61,.15,.8,.4,.19,.25,.25,.58,.16,.88-.04,.12-3.5,12.37,.01,26.74,.07,.3,0,.61-.19,.85-.19,.24-.48,.38-.79,.38Zm-4.23-2h2.98c-2.6-11.8-.82-21.8-.03-25.26h-2.96c-.66,2.77-2.74,13.2,.01,25.26Z"/>
      <path class="cls-8" d="M279.32,371.4h-9.41c-.46,0-.86-.31-.97-.76-1.09-4.44-1.64-9.11-1.64-13.88,0-7.91,1.5-13.37,1.64-13.86,.11-.43,.5-.76,.97-.76h9.41c.31,0,.61,.15,.8,.4,.19,.25,.25,.58,.16,.88-.04,.12-3.5,12.37,.01,26.74,.07,.3,0,.61-.19,.85-.19,.24-.48,.38-.79,.38Zm-8.62-2h7.36c-2.6-11.8-.82-21.8-.03-25.26h-7.35c-.41,1.72-1.39,6.43-1.39,12.61,0,4.34,.47,8.59,1.4,12.64Zm-.79-26.25h0Z"/>
    </g>
    <g>
      <polygon class="cls-2" points="484.82 82.89 444.89 127.23 424.55 110.31 424.54 110.31 404.22 116.99 406.2 94.27 379.94 76.72 484.82 82.89"/>
      <path class="cls-8" d="M404.22,117.99s-.06,0-.09,0c-.55-.05-.96-.53-.91-1.08l1.99-22.72c.05-.55,.54-.96,1.08-.91,.55,.05,.96,.53,.91,1.08l-1.99,22.72c-.04,.52-.48,.91-1,.91Z"/>
      <path class="cls-8" d="M444.89,128.23c-.23,0-.45-.08-.64-.23l-31.38-26.09c-.29-.24-.42-.62-.34-.99s.36-.66,.73-.75l71.31-18.25c.43-.11,.88,.07,1.1,.45,.23,.38,.18,.86-.11,1.19l-39.93,44.34c-.2,.22-.47,.33-.74,.33Zm-29.24-26.61l29.14,24.23,37.08-41.17-66.21,16.94Z"/>
      <path class="cls-8" d="M406.2,95.27c-.2,0-.39-.06-.56-.17l-26.26-17.55c-.37-.25-.54-.72-.39-1.15,.14-.43,.55-.71,1.01-.68l104.88,6.16c.51,.03,.92,.44,.94,.96s-.35,.96-.86,1.03l-78.62,11.38s-.1,.01-.14,.01Zm-22.64-17.33l22.88,15.29,68.5-9.92-91.38-5.37Z"/>
      <path class="cls-8" d="M404.22,117.99c-.3,0-.58-.13-.78-.37-.26-.32-.29-.77-.08-1.13l9.29-15.85c.28-.48,.89-.64,1.37-.36,.48,.28,.64,.89,.36,1.37l-7.96,13.57,17.82-5.85c.53-.17,1.09,.11,1.26,.64,.17,.52-.11,1.09-.64,1.26l-20.33,6.68c-.1,.03-.21,.05-.31,.05Z"/>
    </g>
    <g>
      <path class="cls-2" d="M113.23,84.33c.08,7.54,3.69,14.56,3.69,14.56-10.47-2.14-16.92-6.49-19.93-9-2.33,.34-4.72,.52-7.16,.52-23.84,0-43.17-17.1-43.17-38.19S65.99,14.02,89.83,14.02s43.18,17.1,43.18,38.2c0,13.46-7.88,25.31-19.78,32.11Z"/>
      <path class="cls-8" d="M116.92,99.9c-.07,0-.13,0-.2-.02-10.35-2.12-16.88-6.38-20.02-8.93-2.26,.31-4.57,.47-6.87,.47-24.36,0-44.17-17.58-44.17-39.19S65.48,13.02,89.83,13.02s44.18,17.59,44.18,39.2c0,13.21-7.38,25.38-19.77,32.67,.25,7,3.53,13.47,3.57,13.54,.18,.34,.14,.75-.09,1.06-.19,.25-.49,.4-.8,.4Zm-19.93-11c.23,0,.46,.08,.64,.23,2.66,2.22,8.37,6.13,17.54,8.35-1.1-2.64-2.89-7.73-2.95-13.14,0-.36,.19-.7,.5-.88,12.07-6.9,19.28-18.57,19.28-31.24,0-20.51-18.92-37.2-42.18-37.2S47.66,31.71,47.66,52.23s18.92,37.19,42.17,37.19c2.35,0,4.71-.17,7.01-.51,.05,0,.1-.01,.15-.01Z"/>
    </g>
    <g>
      <g>
        <rect class="cls-2" x="90.82" y="29.13" width="19.68" height="19.68" transform="translate(201.32 77.94) rotate(180)"/>
        <path class="cls-8" d="M110.5,49.81h-19.68c-.55,0-1-.45-1-1V29.13c0-.55,.45-1,1-1h19.68c.55,0,1,.45,1,1v19.68c0,.55-.45,1-1,1Zm-18.68-2h17.68V30.13h-17.68v17.68Z"/>
      </g>
      <g>
        <rect class="cls-2" x="60.89" y="29.13" width="19.68" height="19.68" transform="translate(141.46 77.94) rotate(180)"/>
        <path class="cls-8" d="M80.57,49.81h-19.68c-.55,0-1-.45-1-1V29.13c0-.55,.45-1,1-1h19.68c.55,0,1,.45,1,1v19.68c0,.55-.45,1-1,1Zm-18.68-2h17.68V30.13h-17.68v17.68Z"/>
      </g>
      <g>
        <rect class="cls-2" x="90.82" y="55.27" width="19.68" height="19.68" transform="translate(201.32 130.23) rotate(180)"/>
        <path class="cls-8" d="M110.5,75.96h-19.68c-.55,0-1-.45-1-1v-19.68c0-.55,.45-1,1-1h19.68c.55,0,1,.45,1,1v19.68c0,.55-.45,1-1,1Zm-18.68-2h17.68v-17.68h-17.68v17.68Z"/>
      </g>
      <g>
        <rect class="cls-2" x="60.89" y="55.27" width="19.68" height="19.68" transform="translate(141.46 130.23) rotate(180)"/>
        <path class="cls-8" d="M80.57,75.96h-19.68c-.55,0-1-.45-1-1v-19.68c0-.55,.45-1,1-1h19.68c.55,0,1,.45,1,1v19.68c0,.55-.45,1-1,1Zm-18.68-2h17.68v-17.68h-17.68v17.68Z"/>
      </g>
      <polygon class="cls-1" points="71.72 73.79 62.57 64.02 67.91 59.02 71.89 63.27 83.25 51.92 88.42 57.09 71.72 73.79"/>
      <polygon class="cls-1" points="71.72 46.89 62.57 37.12 67.91 32.12 71.89 36.37 83.25 25.02 88.42 30.19 71.72 46.89"/>
      <polygon class="cls-1" points="102.08 74.38 92.93 64.61 98.27 59.61 102.25 63.86 113.61 52.51 118.78 57.68 102.08 74.38"/>
      <polygon class="cls-1" points="102.08 47.48 92.93 37.71 98.27 32.71 102.25 36.96 113.61 25.61 118.78 30.78 102.08 47.48"/>
    </g>
  </g>
</svg>