<?xml version="1.0" encoding="UTF-8"?>
<svg xmlns="http://www.w3.org/2000/svg" xmlns:xlink="http://www.w3.org/1999/xlink" viewBox="0 0 500 500">
  <defs>
    <style>
      .cls-1, .cls-2, .cls-3 {
        fill: #fff;
      }

      .cls-4, .cls-5, .cls-6 {
        fill: #f2e7d5;
      }

      .cls-4, .cls-7, .cls-8, .cls-9, .cls-10, .cls-11, .cls-12, .cls-13, .cls-14, .cls-15, .cls-16, .cls-17, .cls-2, .cls-18, .cls-19, .cls-20, .cls-3, .cls-21, .cls-22, .cls-23 {
        stroke-miterlimit: 10;
      }

      .cls-4, .cls-7, .cls-8, .cls-9, .cls-10, .cls-11, .cls-12, .cls-13, .cls-17, .cls-2, .cls-18, .cls-20, .cls-3, .cls-21, .cls-23 {
        stroke: #1d1640;
      }

      .cls-24 {
        opacity: .58;
      }

      .cls-24, .cls-25 {
        fill: #c55adc;
      }

      .cls-5 {
        font-family: 'ae_AlMothnna-Bold', ae_AlMothnna;
        font-size: 18.6px;
        font-weight: 700;
      }

      .cls-7, .cls-8, .cls-9, .cls-11, .cls-12, .cls-14, .cls-15, .cls-16, .cls-17, .cls-26, .cls-19, .cls-22 {
        fill: none;
      }

      .cls-7, .cls-9, .cls-11, .cls-12, .cls-13, .cls-16, .cls-17, .cls-21 {
        stroke-linecap: round;
      }

      .cls-7, .cls-18, .cls-21, .cls-23 {
        stroke-width: .85px;
      }

      .cls-6 {
        opacity: .38;
      }

      .cls-8, .cls-2 {
        stroke-width: .88px;
      }

      .cls-9, .cls-22 {
        stroke-width: 1.25px;
      }

      .cls-27 {
        clip-path: url(#clippath-2);
      }

      .cls-28 {
        isolation: isolate;
      }

      .cls-10, .cls-21 {
        fill: #ac4fbd;
      }

      .cls-29 {
        fill: #f2d069;
      }

      .cls-12 {
        stroke-width: .88px;
      }

      .cls-13 {
        fill: #d16117;
        stroke-width: .91px;
      }

      .cls-14, .cls-15 {
        stroke-width: 2px;
      }

      .cls-14, .cls-19 {
        stroke: #eec84e;
      }

      .cls-15, .cls-22 {
        stroke: #f2e7d5;
      }

      .cls-16 {
        stroke: #9d3cb1;
        stroke-width: 1.35px;
      }

      .cls-30 {
        clip-path: url(#clippath-1);
      }

      .cls-17 {
        stroke-width: 1.12px;
      }

      .cls-31 {
        fill: #6fbf39;
      }

      .cls-32 {
        fill: url(#Nueva_muestra_de_motivo_2-2);
        mix-blend-mode: overlay;
        opacity: .64;
      }

      .cls-33 {
        clip-path: url(#clippath);
      }

      .cls-18, .cls-34 {
        fill: #eec84e;
      }

      .cls-35, .cls-20 {
        fill: #4c2ad2;
      }

      .cls-36 {
        fill: url(#Nueva_muestra_de_motivo_2);
      }

      .cls-37 {
        fill: #68b534;
      }

      .cls-38 {
        clip-path: url(#clippath-3);
      }

      .cls-39, .cls-23 {
        fill: #1d1640;
      }

      .cls-40 {
        fill: #da6cfa;
      }

      .cls-41 {
        fill: #75c442;
      }

      .cls-42 {
        opacity: .61;
      }

      .cls-22 {
        opacity: .24;
      }
    </style>
    <clipPath id="clippath">
      <rect class="cls-26" width="500" height="500"/>
    </clipPath>
    <pattern id="Nueva_muestra_de_motivo_2" data-name="Nueva muestra de motivo 2" x="0" y="0" width="4.9" height="4.9" patternTransform="translate(-18894.99 2578.57) rotate(90) scale(1.38)" patternUnits="userSpaceOnUse" viewBox="0 0 4.9 4.9">
      <g>
        <rect class="cls-26" x="0" y="0" width="4.9" height="4.9"/>
        <circle class="cls-39" cx="2.45" cy="2.45" r=".73"/>
      </g>
    </pattern>
    <clipPath id="clippath-1">
      <rect class="cls-26" x="29" y="165.42" width="319.37" height="316.51" rx="94.58" ry="94.58"/>
    </clipPath>
    <pattern id="Nueva_muestra_de_motivo_2-2" data-name="Nueva muestra de motivo 2" patternTransform="translate(1252.27 1525.23) scale(1.2)" xlink:href="#Nueva_muestra_de_motivo_2"/>
    <clipPath id="clippath-2">
      <circle class="cls-26" cx="52.86" cy="198.73" r="26.18"/>
    </clipPath>
    <clipPath id="clippath-3">
      <path class="cls-26" d="M275.42,81.05h124.3c.21,0,.39,.17,.39,.39v50.2c0,.21-.17,.39-.39,.39h-12.95c-.17,0-.33,.12-.37,.28l-5.24,18.76c-.1,.36-.6,.38-.73,.04l-7.48-18.84c-.06-.15-.2-.24-.36-.24h-97.16c-.21,0-.39-.17-.39-.39v-50.2c0-.21,.17-.39,.39-.39Z"/>
    </clipPath>
  </defs>
  <g class="cls-28">
    <g id="Layer_2" data-name="Layer 2">
      <g id="OBJECTS">
        <g class="cls-33">
          <path class="cls-36" d="M81.63,129.8v-47.67c0-21.33,17.29-38.62,38.62-38.62h0c21.33,0,38.62,17.29,38.62,38.62v47.67c0,21.33-17.29,38.62-38.62,38.62h0c-21.33,0-38.62-17.29-38.62-38.62Z"/>
          <g class="cls-42">
            <rect class="cls-19" x="233.02" y="48.39" width="213.86" height="212.44"/>
            <line class="cls-19" x1="233.02" y1="72.15" x2="446.41" y2="72.15"/>
            <line class="cls-19" x1="233.02" y1="100.19" x2="446.41" y2="100.19"/>
            <line class="cls-19" x1="233.02" y1="128.23" x2="446.41" y2="128.23"/>
            <line class="cls-19" x1="233.02" y1="156.27" x2="446.41" y2="156.27"/>
            <line class="cls-19" x1="233.02" y1="184.31" x2="446.41" y2="184.31"/>
            <line class="cls-19" x1="233.02" y1="212.35" x2="446.41" y2="212.35"/>
            <line class="cls-19" x1="233.02" y1="240.39" x2="446.41" y2="240.39"/>
            <line class="cls-19" x1="265.34" y1="47.91" x2="265.34" y2="260.35"/>
            <line class="cls-19" x1="296.23" y1="47.91" x2="296.23" y2="260.35"/>
            <line class="cls-19" x1="327.12" y1="47.91" x2="327.12" y2="260.35"/>
            <line class="cls-19" x1="358.01" y1="47.91" x2="358.01" y2="260.35"/>
            <line class="cls-19" x1="388.9" y1="47.91" x2="388.9" y2="260.35"/>
            <line class="cls-19" x1="419.79" y1="47.91" x2="419.79" y2="260.35"/>
          </g>
          <g class="cls-30">
            <rect class="cls-41" x="29" y="165.42" width="319.37" height="316.51" rx="94.58" ry="94.58"/>
            <path class="cls-6" d="M267.16,321.14c-13.12,4.21-5.27,4.58-7.51,6.98-7.45,3.13-9.37,3.33-10.15,2.82-.79-.53-.43-1.81-3.27-1.43-4.62,2.2-8.36,4.83-11.86,7.15-3.43,2.44-6.64,4.55-9.97,6.25-.7-.15-2.08,.36-.81-.92-1.06,.85-2.3,1.71-3.66,2.59-1.36,.89-2.82,1.83-4.39,2.76-3.13,1.86-6.57,3.89-10.04,5.95-6.89,4.22-13.82,8.79-18.11,13.4-.89,.31-1.4,.37-1.71,.33,2.43,.03,3.46,1.04,3.68,2.09-1.23,.84-2.35,1.73-3.39,2.6-1.02,.89-1.97,1.72-2.84,2.48-1.75,1.49-3.26,2.51-4.7,2.42,3-2.06,2.83-2.82,3.9-4.27-1.55,1.42-3.11,2.81-4.63,4.24-3.02,.62-1.46-.85,.78-2.6,2.24-1.75,5.1-3.83,4.56-4.62-9.61,7.66-19.53,17.94-27.18,23.3-1.57-.36,2.53-4.01,5.7-6.7,3.15-2.7,5.34-4.53-.31-1.61,4.03-2.7,8.04-5.4,12.15-7.97-11.33,3.34,7.3-5-3.48-2.42-7.94,5.43-11.97,9-15.95,12.65-3.97,3.67-7.94,7.31-15.36,13.62-2.22,4.04,2.47,.54,.28,4.56-4.51,5.18-7.83,8.59-10.6,11-2.75,2.42-4.97,3.81-6.99,5.11-2.05,1.27-3.87,2.49-5.86,4.51-.97,1.04-1.95,2.29-3,3.87-.99,1.62-2.09,3.54-3.13,5.99-.37,1.38-.53,2.6-.73,3.9-.19,1.37-.43,2.73-.78,4.35-.19,.8-.44,1.65-.71,2.61-.29,.95-.65,1.97-1.05,3.14-.83,2.32-1.95,5.13-3.16,8.99-.6-1.99-1.04-4.03-1.4-6.12-1.69,5.15-1.9,8.92-1.68,11.65,.06,1.35,.32,2.5,.56,3.48,.22,.98,.55,1.85,.88,2.71,.16,.42,.31,.85,.48,1.3,.16,.44,.39,.91,.58,1.41,.2,.5,.41,1.03,.62,1.6,.24,.58,.55,1.2,.85,1.89,.15,.35,.31,.71,.48,1.09,.18,.38,.41,.76,.63,1.17,.47,.81,.89,1.74,1.59,2.65,.66,.93,1.36,1.99,2.33,2.96,.47,.5,.94,1.05,1.49,1.58,.57,.49,1.15,1.06,1.82,1.55-.59-.18-1.25-.58-2.01-1.03-.76-.46-1.5-1.12-2.31-1.8-.83-.65-1.52-1.53-2.24-2.38-.34-.44-.73-.84-1-1.31-.28-.46-.56-.91-.83-1.35-.26-.45-.51-.88-.74-1.28-.19-.42-.36-.82-.53-1.19-.32-.75-.58-1.38-.78-1.84-.31-.91-.41-1.13-.25-.17,.22,1.09,.5,2.11,.77,3.04,.28,.93,.71,1.75,1.05,2.51,.19,.38,.37,.74,.54,1.08,.19,.33,.41,.63,.61,.93,.41,.58,.8,1.1,1.17,1.56,.36,.48,.76,.84,1.14,1.16,.38,.32,.73,.61,1.08,.85,.69,.5,1.3,.88,1.96,1.15,1.27,.57,2.5,.9,4.11,1.42,1.61,.51,3.62,1.16,6.56,1.92,.61,1.05,1.26,2.01,1.99,3.02,3.19,.49,6.25,.5,9.17,.31,2.92-.2,5.74-.62,8.39-1.16,2.61-.57,5.24-1.13,7.87-1.76,2.61-.72,5.24-1.43,7.86-2.19,10.46-3.2,20.76-7.45,30.75-12.23-.39,.62-1.39,1.48-1.66,2.01-.28,.51,.23,.81,2.76,.05,3.13-1.64,6.35-3.23,9.5-5.01,3.21-1.68,6.35-3.55,9.56-5.37,6.32-3.76,12.69-7.64,18.8-11.84,12.34-8.25,23.88-17.42,34.04-26.42,1.93-2.95,3.79-5.95,5.59-8.96,1.63-1.75,3.74-2.63,2.3-.41,1.94-1.81,2.85-2.82,3.18-3.37,.33-.54,.09-.61-.3-.59-.78,.05-2.16,.46-.83-1.73,1.91-2.29,3.4-3.62,4.2-3.94,.8-.32,.91,.37-.06,2.06,2.66-3.87,5.79-8.62,9.06-13.86,3.26-5.25,6.59-11.06,9.73-16.99,3.14-5.94,6.05-12.02,8.63-17.78,2.58-5.73,4.82-11.32,6.71-16.03-.13,1.33-.27,2.66-.49,3.98,1.39-3.71,1.99-6.78,2.22-9.45,.06-.67,.11-1.3,.14-1.92,.01-.62,0-1.23-.01-1.82-.03-1.18-.09-2.29-.14-3.38-.1-1.11-.2-2.19-.26-3.31-.03-.56-.05-1.13-.05-1.71-.03-.59-.05-1.19-.06-1.81,.02-2.49,.19-5.31,.65-9,.19,.94,.27,1.88,.39,2.82,.43-8.6-.9-17.76-4.2-26.36l-1.4-3.17c-.25-.52-.45-1.06-.73-1.57l-.84-1.52c-.58-1-1.1-2.04-1.73-3-.65-.95-1.31-1.91-1.96-2.86-2.67-3.77-5.86-7.11-9.27-9.99-6.85-5.76-14.55-9.7-22.07-12.42-3.76-1.36-7.52-2.42-11.15-3.25-3.62-.83-7.14-1.46-10.48-1.96-1.3,.76-4.08,1.01-7.54,1.27-3.46,.25-7.61,.53-11.62,1.08-8.04,1.06-15.44,3.17-15.82,5.6-2.33,.43-4.31,.78-6.03,1.06-1.71,.33-3.14,.62-4.42,.87-1.28,.25-2.43,.43-3.5,.66-1.07,.25-2.09,.48-3.17,.73-1.08,.26-2.21,.55-3.51,.91-1.27,.4-2.71,.88-4.41,1.48-.85,.3-1.77,.61-2.75,1-.97,.4-2.03,.84-3.17,1.31-1.14,.49-2.39,.98-3.7,1.59-1.31,.62-2.72,1.29-4.25,2.01-1.62,.8-2.89,1.74-4.04,2.72-1.14,.97-2.15,2-3.19,3.06-1.01,1.1-2.04,2.24-3.27,3.42-.61,.59-1.28,1.19-2,1.81-.71,.64-1.49,1.29-2.36,1.95l-1.47-1.79c-2.87,2.88-5.58,5.9-8.27,8.89l-6.69,1.68c-2,1.89-4.03,3.75-5.99,5.66,2.59-2,6.04-3.59,6.06-2.77-4.68,4.36-10.74,9.16-15.79,12.84-5.02,3.71-9,6.31-9.53,5.99-6.75,7.49-13.16,15.31-19.21,23.41-.27-1.11,2.78-5.19,5.05-8.56-1.13,1.71-2.04,2.99-2.77,3.97-.72,.99-1.28,1.66-1.72,2.11-.89,.91-1.34,.95-1.77,.96-.84,.02-1.65-.12-5.52,6.39,1.65-1.25,.4,1.71,.56,2.26-2.86,2.46-6.82,7.13-10.72,12.68-3.9,5.54-7.66,11.99-10.42,17.71l-.2-2.9c-2.89,4.99-5.6,10.31-7.95,15.93-1.22,2.75-2.36,5.8-3.37,8.87-1,3.1-1.92,6.31-2.57,9.7-.66,3.38-1.12,6.92-1.23,10.6-.12,3.67,.15,7.53,.99,11.4,.83,3.87,2.23,7.75,4.23,11.32l1.57,2.64c.58,.84,1.2,1.65,1.81,2.47,.59,.84,1.27,1.59,1.96,2.33,.7,.73,1.34,1.54,2.1,2.18-.51-.5-.91-1.04-1.29-1.54-.37-.49-.7-.95-.98-1.38-.59-.83-.93-1.59-1.15-2.19-.44-1.2-.35-1.8,.1-1.88,.45-.08,1.25,.35,2.27,1.2,.51,.42,1.15,.88,1.81,1.47,.67,.58,1.37,1.27,2.2,1.93,.3,1.34,.61,2.81,1.08,4.13,2.75,1.12,1.01-.46-.02-1.59-.49-.62-.83-1.12-.43-1.07,.2,.02,.57,.2,1.21,.51,.66,.29,1.57,.74,2.82,1.38,2.15,1.51,3.56,2.59,4.37,3.3,.8,.74,.97,1.24,.67,1.51-.6,.52-3.18,.22-6.15-1.26,4.01,2.34,8.17,3.93,12.28,5.08,.48,.94-2.51,.29-3.63,.81,.71,.11,1.56,.28,2.52,.6,.48,.15,.99,.33,1.52,.54,.53,.18,1.09,.38,1.68,.58,.58,.21,1.19,.44,1.81,.67,.62,.21,1.26,.43,1.92,.65,.66,.22,1.33,.45,2.01,.67,.68,.2,1.37,.4,2.07,.6,5.57,1.6,11.55,2.43,15.23,1.24l.67,.76c13.08,.36,22.5-.72,31.18-2.06,8.68-1.41,16.65-3.15,26.71-5.85-.07-1.07,1.87-2.04,4.5-3.14,1.32-.54,2.8-1.18,4.28-1.87,1.48-.7,2.98-1.45,4.29-2.33,14.47-4.05,30.62-8.98,46.66-17.48,5.39-3.44,5.98-4.27,5.8-4.72-.18-.44-1.13-.48,1.05-2.41,1.78,1.34,17.26-8.02,9.89-2.08,9.27-5.7,14.99-9.67,21.15-14.23,1.52-1.17,3.07-2.37,4.72-3.63,1.61-1.32,3.31-2.71,5.16-4.22,1.83-1.53,3.76-3.24,5.9-5.1,2.1-1.92,4.41-3.98,6.89-6.36-2.76,1.35-5.58,3.15-4.65,1.57,1.83-1.67,4.08-3.36,5.91-4.47,1.84-1.1,3.23-1.65,3.26-1.07l-.86,1.01c10.61-11.21,24.07-22.73,35.79-35.31,5.87-6.25,11.32-12.69,15.83-19.08,4.54-6.37,8.01-12.77,10.2-18.65-.16,.44-.33,.88-.51,1.31,3.59-7.83,6.78-15.83,9.51-23.94,2.47-5.35,2.11-3.6,1.69-1.43-.42,2.16-.9,4.75,1.38,.93,.25-.84,.5-1.67,.75-2.48,.23-.82,.46-1.63,.69-2.43,.46-1.6,.94-3.14,1.4-4.65,.43-1.52,.87-3,1.31-4.44,.45-1.44,.89-2.84,1.28-4.23,1.67-5.52,3.26-10.63,4.6-15.74,1.34-5.1,2.45-10.18,3.05-15.55,.59-5.36,.68-11.03-.26-17.08,1.1-4.77,.86-11.79-1.43-19.44-2.29-7.64-6.74-16.05-13.61-23.03-.87-.86-1.71-1.74-2.66-2.54-.92-.82-1.85-1.63-2.85-2.37l-1.47-1.13-1.54-1.02c-1.04-.66-2.03-1.39-3.1-1.96-4.21-2.48-8.65-4.22-12.94-5.6-1.08-.31-2.15-.62-3.2-.93-1.06-.27-2.11-.49-3.14-.74-.52-.12-1.03-.24-1.54-.36-.51-.09-1.02-.18-1.52-.28-1.01-.19-2-.37-2.98-.55-3.89-.58-7.52-1.08-10.78-1.45l1.5,1.31c-1.66,.35-2.98,.47-4.11,.49-1.12,.05-2.07-.04-2.96-.19-1.8-.31-3.38-.69-5.82-.62,.82,.95,7.16,.5,3.21,1.61-6.81,.84-13.49,2.16-20.01,3.85-3.2,.91-6.45,1.71-9.65,2.68-1.6,.49-3.2,.99-4.8,1.48l-2.41,.73-2.38,.82c-12.73,4.27-25.23,9.43-37.4,15.26-12.18,5.81-24.01,12.31-35.47,19.2-11.47,6.89-22.58,14.15-33.32,21.59-7.82,5.5-8.98,8.5-10.83,11.59-1.83,3.13-4.41,6.22-14.88,12.39l3.9-6.16c-3.6,3.26-7.28,6.44-10.95,9.69-3.7,3.22-7.41,6.45-11.12,9.68-1.88,1.59-3.72,3.24-5.57,4.89l-5.57,4.91-5.49,5.03-2.75,2.51c-.91,.84-1.8,1.72-2.7,2.57-14.38,13.68-28.02,28.41-38.27,44.88,.44-1.1,.52-1.78,.77-2.56,.24-.79,.65-1.68,1.83-3.16-1.65,1.31-3.49,3.59-5.44,6.18-.97,1.3-1.95,2.68-2.91,4.09-.94,1.42-1.78,2.92-2.61,4.35-.82,1.44-1.58,2.84-2.24,4.13-.67,1.29-1.26,2.47-1.66,3.54-.83,2.1-1.21,3.51-.91,3.73-3.18,5.14-1.85,.55-4.38,3.42-.32,.42-.63,.85-.93,1.31-.29,.47-.56,.96-.83,1.47-.54,1.01-1.05,2.09-1.54,3.19-.98,2.22-1.89,4.51-2.73,6.76-1.69,4.63-2.89,8.88-4.5,10.8-.27,.33-.2-.3-.02-1.22,.2-.9,.55-2.08,.77-2.86-.16,.71-.43,1.63-.78,2.68-.32,1.08-.7,2.3-1.11,3.59-.37,1.32-.78,2.7-1.15,4.1-.33,1.43-.71,2.81-.95,4.18-1.07,5.42-.99,9.67,.27,6.84-.67,4.06-.77,8.27-.22,12.43,.53,4.17,1.92,8.29,3.79,12,.5,.92,.98,1.84,1.51,2.72,.59,.85,1.17,1.69,1.74,2.52,.55,.85,1.24,1.6,1.87,2.37,.62,.79,1.34,1.47,2.01,2.18,2.75,2.78,5.71,5.04,8.6,7.02,1.13,.34,2.39,.71,3.71,1.21,1.33,.43,2.74,.98,4.21,1.46,2.93,1,6.06,1.95,9.04,2.63,5.96,1.36,11.23,1.58,12.51,.01-.66,1.66,6.02,2.8,14.01,2.29,3.99-.2,8.24-.89,12.04-1.69,3.79-.86,7.11-1.89,9.3-2.79-1.41,.86,.62,.65,2.62,.5,2-.13,3.93-.31,2.32,.86,5.23-1.35,10.07-3.07,13.31-4.54,3.22-1.52,4.86-2.73,3.7-3.24,4.9-.71,9.55-2.22,13.87-4.13,4.27-2,8.31-4.22,12.06-6.36,3.68-2.29,7.13-4.41,10.41-6,.82-.39,1.62-.77,2.4-1.14,.78-.36,1.56-.68,2.33-.95,1.54-.54,3.05-.9,4.56-1.03,1.62-1.09,3.25-2.14,4.84-3.24,1.56-1.14,3.11-2.28,4.65-3.41,3.08-2.27,6.18-4.43,9.07-6.85,1.46-1.17,2.92-2.34,4.37-3.5l2.17-1.74,1.08-.86,1.04-.91c2.77-2.42,5.52-4.83,8.25-7.22,10.7-9.8,20.45-19.96,29.46-30.45,.48,.76-.61,2.53-2.42,4.82-.91,1.14-2,2.41-3.18,3.73-1.19,1.31-2.41,2.74-3.75,4.02-2.63,2.62-5.21,5.19-6.93,7.22-.85,1.02-1.51,1.89-1.87,2.54-.35,.66-.38,1.13,.03,1.36,1.21-1.14,2.31-2.34,3.37-3.51,1.06-1.17,2.1-2.31,3.11-3.43,1-1.12,1.99-2.22,2.95-3.3,.48-.54,.96-1.07,1.41-1.62,.44-.55,.89-1.1,1.32-1.65,1.74-2.18,3.42-4.3,5.07-6.38,.81-1.05,1.67-2.04,2.43-3.11,.77-1.06,1.54-2.11,2.3-3.16,1.53-2.1,3.08-4.18,4.66-6.27,1.57-2.1,3.05-4.34,4.68-6.55,.82-1.11,1.64-2.23,2.49-3.37,.86-1.13,1.73-2.28,2.56-3.51,1.7-2.42,3.51-4.92,5.46-7.53,4.26-5.28-.99,3.96-1.85,6.18,7.21-11.09,13.72-22.07,19.59-33,1.39-2.77,2.77-5.52,4.14-8.26,.33-.69,.69-1.36,1-2.06l.9-2.1c.59-1.4,1.18-2.79,1.77-4.18,1.14-2.79,2.34-5.53,3.29-8.36,.99-2.81,1.87-5.65,2.65-8.5,.26,.16-.25,2.69-.89,5.02,1.58-4.37,4.12-10.07,2.49-10.05l-1.08,4.43c-2.33,3.11-1.77-1.61-1.06-7.24,.75-5.63,1.45-12.21,.95-12.74,1.2,4.29,2.93-1.19,4.31-6.27,.72-2.53,1.31-4.95,2.01-5.91,.69-.95,1.47-.47,2.34,2.93,.25-3.15-.04-7.16-1.14-6.56,.79-4.54,1.47-6.03,2.22-1.17,.21-4.31,.09-7.17-.12-9.27-.23-2.1-.47-3.43-.77-4.71-.29-1.29-.49-2.45-.79-4.45-.32-1.96-.6-4.59-1.53-8.64,.75-.12,1.77,3.13,2.8,4.75-1.3-4.14-2.94-8.19-5.54-12.73-1.33-2.26-2.97-4.66-5.3-7.02-2.32-2.33-5.49-4.65-9.51-5.91,.55-.09,.4-.39,.71-.5,.16-.05,.44-.05,.99,.09,.54,.15,1.39,.35,2.55,.99-.84-.46-1.72-.78-2.6-1.08-.87-.32-1.77-.55-2.66-.73-1.79-.34-3.54-.43-5.18-.35-3.3,.18-6.18,.97-8.75,1.93-1.28,.49-2.5,1.02-3.66,1.58-1.16,.56-2.24,1.16-3.34,1.74-1.09,.59-2.14,1.24-3.21,1.86-1.05,.64-2.07,1.32-3.11,1.98-8.18,5.43-15.55,11.88-24.8,19.19,1.54-3.51-.15-2.39-2.56-.51-2.41,1.88-5.46,4.51-6.87,3.91l-8.57,9.13,4.58-2.42c-8,7.43-13.73,15.44-21.3,21.05l5.22-6.3c-4.91,4.72-9.85,9.39-14.84,14.01,3.14-2.25,6.22-4.59,9.34-6.88-7.28,8.41,3.27,1.88-8.15,10.91,1.02-1.08-1.04,.71-4.03,3.08-3,2.36-6.97,5.24-9.65,6.45,0,0,.03-.02,.02-.03-3.58,4.11-7.26,8.41-14.03,12.85-2.19,.6-.6-3.47-2.03-3.09-.34,.64-.89,1.38-1.62,2.18-.74,.79-1.64,1.66-2.67,2.57-2.06,1.81-4.52,3.89-7.12,5.86-2.59,1.98-5.17,4.06-7.44,5.9-2.26,1.85-4.12,3.58-5.15,5.05,1.51-1.76,.77-3.03,0-2.86-.86,1.35-1.7,2.75-2.59,4.08-4.54,2.26-5.31,2.41-5.27,.99-3.18,2.01-4.42,3-4.73,3.52-.3,.53,.35,.6,.91,.69,1.12,.18,1.85,.42-6.19,4.49,1.12-.87,.4-.76,2.74-2.55-7.78,4.5-15.29,8.84-22.65,13.1-3.75,1.98-7.44,4.03-11.2,5.82-3.76,1.78-7.58,3.35-11.47,4.58-2.73-.48,.53-1.84,3.66-3.27,3.15-1.43,6.19-2.89,3.21-2.85-10.53,4.91-21.55,9.55-33.06,11.15-2.86,.37-5.77,.63-8.6,.57-2.84-.07-5.69-.28-8.46-.85-2.77-.55-5.5-1.28-8.05-2.34l-.97-.38-.93-.44c-.62-.3-1.25-.57-1.85-.89-1.18-.67-2.38-1.31-3.46-2.09,1.04,.83,2.19,1.52,3.32,2.26-2.2,1.07-5.85-1.39-9.14-5.29-1.62-1.97-3.22-4.21-4.58-6.57l-.55-.86-.49-.9c-.33-.6-.71-1.16-1.04-1.75-.68-1.17-1.35-2.35-2.08-3.5,1.31,2.33,3.41,2.08,2.7,1.69-2.75-6.26-4.34-13.47-4.56-22.03,.01-1.07,.03-2.16,.04-3.27,.02-1.11-.03-2.24,.11-3.38,.2-2.28,.32-4.67,.8-7.1,.69-4.91,2.11-10.1,4.12-15.59l-.13,1.52c-.03,.51-.03,1.02-.04,1.53,.47-1.02,1.08-2.07,1.68-3.21,.62-1.13,1.17-2.35,1.86-3.56,.68-1.22,1.39-2.47,2.11-3.75,.7-1.29,1.55-2.53,2.33-3.82,3.2-5.09,6.82-10.07,10.16-13.67,.26-.72,.69-1.53,1.14-2.32,.45-.78,.96-1.49,1.3-2.09,.69-1.19,.82-1.83-.88-1.03,6.16-4.79,11.84-9.56,17.41-14.3,5.55-4.73,11.07-9.42,16.62-13.89,5.55-4.49,11.29-8.61,17.29-12.15,5.99-3.56,12.36-6.35,19.04-8.13-2.98,1.34-6.6,4.18-4.28,3.02,6.8-3.64,13.76-7.03,20.93-9.96-1.16-.49-1.97-.46-3.12-.25-1.15,.22-2.65,.56-5.17,.91,2.34-2.11,8.3-5.22,13.86-7.08-4.84,2.28-4.57,2.92-2.54,2.93,1.01,0,2.47-.15,3.95-.34,1.49-.16,3.02-.32,4.17-.44-.88-.28,.43-1.3-.1-1.7,3.14-.2,4.78-.45,5.72-.87,.95-.42,1.2-.97,1.59-1.6,.76-1.24,2.07-2.84,10.51-3.72l-.67,1.07c6.01-1.78,11.49-4.16,18.29-4.67,1.5,.84-.13,1.25-2.14,1.7-2.01,.46-4.42,1-4.49,1.85,4.61-.83,9.06-2.32,13.57-3.21,4.48-.9,9.07-1.15,13.17,.39-4-.01-9.71-.16-13.65,.65,4.64,.95,7.07,1.53,9.25,1.85,2.17,.34,4.06,.48,7.21,1.26l-.61-.17c2.44,.6,4.77,1.41,6.98,2.37,2.23,.96,4.37,2.09,6.35,3.41-.95-.79-1.96-1.49-2.99-2.21,5.99-.17,11.38,3.07,15.47,7.74,2.06,2.35,3.82,5.07,5.32,8.11,1.51,3.04,2.74,6.43,3.82,10.35-.52-1.9-1.08-3.29-1.55-4.31-.25-.51-.46-.92-.65-1.27-.2-.34-.38-.6-.53-.8-.59-.79-.75-.61-.78-.06,.01,1.1,.24,3.76-.98,3.41,0,1.8-.18,4.05-.56,5.64-.37,1.6-.78,2.52-1.05,1.74,.34,1.64,.32,3.19,.03,4.69-.26,1.5-.75,2.94-1.29,4.46-1.08,3.05-2.39,6.36-3.23,11.54-.4,.07-1.26,1.79-2.12,3.21-.91,1.41-1.81,2.5-2.25,1.36-1.97,4.18-1.46,3.88-.35,2.64,1.13-1.22,2.71-3.44,2.94-2.88-2.2,7.07-7.65,14.06-14.13,20.99-6.47,6.99-14.05,14.05-20.8,22.6-1.6,1.7-2.99,3.28-4.29,4.7-1.33,1.39-2.52,2.67-3.61,3.88-2.18,2.42-3.95,4.58-5.83,6.57-1.85,2.02-3.66,4.04-5.87,6.25-2.26,2.14-4.9,4.49-8.31,7.3-2.81,1.16-2.15-.06-.83-1.57,1.29-1.56,3.26-3.42,3.26-3.42-4.14,2.38-7.77,4.42-11.16,6.7-1.69,1.15-3.36,2.3-5.08,3.47-1.71,1.19-3.43,2.44-5.24,3.79,1.22-1.5-.64-.96-3.4-.29-3.06,1.85-3.77,3.02-4.82,4.2-1.05,1.16-2.39,2.42-6.86,4.14,1.05-1.48,2.29-3.57,4.86-6.01-3.49,2.4-6.96,4.79-10.46,7.19-1.74,1.24-3.55,2.38-5.37,3.55-1.82,1.16-3.67,2.31-5.57,3.43-2.63-.11,3.9-4.09,6.27-6.19-8.43,5.03-22.5,11.9-24.52,14.94l6.1-1.89c-3.26,1.54-2.39-.84-.12-2.23,7.01-4.95,11.34-4.48,12.1-4.03l-5.48,3.07c1.91,.28,4.29-.25,6.94-1.37,2.63-1.15,5.54-2.83,8.56-4.7,3-1.92,6.06-4.11,9.09-6.12,3.02-2.04,5.92-4.07,8.7-5.55l-3.03,5.31,5-4.33c1.67-1.43,3.26-2.98,4.88-4.45,2.76-.74,5.31-.26,.2,3.41,4.28-1.73,5.88-3,7.3-4.21,1.42-1.24,2.69-2.36,6.44-3.81,.87-.25,.63,.08,.03,.63,1.15-.96,2.33-1.88,3.45-2.86l3.36-2.97c-1.05,1.55,2.48,.93-2.26,3.76,3.52-1.97,6.55-4,9.14-6.02,2.54-2.09,4.69-4.1,6.6-5.9,1.94-1.77,3.48-3.51,5.03-4.81,1.53-1.32,2.98-2.31,4.53-2.84l-.9,1.01c2.08-1.87,3.52-3.45,4.63-4.64,1.1-1.2,1.82-2.06,2.27-2.68,.9-1.24,.74-1.55,.42-1.78-.32-.23-.81-.38-.56-1.29,.12-.46,.42-1.11,1.02-2.05,.56-.98,1.39-2.26,2.61-3.96,3.93-1.29,7.95-2.61,11.86-4.17l-.22-3.16c1.59-1.66,4.66-5.03,4.82-3.8,4.22-7.65-1.68,.5,.31-4.28,2.11-1.83,4.29-4.31,6.28-7.09,2-2.77,3.86-5.8,5.49-8.64,3.27-5.7,5.52-10.68,7.71-11.16-.05-2.21-1.36,.17-2.3,1.58-.45,.72-.81,1.2-.81,.81-.01-.4,.38-1.66,1.21-4.5,2.45-.81,3.6-4.18,4.29-8.48,.69-4.34,.87-9.44,1.56-14.63,1.11,1.56,1.21,4.95,1.21,6.56,0,.8,.05,1.18,.3,.7,.13-.24,.3-.69,.51-1.43,.23-.73,.47-1.75,.75-3.12-.83-1.69-1.23-3.8-1.63-6.2-.41-2.4-.8-5.12-1.58-7.9-.76-2.77-1.79-5.62-3.22-8.11-1.43-2.47-3.09-4.69-4.91-6.2-1.11,.78-4.76-2.6-10.59-5.89-2.91-1.64-6.37-3.23-10.1-4.35-3.73-1.13-7.64-1.78-11.32-1.95,.54-.41-6.4-1.69-15.16-1.34-4.37,.13-9.15,.61-13.65,1.21-2.25,.29-4.42,.63-6.45,.96-2.03,.33-3.94,.58-5.59,.88l.28-.54c-.95,1.68-4.83,3.09-9.58,4.77-4.77,1.6-10.43,3.46-15.06,5.39-.17-1.66,1.3-2.93,6.3-5.32-1.52,.46-3.02,.99-4.52,1.51l-4.5,1.57c-.9,.81-2,1.59-3.58,2.47-.79,.45-1.7,.9-2.76,1.43-1.05,.54-2.25,1.14-3.64,1.8l1.43-2.81c-1.46,.62-2.91,1.28-4.36,1.96-1.44,.7-2.86,1.46-4.3,2.22-2.89,1.49-5.72,3.23-8.7,4.9-5.89,3.49-12.11,7.18-19.39,10.9,.12,1.05,3.58,.51,5.24,.97,.83,.23,1.21,.71,.54,1.74-.67,1.03-2.43,2.58-5.75,5.15-1.08-.53-2.59-1.66,.91-4.44-.58,.45-1.55,1.34-2.71,2.26-1.17,.92-2.52,1.88-3.84,2.55,1.51-1.79,3.12-3.46,4.71-5.2-6.59,3.36-2.43,3.3-7.34,6.47-.38-.64-1.42-.24-2.37,.15-.95,.39-1.78,.79-1.78,.06,1.12-1.03,4.57-2.45,6.09-4.22-2.81,1.78-6.01,3.63-8.78,5.24-2.82,1.55-5.22,2.85-6.62,3.24,.99,.31,1.2,1.53-2.45,4.77-4.83,4.08-5.86,4.56-6.56,4.41-.68-.12-.96-.8-3.98,1.46-.76,1.47-2.83,3.37-4.45,5.24-1.61,1.87-2.86,3.58-2.12,4.41-2.52,2.74-3.73,2.59-5.15,3.28-.94,1.39-2.55,3.67-4.44,6.13-1.77,2.57-3.83,5.34-5.35,7.95-1.63,2.53-2.77,4.86-3.22,6.15-.45,1.3-.16,1.59,1.3,.29l1-1.37c-.12,.29-.31,.62-.47,.97l.03-.05-.03,.05c-2.39,4.85-4.6,9.87-6.78,14.95-.96,2.6-2.09,5.14-2.9,7.82l-.67,1.99c-.23,.66-.46,1.32-.62,2.01l-1.09,4.07-.28,1.02-.21,1.04-.4,2.08-.4,2.08-.19,1.04-.12,1.05c-.3,2.8-.68,5.61-.67,8.44-.05,5.64,.69,11.36,2.67,16.62l-.71,.19c2.4,6.35,6.68,12.94,11.99,17.5,2.65,2.28,5.43,4.18,8.15,5.56,2.72,1.37,5.32,2.33,7.61,2.81,1.76,.74,3.78,1.75,5.17,2.65,1.4,.84,2.16,1.62,1.24,1.83,1.24,.29,2.38,.42,3.4,.57,1.02,.16,1.96,.22,2.84,.29,1.75,.17,3.31,.16,4.98,.27,1.68,.02,3.5,.12,5.79,.16,1.15,.05,2.41,.01,3.85,.05,1.43-.04,3.04-.02,4.84-.13-1.23,.33-2.1,.57-2.71,.73-.61,.18-.96,.31-1.13,.4-.35,.2-.02,.26,.18,.3,.21,.03,.29,.03-.54,.08-.42,.04-1.07,.04-2.06,.07-.49,.01-1.07,.03-1.74,.05-.67,0-1.44-.02-2.32-.03,6.63,.3,10.74,.15,14.87-.44,4.1-.65,8.31-1.78,14.54-4.92-.96,.82-.83,1.18,.01,1.22,.85,.04,2.4-.24,4.23-.77,3.68-1.02,8.41-3.02,11.06-4.52-2.9,.8-5.83,1.54-8.78,2.2,3.12-1.36,6.04-2.64,8.87-3.87,1.41-.62,2.79-1.23,4.16-1.84,1.36-.63,2.71-1.25,4.07-1.87l-1.83,3.67c12.44-4.2,22.07-11.22,30.76-17.75,4.39-3.25,8.47-6.53,12.72-9.33,2.11-1.42,4.21-2.79,6.42-3.98,1.1-.6,2.21-1.17,3.35-1.69,1.13-.54,2.27-1.05,3.45-1.52,2.23-2.71-.76-.89-3.85,.92-3.14,1.76-6.36,3.54-4.45,.97,1.23-.81,2.5-1.57,3.78-2.31,1.26-.76,2.54-1.48,3.81-2.17,2.53-1.39,5.07-2.59,7.33-3.76,4.53-2.3,8.3-4,9.73-5.18,3.38-2.25,5.68-4.13,7.41-5.87,1.71-1.75,2.89-3.33,4.07-4.93,2.38-3.18,4.71-6.51,11.4-11.63-2.2,.75-5.26,.27,3.6-8.58,8.93-7.52,13.21-6.8,8.17-1.34-2.05,1.93-3.25,2.62-3.36,2.32-2.6,2.77-6.13,6.31-1.98,3.98l.56-1.67c2.47-1.6,6.72-5.09,10.07-7.77,3.35-2.68,5.87-4.51,4.96-2.69,5.97-6.6,1.82-3.62-3.34,.45,6-4.57,10.3-8.56,14.61-12.62,4.3-4.05,8.59-8.26,14.45-13.02-2.1,1.24-4.45,2.01-2.67,.38,8.58-7.08,10.2-8.73,11-10.21,.83-1.39,.75-2.57,6.67-7.03,3.85-1.81,3.67-.65,3.98-.29,.16,.19,.44,.22,1.41-.35,.48-.29,1.14-.72,2.05-1.31,.45-.3,.97-.65,1.57-1.05,.6-.38,1.27-.81,2.03-1.29,4.1-1.56,4.75-1.11,4.04-.2-.7,.96-2.71,2.53-4,3.67,2.53-1.92,5.29-3.28,7.9-4.32,2.55-.96,4.87-1.32,6.56-1.18,.85,.07,1.52,.26,2.04,.5,.26,.12,.48,.25,.68,.39,.19,.18,.38,.32,.57,.44,.65,.6,1.07,1.27,1.6,1.98-.9-.64-1.63-.8-2.3-.82,.61,.03,1.15,.22,1.7,.68,.54,.51,1.09,1.15,1.59,2.06,.11-.96,.18-1.94,.13-2.86,1.28,1.85,2.22,4.44,1.51,4.61,1.1,1.22,1.58,.48,2.25-.05,.33-.25,.71-.41,1.25-.11,.54,.3,1.26,1.06,2.11,2.84,.09,1.27,.32,2.84,.55,4.56,.21,1.74,.42,3.5,.45,5.41,.16,3.72-.15,7.01-1.39,7.88,.43-4.26,.33-6.28,.12-7.12-.21-.84-.53-.52-.9-.12-.36,.4-.76,.87-1.11,.37-.38-.47-.56-2.13-.94-5.15,.13,.59,.24,1.22,.3,1.9,.08,.64,.11,1.45,.12,2.28,.05,1.65-.07,3.48-.27,5.46-.27,.58-.48-.58-.59-1.65-.59,3.92-.94,6.32-.94,8.01,.02,1.69,.24,2.66,.6,3.67,.35,1.01,.72,2.06,.84,3.91,.12,1.85-.06,4.5-1,8.68-.81-2.39-3.33,3.26-3.83,5.98,.92-3.29,1.62-3.96,2.09-2.99,.24,.49,.37,1.38,.42,2.55,.06,1.18-.02,2.64-.24,4.25-2.11,5.18-2.94,8.09-3.47,10.43-.52,2.34-.74,4.1-1.88,6.83,.98-2.03,1.95-4.07,2.85-6.13,.46,2.6-1.61,7.9-4.55,15.28-1.22,.2,2.26-6.86,.69-4.46-.35,2.23-1.17,4.44-2.25,6.66-.54,1.11-1.15,2.22-1.79,3.35-.67,1.11-1.44,2.21-2.2,3.34-1.53,2.26-3.12,4.58-4.58,7.07-1.5,2.47-3.03,5.02-4.17,7.88-3.57,4.46-2.41-.76-5.4,3.19-1.44,3.08-2.76,5.35-4.01,7.2-1.26,1.85-2.4,3.31-3.72,4.69-1.28,1.4-2.58,2.8-4,4.63-1.42,1.83-2.9,4.12-4.85,7.1,3.93-2.15,4.06-3.04-.76,6.02l3.37-4.86,1.68-2.42,1.57-2.5,3.13-5c1.02-1.68,2.13-3.29,3.06-5.03-.25,.59-.48,1.19-.75,1.77l-.82,1.73-1.64,3.47c-1.11,2.31-2.18,4.66-3.34,6.96,2.11-2.89,4.03-6.17,5.79-9.1,.44-.73,.87-1.44,1.29-2.13,.41-.69,.76-1.37,1.13-2,.72-1.27,1.41-2.37,2.04-3.23-2.65,6.91-2.64,6.07,.45,3.96-1.84,1.75-3.47,3.59-4.89,5.61-1.42,2.01-2.67,4.17-3.93,6.4-1.28,2.21-2.7,4.38-4.24,6.56-.78,1.08-1.6,2.16-2.5,3.21-.45,.52-.91,1.04-1.39,1.55-.5,.5-1.03,.97-1.58,1.44l-3.18-3.08c-3.13,2.87-5.74,5.86-8.28,8.86-2.62,2.93-5.06,5.98-7.61,9.18-2.67,3.07-5.47,6.26-8.62,9.61-1.64,1.6-3.4,3.22-5.27,4.87-.94,.83-1.9,1.66-2.91,2.5-.5,.42-1.01,.84-1.53,1.27-.53,.41-1.09,.8-1.65,1.2l1.5-.95c.49-.33,.97-.68,1.46-1.01l2.91-2.05c-.55,1.62-3.01,4.01-6.18,6.35-1.56,1.2-3.23,2.48-4.86,3.73-.81,.64-1.6,1.27-2.35,1.91-.77,.61-1.51,1.2-2.18,1.8-.35-1.57-4.28,.6-7.26,1.62,1.03,.86-13.32,8.84-13.55,12.32l-9.47,3.28c-.97,.53-1.91,1-2.8,1.44-.89,.45-1.72,.9-2.5,1.34-1.57,.88-2.94,1.74-4.19,2.59-1.26,.83-2.36,1.71-3.45,2.47-1.09,.77-2.11,1.53-3.13,2.3-2.04,1.53-4.08,3.07-6.6,4.65-2.54,1.53-5.6,3.03-9.67,4.43,2.14-1.65,1.27-2.06,1.18-2.67-.05-.31,.09-.67,.88-1.29,.79-.61,2.22-1.48,4.73-2.85-2.61,1.1-5.14,2.01-6.97,2.8-1.84,.75-2.98,1.37-2.85,1.87-1.71,.15-5.23,1.9-9.06,3.57-3.84,1.62-8,3.14-10.68,3.01-1.08,.6-1.72,1.31-2.89,2-.58,.35-1.3,.71-2.26,1.04-.96,.33-2.18,.6-3.75,.85-.73-.18-.09-.73-.09-.73,.05,.39-2.37,.99-4.1,1.59-.86,.32-1.56,.58-1.68,.87-.12,.27,.34,.58,1.79,.79-4.54-.59-9.78-.71-15.37-.99-1.4-.08-2.82-.11-4.25-.24-1.43-.1-2.89-.18-4.32-.33-2.87-.28-5.75-.69-8.55-1.31-5.58-1.21-10.82-3.35-14.52-6.45-1.85-1.53-3.31-3.27-4.32-5.03-.44-.94-.9-1.79-1.18-2.67-.23-.91-.48-1.73-.56-2.56-2.25-4.61-3.1-10.8-2.35-17.05,.12-1.56,.44-3.11,.69-4.65,.35-1.53,.65-3.06,1.1-4.53,.8-2.97,1.81-5.77,2.84-8.33,.14,.82,.64,.31-.25,2.18,1.7-3.39,2.67-5.65,3.23-7.48,.59-1.83,.71-3.19,.86-4.62,.15-1.43,.34-2.93,1.09-5.02,.35-1.06,.96-2.21,1.74-3.59,.79-1.37,1.8-2.95,3.1-4.8,6.63-6.66-3.65,8.86-.02,4.4,1.36,.07,2.68-1.06,4.01-2.94,.33-.47,.66-.99,1.01-1.54,.37-.54,.73-1.12,1.11-1.73,.75-1.22,1.52-2.57,2.32-4,.81-1.42,1.59-2.94,2.51-4.41,.93-1.47,1.89-2.95,2.89-4.38,1-1.43,2.03-2.83,3.11-4.1,1.13-1.24,2.3-2.36,3.49-3.32l-1.55,2.45c1.73-1.54,3.35-3.47,4.96-5.69,1.61-2.22,3.38-4.6,5.15-7.22,1.75-2.64,3.77-5.32,5.93-8.07,1.09-1.37,2.19-2.78,3.4-4.13,1.23-1.34,2.5-2.68,3.84-4,0,0-.2,.82,.46,.58,.67-1.14,1.46-2.36,2.36-3.65,.89-1.3,1.94-2.6,3.04-3.98,2.22-2.75,4.72-5.73,7.51-8.62,1.39-1.45,2.8-2.93,4.21-4.41,1.42-1.48,2.92-2.88,4.37-4.3,1.46-1.41,2.91-2.8,4.32-4.16,1.44-1.33,2.85-2.62,4.19-3.86-2.27,4.37-4.44,5.02-1.07,4.72,4.85-4.39-3.5-1.15,6.24-9.92,1.99-.93,4.97-2.7,7.73-4.12,2.76-1.43,5.35-2.45,6.46-2.03-3.24,2.52-6.39,5.13-9.56,7.72,6.54-1.88,12.39-9.95,17.87-13.5l.04,1.43c7.39-5.85,10.77-9.32,14.32-12.88,3.57-3.53,7.33-7.14,15.7-12.89l-2.23,.48c7.47-8.74,8.55-3.99,16.54-11.93l4.41,.64c1.42-1.16,3.39-2.73,5.71-4.55,1.16-.91,2.4-1.91,3.72-2.91,1.33-1,2.72-2.04,4.15-3.11,2.85-2.17,5.95-4.26,8.98-6.36,3.07-2.01,6.11-3.97,8.96-5.6-1.41,1.31-3.22,2.9-5.33,4.52-2.1,1.6-4.43,3.37-6.81,5.18-2.4,1.76-4.8,3.62-7.09,5.38-2.3,1.74-4.42,3.47-6.24,5,3.03-1.92,8.19-5.19,12.98-8.23,2.4-1.5,4.66-3.04,6.53-4.31,1.87-1.27,3.29-2.37,3.94-3.14-2.41,1.64-5.27,3.98-7.96,5.04,6.5-6.36,16.3-13,29.57-18.67-.01,.79,.53,1.16,1.5,1.22,.97,.06,2.36-.21,4.09-.62,1.73-.43,3.77-1.07,6.02-1.85,2.27-.71,4.75-1.51,7.32-2.38,2.58-.83,5.28-1.57,7.94-2.35,2.66-.75,5.33-1.29,7.82-1.82,4.97-.98,9.29-1.22,11.89-.5,5.83-1.51,11.77-2.2,17.61-2,2.93,.05,5.79,.46,8.61,.97l2.08,.5,1.04,.25c.34,.1,.67,.21,1.01,.32l2.02,.65c.66,.24,1.3,.53,1.95,.79,1.33,.48,2.52,1.2,3.77,1.8,.62,.32,1.18,.73,1.78,1.08,.58,.37,1.2,.7,1.73,1.15,2.28,1.59,4.31,3.45,6.19,5.58,3.76,4.25,6.79,9.53,9.03,15.52,.15-1.26,.26-2.11,.37-2.62,.13-.52,.28-.7,.47-.64,.37,.12,.87,1.23,1.38,2.61,1.05,2.73,2.04,6.56,4.06,5.23,.9,3.15,1.23,5.4,1.41,6.91,.16,1.51,.11,2.3,0,2.61-.37,6.71-1.7,13.28-3.63,19.67-1.02,2.22-1.03,.63-.92-1.42,.08-2.06,.16-4.58-.39-4.34-.43,3.45-.97,5.53-1.4,6.83-.46,1.3-.82,1.83-1.2,2.21-.78,.75-1.45,.9-3.1,5.28,2.01-1.51,1.27,5.39-1.96,13.13,1.89-3.49,3.66-7.04,5.29-10.62-.66,5.06-1.72,8.63-2.83,11.38-1.07,2.77-2.3,4.7-3.49,6.63-1.17,1.94-2.45,3.83-3.72,6.5-.61,1.34-1.31,2.85-2.01,4.65-.35,.9-.7,1.87-1.06,2.94-.37,1.05-.78,2.18-1.19,3.42l.72-3.25,.62-3.27c-1.64,5.01-5.74,13.83-10.27,22.44-4.48,8.64-9.31,17.1-10.88,22.44-.75,.63-1.77,1.25-2.27,1.22-.52-.04-.46-.68,.73-2.7-7.55,10.2-15.86,21.73-24.79,31.99-8.88,10.27-18.32,19.23-26.83,24.61l.8-2.11c-3.5,3.25-5.23,6.86-10.74,9.54-.02-.56,.88-2.05-.93-.78-.88,.93-3.21,3.14-5.98,5.57-2.82,2.36-6.13,4.89-9,6.32,1.29-1.35,2.6-2.65,3.85-4.03-10.79,6.34-18.69,11.74-26.24,17.01-7.55,5.21-14.79,10.24-24.4,14.77-.31-.76-1.71-.91-3.77-.66-2.07,.23-4.8,.82-7.79,1.58-5.99,1.48-13.03,3.43-17.75,4.55l.19-.55c-13.78,3.9-25.48,6.89-37.16,8.98-2.92,.59-5.83,.93-8.77,1.4-1.47,.16-2.95,.33-4.43,.5-.74,.08-1.49,.16-2.24,.24-.75,.05-1.5,.1-2.25,.15-1.51,.09-3.03,.19-4.57,.29-1.49,.04-3,.09-4.52,.05-3.04-.05-6.15-.25-9.26-.75-1.77-.79-3.85-1.72-6.17-2.75-2.2-1.08-4.61-2.22-6.85-3.69-4.52-2.92-8.46-6.8-10.31-11.99-.93-2.58-1.41-5.5-1.41-8.65,.02-3.15,.53-6.51,1.38-9.84,.85-3.34,2.04-6.65,3.43-9.82,.36-.79,.73-1.57,1.08-2.35,.4-.79,.79-1.56,1.17-2.33,.39-.76,.78-1.52,1.17-2.26,.42-.73,.83-1.45,1.23-2.16-1.13,1.66-1.65,1.25-1.65-.13-.01-1.39,.48-3.77,1.45-5.92,.43-.65,.85-1.4,1.25-2.19,.43-.79,.84-1.63,1.25-2.49,.79-1.73,1.6-3.5,2.37-5.03,.75-1.55,1.49-2.84,2.17-3.59,.67-.76,1.26-.97,1.76-.36l-1.25,1.84c1.27-.59,2.57-1.74,3.97-3.23,1.43-1.47,2.84-3.32,4.4-5.29,3.03-3.99,6.38-8.6,9.59-12.44l-1.99-3.8c5.36-4.2,10.89-9.49,16.58-15.14,5.68-5.65,11.51-11.63,17.26-17.12,5.74-5.5,11.42-10.52,16.63-14.35,5.23-3.79,9.95-6.45,13.64-7.3,4.72-4.33,11.53-8.17,16.65-11.89l.66,2.04c7.84-3.67,13.87-5.97,20.42-8.17,6.56-2.14,13.65-4.51,23.76-6.21-1.31,.69-2.6,1.41-3.87,2.15,5.64-.93,8.99-2.72,12.48-4.45,3.45-1.69,7.06-3.28,12.53-2.71,.95,1.2,1.86,2.38,2.7,3.61,9.62,1.66,18.59,6.42,25.13,12.73,3.35,3.12,5.94,6.7,8.23,10.55,2.27,3.87,4.11,8.07,5.72,12.59-.25-.11-.63-.26-1.02-.75-.41-.49-.91-1.28-1.33-2.71,.12,.53,.26,1.12,.41,1.76,.07,.32,.16,.65,.22,1,.05,.36,.1,.72,.15,1.1,.11,.76,.22,1.55,.33,2.38,.08,.84,.11,1.72,.18,2.62,.03,.45,.07,.9,.1,1.36,0,.46,0,.93,0,1.4,0,.94,.04,1.89,.02,2.84-.1,1.92-.11,3.82-.3,5.65-.08,.91-.09,1.8-.19,2.66-.09,.86-.17,1.68-.22,2.46-.02,.39-.04,.77-.07,1.14-.03,.37-.06,.72-.09,1.06-.05,.68-.07,1.31-.07,1.87,.03,1.12,.12,1.98,.36,2.48,.25,.5,.67,.65,1.3,.33-1.44-.17-2.46,4.93-4.26,11.35-.9,3.18-1.94,6.81-3.09,10.27-1.12,3.47-2.33,6.78-3.38,9.48-.34-.85-.66-1.69-1.03-2.53-.52,2.45-.92,4.31-1.27,5.93-.41,1.61-.78,2.99-1.27,4.45-1.04,2.88-2.51,6.1-6.15,11.98-2.1,2.52-3,1.37-.09-1.85-3.53,4.14-4.45,6.07-5.49,8.31-1.1,2.18-2.34,4.68-7.07,9.36,.76-1.52,1.43-3.09,2.14-4.63-.91,1.06-1.68,1.99-2.35,2.81-.69,.8-1.27,1.5-1.76,2.12-.99,1.24-1.63,2.18-2.17,3.01-1.06,1.67-1.49,3.06-3.09,5.83-2.11,2.89-6.03,6.59-9.73,9.49-3.77,2.83-7.23,4.94-8.5,4.74-.19,.92-1.19,2.69-2.83,4.72-1.66,2-4.01,4.22-6.77,6.09-.58,0-.45-.47-.08-1.04,.36-.58,.96-1.29,1.36-1.75-1.91,1.37-3.74,2.59-5.4,3.82-1.65,1.25-3.2,2.42-4.67,3.53-1.47,1.12-2.82,2.23-4.13,3.29-1.32,1.04-2.59,2.03-3.82,3-2.43,1.99-4.86,3.65-7.35,5.28-1.24,.82-2.57,1.49-3.94,2.17-1.37,.66-2.8,1.3-4.33,1.85-.57-.48-1.47-.41-2.51-.1,.82-.42,1.63-.84,2.43-1.25,.78-.44,1.56-.87,2.31-1.3,1.52-.85,2.98-1.67,4.36-2.45,2.71-1.67,5.17-3.09,7.15-4.36,3.94-2.55,6.24-4,5.81-3.63-.54-.77-3.35,.4-5.2,.84-1.85,.44-2.74,.13,.41-3.55-1.77,1.59-3.78,3.58-6.13,5.53-1.17,.99-2.38,2.03-3.63,3.09-1.28,1-2.61,2.01-3.96,3.03-.68,.5-1.36,1.01-2.04,1.51l-2.12,1.4c-1.42,.92-2.85,1.81-4.27,2.66-1.45,.78-2.9,1.52-4.32,2.19-1.42,.68-2.82,1.27-4.2,1.7-.59,.05-1.16,.09-1.66-.02l1.01-.66c-2.52,.83-4.61,1.98-6.61,3.02-1.77,.49-3.22,.88-4.64,1.3-1.42,.4-2.84,.75-4.5,1.28-.44-.27-1.47-.21-2.86,.08-1.39,.26-3.15,.64-5.03,1.15-.94,.24-1.9,.54-2.88,.78-.98,.23-1.96,.46-2.91,.69-1.91,.43-3.68,.94-5.11,1.12,.89,1.98-6.77,2.95,.65,3.44-.95,0,1.07-.38,4.87-1.36,.85-.25,1.87-.51,2.41-.76-.1,.08-.22,.18-.35,.27,.47-.11,.96-.23,1.47-.35,.5-.14,1.02-.29,1.55-.44,1.07-.3,2.2-.62,3.39-.96,2.39-.61,4.94-1.54,7.68-2.42-4.08,2.47-8.62,4.81-15.29,5.11-1.34,.99-2.76,2.01-4.09,2.91-1.33,.83-2.56,1.56-3.45,2.05-4.34-.66-10.43-.94-14.77-2.36-2.18-.67-3.85-1.57-4.84-2.45-1.02-.86-1.38-1.7-1.38-2.21-2.1-1.16-3.8-2.99-4.41-6.41-.21-.81-.22-1.76-.31-2.68v-1.47c0-.49,.1-1.01,.12-1.52,.19-2.04,.59-4.18,1.19-6.27,.25-1.05,.63-2.08,.94-3.12,.38-1.01,.7-2.04,1.12-3.01,.2-.49,.39-.98,.58-1.46,.21-.48,.42-.95,.62-1.41l.3-.7c.12-.24,.23-.49,.35-.73,.23-.48,.45-.96,.67-1.43,1.73-3.8,3.3-7.17,4.21-10.07,1.37-2.22,2.53-3.22,3.53-3.81,1.02-.57,1.89-.73,2.74-1.27-1.61,2.52-3.8,5.28-4.3,6.9,2.63-4.4,7.41-10.34,11.82-15.37,4.37-5.06,8.24-9.34,8.23-11.21,5.32-4,4.37-2.25,3.73-1.12-.61,1.17-1.01,1.66,5.7-4.43l-1.31,2.23c7.45-4.96,13.83-9.88,19.81-14.83,1.48-1.25,2.94-2.49,4.4-3.72,1.44-1.25,2.87-2.49,4.29-3.73,2.87-2.44,5.66-4.97,8.58-7.37,5.77-4.91,11.87-9.63,18.9-14.02,7.01-4.4,15.07-8.3,24.61-11.29-2.62,.87-3.95,1.3-4.65,1.15,10.42-4.47,21.02-8.82,31.89-12.62,2.73-.9,5.45-1.88,8.2-2.75,2.76-.82,5.5-1.75,8.29-2.51l4.18-1.14c1.4-.39,2.79-.77,4.18-1.09l2.08-.5,2.09-.44c1.4-.31,2.8-.56,4.2-.8,5.61-.96,11.26-1.5,16.85-1.4,5.57,.11,11.09,.85,16.19,2.54,5.09,1.7,9.72,4.37,13.39,7.92,3.73,3.48,6.38,7.88,7.96,12.6,1,2.64,1.55,4.77,2.12,6.5,.24,.88,.51,1.66,.75,2.38,.22,.73,.45,1.39,.69,2.02,.86,2.55,1.87,4.59,2.51,8.3-.79,.86-1.53,1.69-2.36,2.47,.59,4.07,.66,8.37,.29,12.74-.86,4.52-2.63,8.52-4.83,12.13-2.22,3.62-4.89,6.86-7.74,10.1-2.85,3.24-5.92,6.47-9.12,10.07-3.14,3.65-6.48,7.6-9.95,12.39l3.2-1.11c-.77,.74-1.62,1.6-2.53,2.54-.95,.91-1.96,1.89-3,2.89-2.04,2.06-4.35,4.06-6.41,5.87-1.02,.92-2.05,1.7-2.97,2.41-.92,.7-1.75,1.3-2.45,1.76-1.38,.93-2.25,1.23-2.23,.67-.53,.72-1.33,2.9-4.48,4.19l-.88-.82c-5.34,4.41-10.93,8.6-16.83,12.4-7.49,3.19-7.4,1.81-8.12,.94-.36-.44-.93-.77-2.72-.45-.9,.16-2.11,.49-3.75,1.06-1.65,.55-3.78,1.21-6.47,2.21-1.97,.83-4.36,1.85-6.76,3.03-2.44,1.06-4.91,2.22-7.06,3.25-4.32,1.92-7.3,3.57-5.61,3.59,1.73-.37,3.97-.69,5.86-.79,1.89-.1,3.39-.1,3.68,.45-2.54,.98-5.15,1.7-7.75,2.53-.35,1.88-1.92,4.02-.85,5.45,.53,.73,1.75,1.24,4.16,1.45,1.2,.09,2.72,.13,4.58,.01,1.85-.16,4.06-.44,6.7-.86,2.25-1.06,4.47-2.19,6.68-3.28,2.19-1.14,4.33-2.37,6.48-3.55,1.68-.01,3.31-.17,5-.26-1.89,.83-3.77,1.68-5.71,2.39-1.93,.73-3.84,1.53-5.8,2.19,1.81-.16,3.36-.59,4.79-1.02,1.42-.46,2.7-.98,3.86-1.6,2.31-1.29,4.26-2.75,6.33-4.19,1.43,.31,3.57-.02,6.37-1,1.93-1.55,3.77-3.24,5.62-4.85,.93-.79,1.83-1.64,2.71-2.5l2.65-2.54c1.1,.14,.07,1.54-.16,2.37-.24,.81,.37,1.15,4.71-1.12,2.43-2.51,.64-2.25-.62-2.26-1.27,0-2.01-.27,2.32-3.71,1.68-.6,2.83-1.01,3.77-1.27,.93-.27,1.62-.44,2.29-.7,.67-.26,1.31-.63,2.16-1.29,.84-.67,1.83-1.7,3.24-3.23,1.46-.01,.46,1.51-1.89,3.86,1.29-1.35,2.87-2.8,4.54-4.28,1.68-1.47,3.34-3.1,4.96-4.6,1.63-1.49,3.03-3.07,4.18-4.44,1.13-1.39,2.01-2.58,2.33-3.6,1.61-.96,3.48-2.57,5.39-4.41,1.82-1.92,3.72-4.04,5.42-6,1.65-2,3.17-3.78,4.42-4.9,1.22-1.14,2.17-1.64,2.72-1,.39-1.17,1.83-4.19,3.48-7.7,1.66-3.51,3.49-7.55,5.02-10.64-.6,3.25-.19,3.46,.94,2.02,1.08-1.47,2.79-4.63,4.36-8.24,1.59-3.61,2.99-7.66,4.07-10.6,1.08-2.93,1.99-4.72,2.85-3.62-.38-2.67-.28-6.31-.41-10.53-.12-4.21-.45-9.03-1.43-14.03-.98-4.99-2.56-10.19-5.07-14.89-2.46-4.71-5.76-8.89-9.37-11.87,.46,.28,1.14,.7,1.84,1.22,.69,.53,1.33,1.21,1.79,1.9-.79-1.05-1.52-2.02-2.26-2.86-.72-.85-1.36-1.66-2.03-2.32-.65-.69-1.24-1.34-1.8-1.94-.28-.31-.55-.61-.81-.9-.27-.28-.56-.53-.82-.79-1.09-1.02-2.07-2.02-3.16-2.97-1.12-.89-2.32-1.82-3.76-2.82-.65,.5-2.07,.49-3.94,.18-.47-.07-.96-.19-1.48-.26-.52-.08-1.07-.16-1.65-.24-.56-.1-1.15-.2-1.76-.3-.6-.12-1.22-.23-1.86-.29-5.05-.81-10.81-.94-14.74-.3-2.78-.93-3.78-1.46-3.7-1.96,.07-.49,1.2-.93,2.63-1.24,1.42-.31,3.11-.68,4.26-.99,1.15-.34,1.74-.82,.85-1.62,.09,.63-1.23,.83-3.12,1.1-.95,.12-2.04,.21-3.2,.28-1.14,.12-2.34,.25-3.52,.37-1.18,.1-2.3,.29-3.31,.46-1.01,.17-1.89,.34-2.57,.53-1.34,.42-1.85,.83-.86,1.25-4.4-.58-6.28-.47-7.66-.63-1.38-.12-2.22-.35-4.66-1.21-.46,1.92-2.39,2.45-5.05,2.95-1.31,.29-2.84,.54-4.38,1.01-1.53,.48-3.12,1.13-4.66,2.1-3.06,.29-4.82,.36-5.95,.3-1.14-.07-1.64-.27-2.16-.38-.52-.1-1.05-.11-2.24,.21-1.19,.3-3.02,1.01-6.11,2.34-3.2,.47-2.09-.54-.15-1.67,.97-.57,2.14-1.16,3.08-1.62,.93-.47,1.63-.74,1.63-.74Zm-80.98,154.65s.01,.03,.02,.04c-2.45,1.19-4.61,2.06-5.95,2.68,1.23-.57,2.99-1.28,5.93-2.72Zm23.36-12.48c-2.76,1.67-6.28,3.6-9.96,5.7-1.16-.19-.63-1.33,1.68-2.6-.51,.56,.64,.18,2.38-.53,.87-.36,1.9-.77,2.92-1.24,1.02-.47,2.05-.94,2.97-1.33Zm-55.06,8.4c1.82-.65,3.07-.96,3.95-1.08,.87-.15,1.36-.09,1.68,.03-1.72,.64-3.79,1.2-6.46,2.1-.09,.11-.29,.25-.38,.37,.26-.49,.57-.96,1.21-1.42Z"/>
          </g>
          <g>
            <circle class="cls-18" cx="434.59" cy="121.39" r="24.88"/>
            <path class="cls-23" d="M422.44,114.43s7.38,16.81,24.23,10.87c0,0-5.25,11.37-16.71,6.75-11.46-4.62-7.51-17.61-7.51-17.61Z"/>
            <path class="cls-7" d="M423.15,109.99s3.12-2.17,5.06,2.01"/>
            <path class="cls-7" d="M442.94,119.83s3.12-2.17,5.06,2.01"/>
            <path class="cls-21" d="M423.37,124.75s7.99-.13,11.01,7.98c0,0-6.92,.36-11.01-7.98Z"/>
            <path class="cls-13" d="M458.78,120.97l-.48-.46s-4.78-9.35-17.98-9.26c-.43,0-.68-.05-.98,.24l-2.33-1.03c-7.27-11.01-17.7-9.78-17.7-9.78l-.65-.14c-1.38-.3-2.78,.46-3.28,1.78-.43,1.13-.11,2.4,.81,3.19l.48,.41s-3.73,9.37,6.08,13.49c6.88,2.89,10.99-1.81,13.06-5.16l1.82,.46c-1.47,3.71-2.53,9.6,3.2,13.37,8.88,5.85,14.59-2.46,14.59-2.46l.61,.17c1.16,.32,2.4-.12,3.1-1.1,.82-1.16,.67-2.74-.35-3.72Zm-35.09-4.62c-3.6-1.93-5.1-6.15-3.35-9.41,1.75-3.26,5.3-3.19,8.9-1.26,3.6,1.93,5.9,4.99,4.14,8.26-1.75,3.26-6.09,4.35-9.69,2.41Zm19.15,9.24c-3.61-1.92-5.13-6.12-3.39-9.4,1.74-3.27,5.56-3.07,9.17-1.15,3.61,1.92,5.64,4.83,3.91,8.1-1.74,3.27-6.07,4.37-9.68,2.45Z"/>
          </g>
          <g>
            <g>
              <path class="cls-4" d="M102.25,140.6s-11.24,261.73,85.7,274.3l204.01-9.6s-61.12-115.95-51.93-261.97l-237.78-2.73Z"/>
              <path class="cls-4" d="M106.73,129.68s-11.24,261.73,85.7,274.3l204.01-9.6s-61.12-115.95-51.93-261.97l-237.78-2.73Z"/>
              <path class="cls-4" d="M113.18,122.6s-11.24,261.73,85.7,274.3l204.01-9.6s-66.96-98.43-51.93-261.97l-237.78-2.73Z"/>
              <path class="cls-3" d="M212.15,332.52c2.04,43.44-26.17,50.47-26.17,50.47-60.42-10-65.26-264.55-65.26-264.55l230.67,3.42s5.29,173.17,33.94,236.05l-173.19-25.39Z"/>
              <path class="cls-3" d="M185.97,382.99l204.37-9.61s14.18-17.08,11.59-41.94l-189.14-.38s-7.69,48.89-26.82,51.93Z"/>
            </g>
            <path class="cls-24" d="M141.23,141.15l184.67,2.29c.71,0,1.31,.52,1.44,1.22l1.67,9.12c.17,.92-.55,1.77-1.48,1.75l-185.76-2.97c-.77-.01-1.4-.61-1.46-1.38l-.58-8.43c-.06-.87,.63-1.6,1.5-1.59Z"/>
            <path class="cls-24" d="M143.52,163.95l104.5,2.15c.71,0,1.31,.52,1.44,1.22l1.67,9.12c.17,.92-.55,1.77-1.48,1.75l-105.59-2.83c-.77-.01-1.4-.61-1.46-1.38l-.58-8.43c-.06-.87,.63-1.6,1.5-1.59Z"/>
            <path class="cls-24" d="M149.54,211.67l104.5,2.15c.71,0,1.31,.52,1.44,1.22l1.67,9.12c.17,.92-.55,1.77-1.48,1.75l-105.59-2.83c-.77-.01-1.4-.61-1.46-1.38l-.58-8.43c-.06-.87,.63-1.6,1.5-1.59Z"/>
            <path class="cls-24" d="M147.95,187.44l156.46,.69c.71,0,1.31,.52,1.44,1.22l1.67,9.12c.17,.92-.55,1.77-1.48,1.75l-157.55-1.38c-.77-.01-1.4-.61-1.46-1.38l-.58-8.43c-.06-.87,.63-1.6,1.5-1.59Z"/>
            <path class="cls-24" d="M152.53,233.04l184.67,2.29c.71,0,1.31,.52,1.44,1.22l1.67,9.12c.17,.92-.55,1.77-1.48,1.75l-185.76-2.97c-.77-.01-1.4-.61-1.46-1.38l-.58-8.43c-.06-.87,.63-1.6,1.5-1.59Z"/>
            <path class="cls-24" d="M154.82,255.84l142.9-1.36c.71,0,1.31,.52,1.44,1.22l1.67,9.12c.17,.92-.55,1.77-1.48,1.75l-143.99,.67c-.77-.01-1.4-.61-1.46-1.38l-.58-8.43c-.06-.87,.63-1.6,1.5-1.59Z"/>
            <path class="cls-24" d="M160.84,303.56l104.5,2.15c.71,0,1.31,.52,1.44,1.22l1.67,9.12c.17,.92-.55,1.77-1.48,1.75l-105.59-2.83c-.77-.01-1.4-.61-1.46-1.38l-.58-8.43c-.06-.87,.63-1.6,1.5-1.59Z"/>
            <path class="cls-31" d="M159.26,279.33l156.46,.69c.71,0,1.31,.52,1.44,1.22l1.67,9.12c.17,.92-.55,1.77-1.48,1.75l-157.55-1.38c-.77-.01-1.4-.61-1.46-1.38l-.58-8.43c-.06-.87,.63-1.6,1.5-1.59Z"/>
          </g>
          <g>
            <path class="cls-34" d="M29.71,501.89s15.68-232.4,72.71-279.45l9.27,65.58s28.51-34.22,47.76-27.09-23.52,104.08-13.54,124.75c9.98,20.67,21.39,116.2,21.39,116.2H29.71Z"/>
            <path class="cls-32" d="M47.34,368.62s2.52,66.54,40.83,85.69c38.31,19.15,70.07,19.66,76.62,40.33,6.55,20.67-88.21,24.2-88.21,24.2,0,0-46.88-7.06-46.38-23.19s17.14-127.03,17.14-127.03Z"/>
            <path class="cls-17" d="M29.71,501.89s13.1-220.98,74.14-280.16"/>
            <path class="cls-17" d="M152.19,332.83s20.67-67.55,7.26-71.89c-18.11-5.86-47.08,25.51-47.08,25.51,0,0-17.14,15.63-19.66,26.21"/>
            <path class="cls-17" d="M167.29,501.89s-5.06-63.9-15.61-96.98c-11.09-34.78-5.54-47.38-5.54-47.38"/>
            <path class="cls-29" d="M154.41,282.4c-3.77,3.3-9.43,3.01-12.64-.66s-2.76-9.31,1.01-12.61c3.77-3.3,11.58-5.9,14.79-2.24s.6,12.21-3.17,15.51Z"/>
          </g>
          <path class="cls-17" d="M112.37,286.45s-10.08-45.37-8.07-59.48"/>
          <g>
            <g>
              <g>
                <path class="cls-25" d="M510.19,234.21l-14.26-23.88s-26.38-24.95-46.69-37.07c-7.84-4.68-22.46-22.81-48.48-19.6-14.68,1.81-17.83,11.82-35.29,19.25-16.75,7.13-6.88,15.53-9.62,16.4-13.54,4.28-23.88,17.11-23.88,17.11,0,0-.96,5.9-.71,12.12,.36,8.91,28.51,3.56,38.5,2.14s21.03-2.5,21.03-2.5l8.82,11.89c2.43,3.28-.7,7.77-4.62,6.61l-19.17-5.66s-12.12-4.99-12.83,6.77c-.71,11.76,11.05,26.73,11.05,26.73,0,0,12.48,12.83,21.39,16.04s12.12,9.27,12.12,9.27c0,0,30.3,26.38,38.85,38.14,8.55,11.76,32.79,40.28,32.79,40.28l24.24,31.37,6.77-165.39Z"/>
                <g>
                  <path class="cls-17" d="M454.94,196.07c-13.54-32.44-61.2-45.73-76.99-29.94,0,0-28.51,12.12-22.46,22.46"/>
                  <path class="cls-17" d="M441.04,218.17s-17.11-42.06-40.63-39.92c-23.52,2.14-77.7,14.97-69.15,41.7,2.96,9.23,59.88-2.5,59.88-2.5l8.15,11.85c2.32,3.37-.99,7.74-4.86,6.43-10.87-3.67-25.47-7.78-28.95-4.74-5.7,4.99-4.28,32.79,29.23,49.19s114.77,127.6,114.77,127.6V234.56s-6.18-26.38-47.05-50.61c0,0-42.06-46.34-76.99-23.17"/>
                </g>
              </g>
              <path class="cls-17" d="M427.43,234.69c1.58-.08,3.22-.17,4.6-.93s2.42-2.4,1.97-3.91"/>
              <path class="cls-17" d="M454.52,205.95c1.49-.61,3.01-1.23,4.18-2.33s1.92-2.79,1.47-4.33"/>
            </g>
            <g>
              <polygon class="cls-31" points="328.7 273.6 320.92 281.38 305.9 278.69 315.82 265.55 328.7 273.6"/>
              <path class="cls-39" d="M359.43,264.9l-47.38-21.17,78.89-78.89c4.32-4.32,11.31-4.32,15.63,0l18.65,18.65c4.32,4.32,4.32,11.31,0,15.63l-65.78,65.78Z"/>
              <rect class="cls-2" x="359.53" y="191.84" width="19.35" height="57.29" rx="9.67" ry="9.67" transform="translate(474.37 637.45) rotate(-135)"/>
              <path class="cls-8" d="M369.74,233.63s-11.8-.54-14.22-13.14"/>
              <polygon class="cls-31" points="359.43 264.9 352.05 272.27 305.63 251.06 312.04 243.72 359.43 264.9"/>
              <polygon class="cls-11" points="359.43 264.9 352.05 272.27 305.63 251.06 312.04 243.72 359.43 264.9"/>
              <polygon class="cls-39" points="339.16 266.35 330.84 274.67 311.8 267.43 319.04 257.5 339.16 266.35"/>
              <polyline class="cls-12" points="324.77 277.62 320.97 281.43 311.29 280.02"/>
            </g>
            <path class="cls-25" d="M390.66,233.85s-25.9-6.89-27.68,3.92c-1.78,10.81,9.62,25.07,9.62,25.07,0,0,21.39,1.43,18.06-28.99Z"/>
            <path class="cls-8" d="M372.6,262.84s-16.17-19.03-7.13-28.63c5.7-6.06,26.02,0,26.02,0"/>
            <path class="cls-40" d="M382.45,238.54c4.08,1.81,5.97,6.49,4.22,10.46-1.76,3.97-6.49,5.73-10.57,3.92s-9.12-7.14-7.36-11.11c1.76-3.97,9.64-5.07,13.72-3.26Z"/>
          </g>
          <path class="cls-1" d="M72.41,96.78c-1.06,9.28-8.61,16.58-18,17.26,9.39,.69,16.94,7.98,18,17.26,1.06-9.28,8.61-16.58,18-17.26-9.39-.69-16.94-7.98-18-17.26Z"/>
          <path class="cls-14" d="M364.92,427.29c3.92,8.49,12.16,14.3,20.88,17.69,11.75,4.56,25.63,5.16,36.55-1.14,10.92-6.3,17.52-20.53,12.8-32.22-3.32-8.22-13.88-14.01-21.39-9.3-5.87,3.68-6.94,13.09-2.03,17.99,4.82,4.82,12.93,4.44,19.14,1.64,10.62-4.79,18.09-15.9,18.51-27.54,.42-11.64-6.22-23.26-16.47-28.81-4.9-2.65-11.26-3.84-15.85-.68s-4.68,11.76,.63,13.41c1.45,.45,3.02,.33,4.51,0,6.69-1.48,12.13-7.44,13-14.23,.87-6.79-2.91-13.93-9.01-17.04"/>
          <g>
            <circle class="cls-39" cx="52.38" cy="203.29" r="26.18"/>
            <g class="cls-27">
              <circle class="cls-35" cx="52.86" cy="198.73" r="26.18"/>
              <path class="cls-16" d="M36.45,165.92c-9.69,8.8-17.25,19.93-21.86,32.18-1.76,4.67-3,10.23-.25,14.4,2.62,3.97,8.16,5.15,12.75,3.95,4.6-1.2,8.45-4.28,12-7.44,11.74-10.43,22.1-22.74,28.39-37.13,.56-1.28,1.1-2.66,.91-4.04-.31-2.28-2.57-3.9-4.85-4.19s-4.55,.46-6.69,1.3c-13.82,5.47-25.74,15.63-33.34,28.4-2.44,4.1-4.5,8.92-3.28,13.54,.32,1.2,.9,2.4,1.93,3.09,2.11,1.41,4.94,.14,7.09-1.22,12.21-7.75,22.62-18.32,30.17-30.66,1.31-2.14,2.51-5.04,.92-6.99-1.68-2.07-4.98-1.28-7.4-.17-12.34,5.65-22.98,14.93-30.24,26.39-.53,.84-1.07,1.77-.98,2.76,.25,2.89,4.59,2.79,7.17,1.47,14.92-7.64,22.34-25.1,36.29-34.39,2.67-1.78,5.9-3.28,8.99-2.45,3.42,.92,5.57,4.54,5.82,8.06s-1.01,6.98-2.43,10.22c-6.84,15.64-17.8,29.45-31.48,39.68-3.11,2.33-6.42,4.53-8.79,7.61s-3.64,7.35-2.1,10.92c.34,.79,.88,1.58,1.7,1.84,.97,.3,1.98-.23,2.83-.76,16.36-10.31,22.94-31.12,37.59-43.73,2.5-2.15,7.15-3.61,8.43-.56,.7,1.67-.34,3.52-1.35,5.03-5.14,7.69-10.44,15.28-15.91,22.75-7.53,10.3-16.32,21.03-28.71,24.1-3.57,.88-7.65,.98-10.6-1.22-4.69-3.5-4.14-10.76-1.86-16.14,2.38-5.59,6.06-10.53,9.91-15.23,8.66-10.58,18.34-20.33,28.86-29.05,5.52-4.58,12.61-9.13,19.4-6.81,6.95,2.38,9.78,10.97,9.04,18.27-.73,7.31-3.97,14.15-5.06,21.41"/>
            </g>
          </g>
          <g>
            <g>
              <g class="cls-38">
                <path class="cls-37" d="M275.42,81.05h124.3c.21,0,.39,.17,.39,.39v50.2c0,.21-.17,.39-.39,.39h-12.95c-.17,0-.33,.12-.37,.28l-5.24,18.76c-.1,.36-.6,.38-.73,.04l-7.48-18.84c-.06-.15-.2-.24-.36-.24h-97.16c-.21,0-.39-.17-.39-.39v-50.2c0-.21,.17-.39,.39-.39Z"/>
                <path class="cls-22" d="M299.95,151.91c17.16-14.75,33.78-30.51,46.33-49.34,2.31-3.46,4.51-7.12,4.97-11.31,.12-1.06-.04-2.15-.59-3.06-1.53-2.52-4.38-1.94-6.67-1.14-14.21,4.99-25.77,15.76-36.15,26.3-1.97,2-3.66,4.32-4.54,6.99-.08,.24-.13,.5-.11,.75,.06,1.09,1.21,1.87,2.3,1.89,1.09,.03,2.11-.5,3.06-1.05,9.32-5.45,16.32-14.74,18.92-25.23,.23-.94,.23-1.95-.13-2.85-1.12-2.8-4.39-2.43-6.8-1.52-5.03,1.89-9.4,5.17-13.69,8.41-8.16,6.15-16.32,12.31-24.49,18.46-7.69,5.8-15.56,11.78-20.65,19.96-.86,1.38-1.68,3.06-.26,4.62,.88,.96,2.26,1.28,3.53,.99,6.88-1.6,11.59-7.29,15.64-12.87,6.41-8.84,12.16-18.15,17.19-27.84,.72-1.4,.94-3.05,.4-4.53-1.34-3.7-5.99-3.19-9.34-1.98-7.57,2.74-14.59,6.97-20.58,12.34-2.45,2.2,.62,6,3.31,4.11,.05-.03,.1-.07,.14-.1,4.64-3.28,9.2-6.65,13.72-10.09,8.83-6.71,17.76-13.36,25.86-20.94,4.85-4.54,9.47-9.51,11.86-15.79,.73-1.91,.74-4.06-.11-5.92-1.83-4.03-5.92-3.68-9.2-3.01-6.75,1.37-13.12,4.22-18.73,8.22-11.63,8.3-23.87,15.74-35.45,24.12-6.21,4.49-12.33,9.36-16.58,15.73-.76,1.14-1.45,2.68-.64,3.78,.44,.6,1.22,.86,1.95,1,2.98,.58,6.08-.03,8.66-1.62,8.75-5.41,15.97-13.23,20.72-22.34,1.15-2.22,2.21-4.78,.14-7.2-.57-.67-1.32-1.18-2.14-1.51-2.73-1.09-5.59-.38-8.25,.51-7.18,2.4-13.89,6.22-19.61,11.17"/>
              </g>
              <path class="cls-9" d="M275.42,81.05h124.3c.21,0,.39,.17,.39,.39v50.2c0,.21-.17,.39-.39,.39h-12.95c-.17,0-.33,.12-.37,.28l-5.24,18.76c-.1,.36-.6,.38-.73,.04l-7.48-18.84c-.06-.15-.2-.24-.36-.24h-97.16c-.21,0-.39-.17-.39-.39v-50.2c0-.21,.17-.39,.39-.39Z"/>
            </g>
            <text class="cls-5" transform="translate(286.91 110.96)"><tspan x="0" y="0">you can!</tspan></text>
          </g>
          <g>
            <polygon class="cls-20" points="231.52 68.8 254.01 82.51 275.39 69.34 275.39 51.25 232.07 51.25 231.52 68.8"/>
            <polygon class="cls-10" points="254.92 34.05 289.71 45.02 256.26 62.69 216.65 47.97 254.92 34.05"/>
            <path class="cls-11" d="M254.65,45.83s20.61-9.9,25.96,4.28c5.35,14.18,2.94,39.07,2.94,39.07"/>
            <ellipse class="cls-10" cx="283.96" cy="89.45" rx="2.81" ry="3.48"/>
          </g>
          <path class="cls-14" d="M175.69,107.52c9.51-10.15,14.13-24.68,12.23-38.46-.36-2.59-1-5.28-2.79-7.19s-5.04-2.65-7.04-.96c-1.38,1.17-1.81,3.11-1.89,4.92-.35,7.77,4.67,15.5,11.92,18.34,7.25,2.84,16.18,.57,21.2-5.38,2.17-2.57,3.4-6.92,.74-8.97-1.56-1.21-3.92-.97-5.54,.17s-2.59,3-3.16,4.9c-1.41,4.64-.69,9.89,1.92,13.98,2.61,4.09,7.07,6.95,11.88,7.61,4.13,.57,9.12-1.05,10.31-5.05"/>
          <path class="cls-15" d="M42,238.09c2.69,10.56,8.33,20.34,16.09,27.98"/>
          <path class="cls-15" d="M22.03,224.47c-1.13,12.51-.82,25.38,3.24,37.26,4.05,11.89,12.23,22.76,23.63,28.02"/>
        </g>
      </g>
    </g>
  </g>
</svg>